%TF.GenerationSoftware,KiCad,Pcbnew,9.0.7*%
%TF.CreationDate,2026-03-05T21:01:40+01:00*%
%TF.ProjectId,bin_clock,62696e5f-636c-46f6-936b-2e6b69636164,rev?*%
%TF.SameCoordinates,Original*%
%TF.FileFunction,Legend,Top*%
%TF.FilePolarity,Positive*%
%FSLAX46Y46*%
G04 Gerber Fmt 4.6, Leading zero omitted, Abs format (unit mm)*
G04 Created by KiCad (PCBNEW 9.0.7) date 2026-03-05 21:01:40*
%MOMM*%
%LPD*%
G01*
G04 APERTURE LIST*
%ADD10C,0.100000*%
%ADD11C,0.200000*%
%ADD12C,0.300000*%
%ADD13C,0.120000*%
G04 APERTURE END LIST*
D10*
X132750000Y-90500000D02*
X173000000Y-90500000D01*
X173000000Y-108750000D01*
X132750000Y-108750000D01*
X132750000Y-90500000D01*
X132750000Y-90500000D02*
X173000000Y-90500000D01*
X173000000Y-72250000D01*
X132750000Y-72250000D01*
X132750000Y-90500000D01*
X132750000Y-72250000D02*
X173000000Y-72250000D01*
X173000000Y-90500000D01*
X132750000Y-90500000D01*
X132750000Y-72250000D01*
X132750000Y-108750000D02*
X173000000Y-108750000D01*
X173000000Y-127500000D01*
X132750000Y-127500000D01*
X132750000Y-108750000D01*
X170750000Y-131500000D02*
X172000000Y-131500000D01*
X170750000Y-131500000D02*
X170750000Y-129500000D01*
X170750000Y-129500000D02*
X170750000Y-131500000D01*
D11*
X173000000Y-131500000D02*
G75*
G02*
X168500000Y-131500000I-2250000J0D01*
G01*
X168500000Y-131500000D02*
G75*
G02*
X173000000Y-131500000I2250000J0D01*
G01*
D12*
X156233082Y-87443685D02*
X156304510Y-87372257D01*
X156304510Y-87372257D02*
X156447368Y-87300828D01*
X156447368Y-87300828D02*
X156804510Y-87300828D01*
X156804510Y-87300828D02*
X156947368Y-87372257D01*
X156947368Y-87372257D02*
X157018796Y-87443685D01*
X157018796Y-87443685D02*
X157090225Y-87586542D01*
X157090225Y-87586542D02*
X157090225Y-87729400D01*
X157090225Y-87729400D02*
X157018796Y-87943685D01*
X157018796Y-87943685D02*
X156161653Y-88800828D01*
X156161653Y-88800828D02*
X157090225Y-88800828D01*
X149304510Y-93300828D02*
X149304510Y-91800828D01*
X149304510Y-91800828D02*
X149804510Y-92872257D01*
X149804510Y-92872257D02*
X150304510Y-91800828D01*
X150304510Y-91800828D02*
X150304510Y-93300828D01*
X151018796Y-93300828D02*
X151018796Y-91800828D01*
X151733082Y-93300828D02*
X151733082Y-91800828D01*
X151733082Y-91800828D02*
X152590225Y-93300828D01*
X152590225Y-93300828D02*
X152590225Y-91800828D01*
X153304511Y-91800828D02*
X153304511Y-93015114D01*
X153304511Y-93015114D02*
X153375940Y-93157971D01*
X153375940Y-93157971D02*
X153447369Y-93229400D01*
X153447369Y-93229400D02*
X153590226Y-93300828D01*
X153590226Y-93300828D02*
X153875940Y-93300828D01*
X153875940Y-93300828D02*
X154018797Y-93229400D01*
X154018797Y-93229400D02*
X154090226Y-93157971D01*
X154090226Y-93157971D02*
X154161654Y-93015114D01*
X154161654Y-93015114D02*
X154161654Y-91800828D01*
X154661655Y-91800828D02*
X155518798Y-91800828D01*
X155090226Y-93300828D02*
X155090226Y-91800828D01*
X156304512Y-92586542D02*
X156304512Y-93300828D01*
X155804512Y-91800828D02*
X156304512Y-92586542D01*
X156304512Y-92586542D02*
X156804512Y-91800828D01*
X134161653Y-105800828D02*
X135090225Y-105800828D01*
X135090225Y-105800828D02*
X134590225Y-106372257D01*
X134590225Y-106372257D02*
X134804510Y-106372257D01*
X134804510Y-106372257D02*
X134947368Y-106443685D01*
X134947368Y-106443685D02*
X135018796Y-106515114D01*
X135018796Y-106515114D02*
X135090225Y-106657971D01*
X135090225Y-106657971D02*
X135090225Y-107015114D01*
X135090225Y-107015114D02*
X135018796Y-107157971D01*
X135018796Y-107157971D02*
X134947368Y-107229400D01*
X134947368Y-107229400D02*
X134804510Y-107300828D01*
X134804510Y-107300828D02*
X134375939Y-107300828D01*
X134375939Y-107300828D02*
X134233082Y-107229400D01*
X134233082Y-107229400D02*
X134161653Y-107157971D01*
X135661653Y-105943685D02*
X135733081Y-105872257D01*
X135733081Y-105872257D02*
X135875939Y-105800828D01*
X135875939Y-105800828D02*
X136233081Y-105800828D01*
X136233081Y-105800828D02*
X136375939Y-105872257D01*
X136375939Y-105872257D02*
X136447367Y-105943685D01*
X136447367Y-105943685D02*
X136518796Y-106086542D01*
X136518796Y-106086542D02*
X136518796Y-106229400D01*
X136518796Y-106229400D02*
X136447367Y-106443685D01*
X136447367Y-106443685D02*
X135590224Y-107300828D01*
X135590224Y-107300828D02*
X136518796Y-107300828D01*
X149447368Y-87800828D02*
X149447368Y-88800828D01*
X149090225Y-87229400D02*
X148733082Y-88300828D01*
X148733082Y-88300828D02*
X149661653Y-88300828D01*
X148233082Y-111479400D02*
X148447368Y-111550828D01*
X148447368Y-111550828D02*
X148804510Y-111550828D01*
X148804510Y-111550828D02*
X148947368Y-111479400D01*
X148947368Y-111479400D02*
X149018796Y-111407971D01*
X149018796Y-111407971D02*
X149090225Y-111265114D01*
X149090225Y-111265114D02*
X149090225Y-111122257D01*
X149090225Y-111122257D02*
X149018796Y-110979400D01*
X149018796Y-110979400D02*
X148947368Y-110907971D01*
X148947368Y-110907971D02*
X148804510Y-110836542D01*
X148804510Y-110836542D02*
X148518796Y-110765114D01*
X148518796Y-110765114D02*
X148375939Y-110693685D01*
X148375939Y-110693685D02*
X148304510Y-110622257D01*
X148304510Y-110622257D02*
X148233082Y-110479400D01*
X148233082Y-110479400D02*
X148233082Y-110336542D01*
X148233082Y-110336542D02*
X148304510Y-110193685D01*
X148304510Y-110193685D02*
X148375939Y-110122257D01*
X148375939Y-110122257D02*
X148518796Y-110050828D01*
X148518796Y-110050828D02*
X148875939Y-110050828D01*
X148875939Y-110050828D02*
X149090225Y-110122257D01*
X149733081Y-110765114D02*
X150233081Y-110765114D01*
X150447367Y-111550828D02*
X149733081Y-111550828D01*
X149733081Y-111550828D02*
X149733081Y-110050828D01*
X149733081Y-110050828D02*
X150447367Y-110050828D01*
X151090224Y-111550828D02*
X151090224Y-110050828D01*
X151947367Y-111550828D02*
X151304510Y-110693685D01*
X151947367Y-110050828D02*
X151090224Y-110907971D01*
X152590224Y-110050828D02*
X152590224Y-111265114D01*
X152590224Y-111265114D02*
X152661653Y-111407971D01*
X152661653Y-111407971D02*
X152733082Y-111479400D01*
X152733082Y-111479400D02*
X152875939Y-111550828D01*
X152875939Y-111550828D02*
X153161653Y-111550828D01*
X153161653Y-111550828D02*
X153304510Y-111479400D01*
X153304510Y-111479400D02*
X153375939Y-111407971D01*
X153375939Y-111407971D02*
X153447367Y-111265114D01*
X153447367Y-111265114D02*
X153447367Y-110050828D01*
X154161653Y-111550828D02*
X154161653Y-110050828D01*
X154161653Y-110050828D02*
X155018796Y-111550828D01*
X155018796Y-111550828D02*
X155018796Y-110050828D01*
X155733082Y-111550828D02*
X155733082Y-110050828D01*
X155733082Y-110050828D02*
X156090225Y-110050828D01*
X156090225Y-110050828D02*
X156304511Y-110122257D01*
X156304511Y-110122257D02*
X156447368Y-110265114D01*
X156447368Y-110265114D02*
X156518797Y-110407971D01*
X156518797Y-110407971D02*
X156590225Y-110693685D01*
X156590225Y-110693685D02*
X156590225Y-110907971D01*
X156590225Y-110907971D02*
X156518797Y-111193685D01*
X156518797Y-111193685D02*
X156447368Y-111336542D01*
X156447368Y-111336542D02*
X156304511Y-111479400D01*
X156304511Y-111479400D02*
X156090225Y-111550828D01*
X156090225Y-111550828D02*
X155733082Y-111550828D01*
X157518797Y-110836542D02*
X157518797Y-111550828D01*
X157018797Y-110050828D02*
X157518797Y-110836542D01*
X157518797Y-110836542D02*
X158018797Y-110050828D01*
X156697368Y-106300828D02*
X156697368Y-107300828D01*
X156340225Y-105729400D02*
X155983082Y-106800828D01*
X155983082Y-106800828D02*
X156911653Y-106800828D01*
X142090225Y-126050828D02*
X141233082Y-126050828D01*
X141661653Y-126050828D02*
X141661653Y-124550828D01*
X141661653Y-124550828D02*
X141518796Y-124765114D01*
X141518796Y-124765114D02*
X141375939Y-124907971D01*
X141375939Y-124907971D02*
X141233082Y-124979400D01*
X143375939Y-124550828D02*
X143090224Y-124550828D01*
X143090224Y-124550828D02*
X142947367Y-124622257D01*
X142947367Y-124622257D02*
X142875939Y-124693685D01*
X142875939Y-124693685D02*
X142733081Y-124907971D01*
X142733081Y-124907971D02*
X142661653Y-125193685D01*
X142661653Y-125193685D02*
X142661653Y-125765114D01*
X142661653Y-125765114D02*
X142733081Y-125907971D01*
X142733081Y-125907971D02*
X142804510Y-125979400D01*
X142804510Y-125979400D02*
X142947367Y-126050828D01*
X142947367Y-126050828D02*
X143233081Y-126050828D01*
X143233081Y-126050828D02*
X143375939Y-125979400D01*
X143375939Y-125979400D02*
X143447367Y-125907971D01*
X143447367Y-125907971D02*
X143518796Y-125765114D01*
X143518796Y-125765114D02*
X143518796Y-125407971D01*
X143518796Y-125407971D02*
X143447367Y-125265114D01*
X143447367Y-125265114D02*
X143375939Y-125193685D01*
X143375939Y-125193685D02*
X143233081Y-125122257D01*
X143233081Y-125122257D02*
X142947367Y-125122257D01*
X142947367Y-125122257D02*
X142804510Y-125193685D01*
X142804510Y-125193685D02*
X142733081Y-125265114D01*
X142733081Y-125265114D02*
X142661653Y-125407971D01*
X171090225Y-107300828D02*
X170233082Y-107300828D01*
X170661653Y-107300828D02*
X170661653Y-105800828D01*
X170661653Y-105800828D02*
X170518796Y-106015114D01*
X170518796Y-106015114D02*
X170375939Y-106157971D01*
X170375939Y-106157971D02*
X170233082Y-106229400D01*
X164340225Y-88800828D02*
X163483082Y-88800828D01*
X163911653Y-88800828D02*
X163911653Y-87300828D01*
X163911653Y-87300828D02*
X163768796Y-87515114D01*
X163768796Y-87515114D02*
X163625939Y-87657971D01*
X163625939Y-87657971D02*
X163483082Y-87729400D01*
X162983082Y-105943685D02*
X163054510Y-105872257D01*
X163054510Y-105872257D02*
X163197368Y-105800828D01*
X163197368Y-105800828D02*
X163554510Y-105800828D01*
X163554510Y-105800828D02*
X163697368Y-105872257D01*
X163697368Y-105872257D02*
X163768796Y-105943685D01*
X163768796Y-105943685D02*
X163840225Y-106086542D01*
X163840225Y-106086542D02*
X163840225Y-106229400D01*
X163840225Y-106229400D02*
X163768796Y-106443685D01*
X163768796Y-106443685D02*
X162911653Y-107300828D01*
X162911653Y-107300828D02*
X163840225Y-107300828D01*
X134161653Y-124550828D02*
X135090225Y-124550828D01*
X135090225Y-124550828D02*
X134590225Y-125122257D01*
X134590225Y-125122257D02*
X134804510Y-125122257D01*
X134804510Y-125122257D02*
X134947368Y-125193685D01*
X134947368Y-125193685D02*
X135018796Y-125265114D01*
X135018796Y-125265114D02*
X135090225Y-125407971D01*
X135090225Y-125407971D02*
X135090225Y-125765114D01*
X135090225Y-125765114D02*
X135018796Y-125907971D01*
X135018796Y-125907971D02*
X134947368Y-125979400D01*
X134947368Y-125979400D02*
X134804510Y-126050828D01*
X134804510Y-126050828D02*
X134375939Y-126050828D01*
X134375939Y-126050828D02*
X134233082Y-125979400D01*
X134233082Y-125979400D02*
X134161653Y-125907971D01*
X135661653Y-124693685D02*
X135733081Y-124622257D01*
X135733081Y-124622257D02*
X135875939Y-124550828D01*
X135875939Y-124550828D02*
X136233081Y-124550828D01*
X136233081Y-124550828D02*
X136375939Y-124622257D01*
X136375939Y-124622257D02*
X136447367Y-124693685D01*
X136447367Y-124693685D02*
X136518796Y-124836542D01*
X136518796Y-124836542D02*
X136518796Y-124979400D01*
X136518796Y-124979400D02*
X136447367Y-125193685D01*
X136447367Y-125193685D02*
X135590224Y-126050828D01*
X135590224Y-126050828D02*
X136518796Y-126050828D01*
X149268796Y-125193685D02*
X149125939Y-125122257D01*
X149125939Y-125122257D02*
X149054510Y-125050828D01*
X149054510Y-125050828D02*
X148983082Y-124907971D01*
X148983082Y-124907971D02*
X148983082Y-124836542D01*
X148983082Y-124836542D02*
X149054510Y-124693685D01*
X149054510Y-124693685D02*
X149125939Y-124622257D01*
X149125939Y-124622257D02*
X149268796Y-124550828D01*
X149268796Y-124550828D02*
X149554510Y-124550828D01*
X149554510Y-124550828D02*
X149697368Y-124622257D01*
X149697368Y-124622257D02*
X149768796Y-124693685D01*
X149768796Y-124693685D02*
X149840225Y-124836542D01*
X149840225Y-124836542D02*
X149840225Y-124907971D01*
X149840225Y-124907971D02*
X149768796Y-125050828D01*
X149768796Y-125050828D02*
X149697368Y-125122257D01*
X149697368Y-125122257D02*
X149554510Y-125193685D01*
X149554510Y-125193685D02*
X149268796Y-125193685D01*
X149268796Y-125193685D02*
X149125939Y-125265114D01*
X149125939Y-125265114D02*
X149054510Y-125336542D01*
X149054510Y-125336542D02*
X148983082Y-125479400D01*
X148983082Y-125479400D02*
X148983082Y-125765114D01*
X148983082Y-125765114D02*
X149054510Y-125907971D01*
X149054510Y-125907971D02*
X149125939Y-125979400D01*
X149125939Y-125979400D02*
X149268796Y-126050828D01*
X149268796Y-126050828D02*
X149554510Y-126050828D01*
X149554510Y-126050828D02*
X149697368Y-125979400D01*
X149697368Y-125979400D02*
X149768796Y-125907971D01*
X149768796Y-125907971D02*
X149840225Y-125765114D01*
X149840225Y-125765114D02*
X149840225Y-125479400D01*
X149840225Y-125479400D02*
X149768796Y-125336542D01*
X149768796Y-125336542D02*
X149697368Y-125265114D01*
X149697368Y-125265114D02*
X149554510Y-125193685D01*
X149268796Y-106443685D02*
X149125939Y-106372257D01*
X149125939Y-106372257D02*
X149054510Y-106300828D01*
X149054510Y-106300828D02*
X148983082Y-106157971D01*
X148983082Y-106157971D02*
X148983082Y-106086542D01*
X148983082Y-106086542D02*
X149054510Y-105943685D01*
X149054510Y-105943685D02*
X149125939Y-105872257D01*
X149125939Y-105872257D02*
X149268796Y-105800828D01*
X149268796Y-105800828D02*
X149554510Y-105800828D01*
X149554510Y-105800828D02*
X149697368Y-105872257D01*
X149697368Y-105872257D02*
X149768796Y-105943685D01*
X149768796Y-105943685D02*
X149840225Y-106086542D01*
X149840225Y-106086542D02*
X149840225Y-106157971D01*
X149840225Y-106157971D02*
X149768796Y-106300828D01*
X149768796Y-106300828D02*
X149697368Y-106372257D01*
X149697368Y-106372257D02*
X149554510Y-106443685D01*
X149554510Y-106443685D02*
X149268796Y-106443685D01*
X149268796Y-106443685D02*
X149125939Y-106515114D01*
X149125939Y-106515114D02*
X149054510Y-106586542D01*
X149054510Y-106586542D02*
X148983082Y-106729400D01*
X148983082Y-106729400D02*
X148983082Y-107015114D01*
X148983082Y-107015114D02*
X149054510Y-107157971D01*
X149054510Y-107157971D02*
X149125939Y-107229400D01*
X149125939Y-107229400D02*
X149268796Y-107300828D01*
X149268796Y-107300828D02*
X149554510Y-107300828D01*
X149554510Y-107300828D02*
X149697368Y-107229400D01*
X149697368Y-107229400D02*
X149768796Y-107157971D01*
X149768796Y-107157971D02*
X149840225Y-107015114D01*
X149840225Y-107015114D02*
X149840225Y-106729400D01*
X149840225Y-106729400D02*
X149768796Y-106586542D01*
X149768796Y-106586542D02*
X149697368Y-106515114D01*
X149697368Y-106515114D02*
X149554510Y-106443685D01*
X142464285Y-129385912D02*
X143464285Y-129385912D01*
X143464285Y-129385912D02*
X142464285Y-130885912D01*
X142464285Y-130885912D02*
X143464285Y-130885912D01*
X144035713Y-130100198D02*
X144535713Y-130100198D01*
X144749999Y-130885912D02*
X144035713Y-130885912D01*
X144035713Y-130885912D02*
X144035713Y-129385912D01*
X144035713Y-129385912D02*
X144749999Y-129385912D01*
X146178571Y-129457341D02*
X146035714Y-129385912D01*
X146035714Y-129385912D02*
X145821428Y-129385912D01*
X145821428Y-129385912D02*
X145607142Y-129457341D01*
X145607142Y-129457341D02*
X145464285Y-129600198D01*
X145464285Y-129600198D02*
X145392856Y-129743055D01*
X145392856Y-129743055D02*
X145321428Y-130028769D01*
X145321428Y-130028769D02*
X145321428Y-130243055D01*
X145321428Y-130243055D02*
X145392856Y-130528769D01*
X145392856Y-130528769D02*
X145464285Y-130671626D01*
X145464285Y-130671626D02*
X145607142Y-130814484D01*
X145607142Y-130814484D02*
X145821428Y-130885912D01*
X145821428Y-130885912D02*
X145964285Y-130885912D01*
X145964285Y-130885912D02*
X146178571Y-130814484D01*
X146178571Y-130814484D02*
X146249999Y-130743055D01*
X146249999Y-130743055D02*
X146249999Y-130243055D01*
X146249999Y-130243055D02*
X145964285Y-130243055D01*
X146821428Y-130457341D02*
X147535714Y-130457341D01*
X146678571Y-130885912D02*
X147178571Y-129385912D01*
X147178571Y-129385912D02*
X147678571Y-130885912D01*
X149035713Y-130885912D02*
X148535713Y-130171626D01*
X148178570Y-130885912D02*
X148178570Y-129385912D01*
X148178570Y-129385912D02*
X148749999Y-129385912D01*
X148749999Y-129385912D02*
X148892856Y-129457341D01*
X148892856Y-129457341D02*
X148964285Y-129528769D01*
X148964285Y-129528769D02*
X149035713Y-129671626D01*
X149035713Y-129671626D02*
X149035713Y-129885912D01*
X149035713Y-129885912D02*
X148964285Y-130028769D01*
X148964285Y-130028769D02*
X148892856Y-130100198D01*
X148892856Y-130100198D02*
X148749999Y-130171626D01*
X148749999Y-130171626D02*
X148178570Y-130171626D01*
X149678570Y-130100198D02*
X150178570Y-130100198D01*
X150392856Y-130885912D02*
X149678570Y-130885912D01*
X149678570Y-130885912D02*
X149678570Y-129385912D01*
X149678570Y-129385912D02*
X150392856Y-129385912D01*
X151035713Y-130885912D02*
X151035713Y-129385912D01*
X151892856Y-130885912D02*
X151249999Y-130028769D01*
X151892856Y-129385912D02*
X151035713Y-130243055D01*
X154178570Y-130100198D02*
X154392856Y-130171626D01*
X154392856Y-130171626D02*
X154464285Y-130243055D01*
X154464285Y-130243055D02*
X154535713Y-130385912D01*
X154535713Y-130385912D02*
X154535713Y-130600198D01*
X154535713Y-130600198D02*
X154464285Y-130743055D01*
X154464285Y-130743055D02*
X154392856Y-130814484D01*
X154392856Y-130814484D02*
X154249999Y-130885912D01*
X154249999Y-130885912D02*
X153678570Y-130885912D01*
X153678570Y-130885912D02*
X153678570Y-129385912D01*
X153678570Y-129385912D02*
X154178570Y-129385912D01*
X154178570Y-129385912D02*
X154321428Y-129457341D01*
X154321428Y-129457341D02*
X154392856Y-129528769D01*
X154392856Y-129528769D02*
X154464285Y-129671626D01*
X154464285Y-129671626D02*
X154464285Y-129814484D01*
X154464285Y-129814484D02*
X154392856Y-129957341D01*
X154392856Y-129957341D02*
X154321428Y-130028769D01*
X154321428Y-130028769D02*
X154178570Y-130100198D01*
X154178570Y-130100198D02*
X153678570Y-130100198D01*
X155178570Y-130885912D02*
X155178570Y-129385912D01*
X155892856Y-130885912D02*
X155892856Y-129385912D01*
X155892856Y-129385912D02*
X156749999Y-130885912D01*
X156749999Y-130885912D02*
X156749999Y-129385912D01*
X157392857Y-130457341D02*
X158107143Y-130457341D01*
X157250000Y-130885912D02*
X157750000Y-129385912D01*
X157750000Y-129385912D02*
X158250000Y-130885912D01*
X159607142Y-130885912D02*
X159107142Y-130171626D01*
X158749999Y-130885912D02*
X158749999Y-129385912D01*
X158749999Y-129385912D02*
X159321428Y-129385912D01*
X159321428Y-129385912D02*
X159464285Y-129457341D01*
X159464285Y-129457341D02*
X159535714Y-129528769D01*
X159535714Y-129528769D02*
X159607142Y-129671626D01*
X159607142Y-129671626D02*
X159607142Y-129885912D01*
X159607142Y-129885912D02*
X159535714Y-130028769D01*
X159535714Y-130028769D02*
X159464285Y-130100198D01*
X159464285Y-130100198D02*
X159321428Y-130171626D01*
X159321428Y-130171626D02*
X158749999Y-130171626D01*
X160249999Y-130885912D02*
X160249999Y-129385912D01*
X160249999Y-129385912D02*
X161107142Y-130885912D01*
X161107142Y-130885912D02*
X161107142Y-129385912D01*
X162107143Y-130171626D02*
X162107143Y-130885912D01*
X161607143Y-129385912D02*
X162107143Y-130171626D01*
X162107143Y-130171626D02*
X162607143Y-129385912D01*
X149535714Y-133157971D02*
X149464286Y-133229400D01*
X149464286Y-133229400D02*
X149250000Y-133300828D01*
X149250000Y-133300828D02*
X149107143Y-133300828D01*
X149107143Y-133300828D02*
X148892857Y-133229400D01*
X148892857Y-133229400D02*
X148750000Y-133086542D01*
X148750000Y-133086542D02*
X148678571Y-132943685D01*
X148678571Y-132943685D02*
X148607143Y-132657971D01*
X148607143Y-132657971D02*
X148607143Y-132443685D01*
X148607143Y-132443685D02*
X148678571Y-132157971D01*
X148678571Y-132157971D02*
X148750000Y-132015114D01*
X148750000Y-132015114D02*
X148892857Y-131872257D01*
X148892857Y-131872257D02*
X149107143Y-131800828D01*
X149107143Y-131800828D02*
X149250000Y-131800828D01*
X149250000Y-131800828D02*
X149464286Y-131872257D01*
X149464286Y-131872257D02*
X149535714Y-131943685D01*
X150750000Y-133229400D02*
X150607143Y-133300828D01*
X150607143Y-133300828D02*
X150321429Y-133300828D01*
X150321429Y-133300828D02*
X150178571Y-133229400D01*
X150178571Y-133229400D02*
X150107143Y-133086542D01*
X150107143Y-133086542D02*
X150107143Y-132515114D01*
X150107143Y-132515114D02*
X150178571Y-132372257D01*
X150178571Y-132372257D02*
X150321429Y-132300828D01*
X150321429Y-132300828D02*
X150607143Y-132300828D01*
X150607143Y-132300828D02*
X150750000Y-132372257D01*
X150750000Y-132372257D02*
X150821429Y-132515114D01*
X150821429Y-132515114D02*
X150821429Y-132657971D01*
X150821429Y-132657971D02*
X150107143Y-132800828D01*
X151321428Y-132300828D02*
X152107143Y-132300828D01*
X152107143Y-132300828D02*
X151321428Y-133300828D01*
X151321428Y-133300828D02*
X152107143Y-133300828D01*
X152678571Y-133300828D02*
X152678571Y-131800828D01*
X152678571Y-131800828D02*
X153178571Y-132872257D01*
X153178571Y-132872257D02*
X153678571Y-131800828D01*
X153678571Y-131800828D02*
X153678571Y-133300828D01*
X155035715Y-133300828D02*
X155035715Y-132515114D01*
X155035715Y-132515114D02*
X154964286Y-132372257D01*
X154964286Y-132372257D02*
X154821429Y-132300828D01*
X154821429Y-132300828D02*
X154535715Y-132300828D01*
X154535715Y-132300828D02*
X154392857Y-132372257D01*
X155035715Y-133229400D02*
X154892857Y-133300828D01*
X154892857Y-133300828D02*
X154535715Y-133300828D01*
X154535715Y-133300828D02*
X154392857Y-133229400D01*
X154392857Y-133229400D02*
X154321429Y-133086542D01*
X154321429Y-133086542D02*
X154321429Y-132943685D01*
X154321429Y-132943685D02*
X154392857Y-132800828D01*
X154392857Y-132800828D02*
X154535715Y-132729400D01*
X154535715Y-132729400D02*
X154892857Y-132729400D01*
X154892857Y-132729400D02*
X155035715Y-132657971D01*
X156392858Y-133229400D02*
X156250000Y-133300828D01*
X156250000Y-133300828D02*
X155964286Y-133300828D01*
X155964286Y-133300828D02*
X155821429Y-133229400D01*
X155821429Y-133229400D02*
X155750000Y-133157971D01*
X155750000Y-133157971D02*
X155678572Y-133015114D01*
X155678572Y-133015114D02*
X155678572Y-132586542D01*
X155678572Y-132586542D02*
X155750000Y-132443685D01*
X155750000Y-132443685D02*
X155821429Y-132372257D01*
X155821429Y-132372257D02*
X155964286Y-132300828D01*
X155964286Y-132300828D02*
X156250000Y-132300828D01*
X156250000Y-132300828D02*
X156392858Y-132372257D01*
X156697368Y-125050828D02*
X156697368Y-126050828D01*
X156340225Y-124479400D02*
X155983082Y-125550828D01*
X155983082Y-125550828D02*
X156911653Y-125550828D01*
X138661653Y-68550828D02*
X139018796Y-70050828D01*
X139018796Y-70050828D02*
X139304510Y-68979400D01*
X139304510Y-68979400D02*
X139590225Y-70050828D01*
X139590225Y-70050828D02*
X139947368Y-68550828D01*
X141161654Y-70050828D02*
X141161654Y-69265114D01*
X141161654Y-69265114D02*
X141090225Y-69122257D01*
X141090225Y-69122257D02*
X140947368Y-69050828D01*
X140947368Y-69050828D02*
X140661654Y-69050828D01*
X140661654Y-69050828D02*
X140518796Y-69122257D01*
X141161654Y-69979400D02*
X141018796Y-70050828D01*
X141018796Y-70050828D02*
X140661654Y-70050828D01*
X140661654Y-70050828D02*
X140518796Y-69979400D01*
X140518796Y-69979400D02*
X140447368Y-69836542D01*
X140447368Y-69836542D02*
X140447368Y-69693685D01*
X140447368Y-69693685D02*
X140518796Y-69550828D01*
X140518796Y-69550828D02*
X140661654Y-69479400D01*
X140661654Y-69479400D02*
X141018796Y-69479400D01*
X141018796Y-69479400D02*
X141161654Y-69407971D01*
X141875939Y-70050828D02*
X141875939Y-69050828D01*
X141875939Y-69336542D02*
X141947368Y-69193685D01*
X141947368Y-69193685D02*
X142018797Y-69122257D01*
X142018797Y-69122257D02*
X142161654Y-69050828D01*
X142161654Y-69050828D02*
X142304511Y-69050828D01*
X142733082Y-69979400D02*
X142875939Y-70050828D01*
X142875939Y-70050828D02*
X143161653Y-70050828D01*
X143161653Y-70050828D02*
X143304510Y-69979400D01*
X143304510Y-69979400D02*
X143375939Y-69836542D01*
X143375939Y-69836542D02*
X143375939Y-69765114D01*
X143375939Y-69765114D02*
X143304510Y-69622257D01*
X143304510Y-69622257D02*
X143161653Y-69550828D01*
X143161653Y-69550828D02*
X142947368Y-69550828D01*
X142947368Y-69550828D02*
X142804510Y-69479400D01*
X142804510Y-69479400D02*
X142733082Y-69336542D01*
X142733082Y-69336542D02*
X142733082Y-69265114D01*
X142733082Y-69265114D02*
X142804510Y-69122257D01*
X142804510Y-69122257D02*
X142947368Y-69050828D01*
X142947368Y-69050828D02*
X143161653Y-69050828D01*
X143161653Y-69050828D02*
X143304510Y-69122257D01*
X143875939Y-69050828D02*
X144661654Y-69050828D01*
X144661654Y-69050828D02*
X143875939Y-70050828D01*
X143875939Y-70050828D02*
X144661654Y-70050828D01*
X145018797Y-69050828D02*
X145590225Y-69050828D01*
X145233082Y-68550828D02*
X145233082Y-69836542D01*
X145233082Y-69836542D02*
X145304511Y-69979400D01*
X145304511Y-69979400D02*
X145447368Y-70050828D01*
X145447368Y-70050828D02*
X145590225Y-70050828D01*
X146733083Y-70050828D02*
X146733083Y-69265114D01*
X146733083Y-69265114D02*
X146661654Y-69122257D01*
X146661654Y-69122257D02*
X146518797Y-69050828D01*
X146518797Y-69050828D02*
X146233083Y-69050828D01*
X146233083Y-69050828D02*
X146090225Y-69122257D01*
X146733083Y-69979400D02*
X146590225Y-70050828D01*
X146590225Y-70050828D02*
X146233083Y-70050828D01*
X146233083Y-70050828D02*
X146090225Y-69979400D01*
X146090225Y-69979400D02*
X146018797Y-69836542D01*
X146018797Y-69836542D02*
X146018797Y-69693685D01*
X146018797Y-69693685D02*
X146090225Y-69550828D01*
X146090225Y-69550828D02*
X146233083Y-69479400D01*
X146233083Y-69479400D02*
X146590225Y-69479400D01*
X146590225Y-69479400D02*
X146733083Y-69407971D01*
X147233083Y-69050828D02*
X147804511Y-69050828D01*
X147447368Y-68550828D02*
X147447368Y-69836542D01*
X147447368Y-69836542D02*
X147518797Y-69979400D01*
X147518797Y-69979400D02*
X147661654Y-70050828D01*
X147661654Y-70050828D02*
X147804511Y-70050828D01*
X148161654Y-69050828D02*
X148518797Y-70050828D01*
X148875940Y-69050828D02*
X148518797Y-70050828D01*
X148518797Y-70050828D02*
X148375940Y-70407971D01*
X148375940Y-70407971D02*
X148304511Y-70479400D01*
X148304511Y-70479400D02*
X148161654Y-70550828D01*
X150518797Y-69979400D02*
X150733083Y-70050828D01*
X150733083Y-70050828D02*
X151090225Y-70050828D01*
X151090225Y-70050828D02*
X151233083Y-69979400D01*
X151233083Y-69979400D02*
X151304511Y-69907971D01*
X151304511Y-69907971D02*
X151375940Y-69765114D01*
X151375940Y-69765114D02*
X151375940Y-69622257D01*
X151375940Y-69622257D02*
X151304511Y-69479400D01*
X151304511Y-69479400D02*
X151233083Y-69407971D01*
X151233083Y-69407971D02*
X151090225Y-69336542D01*
X151090225Y-69336542D02*
X150804511Y-69265114D01*
X150804511Y-69265114D02*
X150661654Y-69193685D01*
X150661654Y-69193685D02*
X150590225Y-69122257D01*
X150590225Y-69122257D02*
X150518797Y-68979400D01*
X150518797Y-68979400D02*
X150518797Y-68836542D01*
X150518797Y-68836542D02*
X150590225Y-68693685D01*
X150590225Y-68693685D02*
X150661654Y-68622257D01*
X150661654Y-68622257D02*
X150804511Y-68550828D01*
X150804511Y-68550828D02*
X151161654Y-68550828D01*
X151161654Y-68550828D02*
X151375940Y-68622257D01*
X151804511Y-68550828D02*
X152661654Y-68550828D01*
X152233082Y-70050828D02*
X152233082Y-68550828D01*
X153161653Y-70050828D02*
X153161653Y-68550828D01*
X153161653Y-68550828D02*
X153661653Y-69622257D01*
X153661653Y-69622257D02*
X154161653Y-68550828D01*
X154161653Y-68550828D02*
X154161653Y-70050828D01*
X154733082Y-68550828D02*
X155661654Y-68550828D01*
X155661654Y-68550828D02*
X155161654Y-69122257D01*
X155161654Y-69122257D02*
X155375939Y-69122257D01*
X155375939Y-69122257D02*
X155518797Y-69193685D01*
X155518797Y-69193685D02*
X155590225Y-69265114D01*
X155590225Y-69265114D02*
X155661654Y-69407971D01*
X155661654Y-69407971D02*
X155661654Y-69765114D01*
X155661654Y-69765114D02*
X155590225Y-69907971D01*
X155590225Y-69907971D02*
X155518797Y-69979400D01*
X155518797Y-69979400D02*
X155375939Y-70050828D01*
X155375939Y-70050828D02*
X154947368Y-70050828D01*
X154947368Y-70050828D02*
X154804511Y-69979400D01*
X154804511Y-69979400D02*
X154733082Y-69907971D01*
X156233082Y-68693685D02*
X156304510Y-68622257D01*
X156304510Y-68622257D02*
X156447368Y-68550828D01*
X156447368Y-68550828D02*
X156804510Y-68550828D01*
X156804510Y-68550828D02*
X156947368Y-68622257D01*
X156947368Y-68622257D02*
X157018796Y-68693685D01*
X157018796Y-68693685D02*
X157090225Y-68836542D01*
X157090225Y-68836542D02*
X157090225Y-68979400D01*
X157090225Y-68979400D02*
X157018796Y-69193685D01*
X157018796Y-69193685D02*
X156161653Y-70050828D01*
X156161653Y-70050828D02*
X157090225Y-70050828D01*
X158875938Y-69479400D02*
X160018796Y-69479400D01*
X162590224Y-70050828D02*
X161875938Y-70050828D01*
X161875938Y-70050828D02*
X161875938Y-68550828D01*
X163733082Y-69050828D02*
X163733082Y-70050828D01*
X163090224Y-69050828D02*
X163090224Y-69836542D01*
X163090224Y-69836542D02*
X163161653Y-69979400D01*
X163161653Y-69979400D02*
X163304510Y-70050828D01*
X163304510Y-70050828D02*
X163518796Y-70050828D01*
X163518796Y-70050828D02*
X163661653Y-69979400D01*
X163661653Y-69979400D02*
X163733082Y-69907971D01*
X164447367Y-70050828D02*
X164447367Y-68550828D01*
X164447367Y-69122257D02*
X164590225Y-69050828D01*
X164590225Y-69050828D02*
X164875939Y-69050828D01*
X164875939Y-69050828D02*
X165018796Y-69122257D01*
X165018796Y-69122257D02*
X165090225Y-69193685D01*
X165090225Y-69193685D02*
X165161653Y-69336542D01*
X165161653Y-69336542D02*
X165161653Y-69765114D01*
X165161653Y-69765114D02*
X165090225Y-69907971D01*
X165090225Y-69907971D02*
X165018796Y-69979400D01*
X165018796Y-69979400D02*
X164875939Y-70050828D01*
X164875939Y-70050828D02*
X164590225Y-70050828D01*
X164590225Y-70050828D02*
X164447367Y-69979400D01*
X166018796Y-70050828D02*
X165875939Y-69979400D01*
X165875939Y-69979400D02*
X165804510Y-69836542D01*
X165804510Y-69836542D02*
X165804510Y-68550828D01*
X166590224Y-70050828D02*
X166590224Y-69050828D01*
X166590224Y-68550828D02*
X166518796Y-68622257D01*
X166518796Y-68622257D02*
X166590224Y-68693685D01*
X166590224Y-68693685D02*
X166661653Y-68622257D01*
X166661653Y-68622257D02*
X166590224Y-68550828D01*
X166590224Y-68550828D02*
X166590224Y-68693685D01*
X167304510Y-69050828D02*
X167304510Y-70050828D01*
X167304510Y-69193685D02*
X167375939Y-69122257D01*
X167375939Y-69122257D02*
X167518796Y-69050828D01*
X167518796Y-69050828D02*
X167733082Y-69050828D01*
X167733082Y-69050828D02*
X167875939Y-69122257D01*
X167875939Y-69122257D02*
X167947368Y-69265114D01*
X167947368Y-69265114D02*
X167947368Y-70050828D01*
X141518796Y-87943685D02*
X141375939Y-87872257D01*
X141375939Y-87872257D02*
X141304510Y-87800828D01*
X141304510Y-87800828D02*
X141233082Y-87657971D01*
X141233082Y-87657971D02*
X141233082Y-87586542D01*
X141233082Y-87586542D02*
X141304510Y-87443685D01*
X141304510Y-87443685D02*
X141375939Y-87372257D01*
X141375939Y-87372257D02*
X141518796Y-87300828D01*
X141518796Y-87300828D02*
X141804510Y-87300828D01*
X141804510Y-87300828D02*
X141947368Y-87372257D01*
X141947368Y-87372257D02*
X142018796Y-87443685D01*
X142018796Y-87443685D02*
X142090225Y-87586542D01*
X142090225Y-87586542D02*
X142090225Y-87657971D01*
X142090225Y-87657971D02*
X142018796Y-87800828D01*
X142018796Y-87800828D02*
X141947368Y-87872257D01*
X141947368Y-87872257D02*
X141804510Y-87943685D01*
X141804510Y-87943685D02*
X141518796Y-87943685D01*
X141518796Y-87943685D02*
X141375939Y-88015114D01*
X141375939Y-88015114D02*
X141304510Y-88086542D01*
X141304510Y-88086542D02*
X141233082Y-88229400D01*
X141233082Y-88229400D02*
X141233082Y-88515114D01*
X141233082Y-88515114D02*
X141304510Y-88657971D01*
X141304510Y-88657971D02*
X141375939Y-88729400D01*
X141375939Y-88729400D02*
X141518796Y-88800828D01*
X141518796Y-88800828D02*
X141804510Y-88800828D01*
X141804510Y-88800828D02*
X141947368Y-88729400D01*
X141947368Y-88729400D02*
X142018796Y-88657971D01*
X142018796Y-88657971D02*
X142090225Y-88515114D01*
X142090225Y-88515114D02*
X142090225Y-88229400D01*
X142090225Y-88229400D02*
X142018796Y-88086542D01*
X142018796Y-88086542D02*
X141947368Y-88015114D01*
X141947368Y-88015114D02*
X141804510Y-87943685D01*
X171090225Y-126050828D02*
X170233082Y-126050828D01*
X170661653Y-126050828D02*
X170661653Y-124550828D01*
X170661653Y-124550828D02*
X170518796Y-124765114D01*
X170518796Y-124765114D02*
X170375939Y-124907971D01*
X170375939Y-124907971D02*
X170233082Y-124979400D01*
X149340225Y-73122257D02*
X149197368Y-73050828D01*
X149197368Y-73050828D02*
X148983082Y-73050828D01*
X148983082Y-73050828D02*
X148768796Y-73122257D01*
X148768796Y-73122257D02*
X148625939Y-73265114D01*
X148625939Y-73265114D02*
X148554510Y-73407971D01*
X148554510Y-73407971D02*
X148483082Y-73693685D01*
X148483082Y-73693685D02*
X148483082Y-73907971D01*
X148483082Y-73907971D02*
X148554510Y-74193685D01*
X148554510Y-74193685D02*
X148625939Y-74336542D01*
X148625939Y-74336542D02*
X148768796Y-74479400D01*
X148768796Y-74479400D02*
X148983082Y-74550828D01*
X148983082Y-74550828D02*
X149125939Y-74550828D01*
X149125939Y-74550828D02*
X149340225Y-74479400D01*
X149340225Y-74479400D02*
X149411653Y-74407971D01*
X149411653Y-74407971D02*
X149411653Y-73907971D01*
X149411653Y-73907971D02*
X149125939Y-73907971D01*
X150340225Y-73050828D02*
X150625939Y-73050828D01*
X150625939Y-73050828D02*
X150768796Y-73122257D01*
X150768796Y-73122257D02*
X150911653Y-73265114D01*
X150911653Y-73265114D02*
X150983082Y-73550828D01*
X150983082Y-73550828D02*
X150983082Y-74050828D01*
X150983082Y-74050828D02*
X150911653Y-74336542D01*
X150911653Y-74336542D02*
X150768796Y-74479400D01*
X150768796Y-74479400D02*
X150625939Y-74550828D01*
X150625939Y-74550828D02*
X150340225Y-74550828D01*
X150340225Y-74550828D02*
X150197368Y-74479400D01*
X150197368Y-74479400D02*
X150054510Y-74336542D01*
X150054510Y-74336542D02*
X149983082Y-74050828D01*
X149983082Y-74050828D02*
X149983082Y-73550828D01*
X149983082Y-73550828D02*
X150054510Y-73265114D01*
X150054510Y-73265114D02*
X150197368Y-73122257D01*
X150197368Y-73122257D02*
X150340225Y-73050828D01*
X151625939Y-74550828D02*
X151625939Y-73050828D01*
X151625939Y-73050828D02*
X151983082Y-73050828D01*
X151983082Y-73050828D02*
X152197368Y-73122257D01*
X152197368Y-73122257D02*
X152340225Y-73265114D01*
X152340225Y-73265114D02*
X152411654Y-73407971D01*
X152411654Y-73407971D02*
X152483082Y-73693685D01*
X152483082Y-73693685D02*
X152483082Y-73907971D01*
X152483082Y-73907971D02*
X152411654Y-74193685D01*
X152411654Y-74193685D02*
X152340225Y-74336542D01*
X152340225Y-74336542D02*
X152197368Y-74479400D01*
X152197368Y-74479400D02*
X151983082Y-74550828D01*
X151983082Y-74550828D02*
X151625939Y-74550828D01*
X152983082Y-73050828D02*
X153983082Y-73050828D01*
X153983082Y-73050828D02*
X152983082Y-74550828D01*
X152983082Y-74550828D02*
X153983082Y-74550828D01*
X154554510Y-74550828D02*
X154554510Y-73050828D01*
X155268796Y-74550828D02*
X155268796Y-73050828D01*
X155268796Y-73050828D02*
X156125939Y-74550828D01*
X156125939Y-74550828D02*
X156125939Y-73050828D01*
X157125940Y-73836542D02*
X157125940Y-74550828D01*
X156625940Y-73050828D02*
X157125940Y-73836542D01*
X157125940Y-73836542D02*
X157625940Y-73050828D01*
X141840225Y-107300828D02*
X140983082Y-107300828D01*
X141411653Y-107300828D02*
X141411653Y-105800828D01*
X141411653Y-105800828D02*
X141268796Y-106015114D01*
X141268796Y-106015114D02*
X141125939Y-106157971D01*
X141125939Y-106157971D02*
X140983082Y-106229400D01*
X143125939Y-105800828D02*
X142840224Y-105800828D01*
X142840224Y-105800828D02*
X142697367Y-105872257D01*
X142697367Y-105872257D02*
X142625939Y-105943685D01*
X142625939Y-105943685D02*
X142483081Y-106157971D01*
X142483081Y-106157971D02*
X142411653Y-106443685D01*
X142411653Y-106443685D02*
X142411653Y-107015114D01*
X142411653Y-107015114D02*
X142483081Y-107157971D01*
X142483081Y-107157971D02*
X142554510Y-107229400D01*
X142554510Y-107229400D02*
X142697367Y-107300828D01*
X142697367Y-107300828D02*
X142983081Y-107300828D01*
X142983081Y-107300828D02*
X143125939Y-107229400D01*
X143125939Y-107229400D02*
X143197367Y-107157971D01*
X143197367Y-107157971D02*
X143268796Y-107015114D01*
X143268796Y-107015114D02*
X143268796Y-106657971D01*
X143268796Y-106657971D02*
X143197367Y-106515114D01*
X143197367Y-106515114D02*
X143125939Y-106443685D01*
X143125939Y-106443685D02*
X142983081Y-106372257D01*
X142983081Y-106372257D02*
X142697367Y-106372257D01*
X142697367Y-106372257D02*
X142554510Y-106443685D01*
X142554510Y-106443685D02*
X142483081Y-106515114D01*
X142483081Y-106515114D02*
X142411653Y-106657971D01*
X162983082Y-124693685D02*
X163054510Y-124622257D01*
X163054510Y-124622257D02*
X163197368Y-124550828D01*
X163197368Y-124550828D02*
X163554510Y-124550828D01*
X163554510Y-124550828D02*
X163697368Y-124622257D01*
X163697368Y-124622257D02*
X163768796Y-124693685D01*
X163768796Y-124693685D02*
X163840225Y-124836542D01*
X163840225Y-124836542D02*
X163840225Y-124979400D01*
X163840225Y-124979400D02*
X163768796Y-125193685D01*
X163768796Y-125193685D02*
X162911653Y-126050828D01*
X162911653Y-126050828D02*
X163840225Y-126050828D01*
D13*
%TO.C,D4*%
X140240000Y-82264000D02*
X140240000Y-82420000D01*
X140240000Y-84580000D02*
X140240000Y-84736000D01*
X140240000Y-82264484D02*
G75*
G02*
X143471437Y-82420000I1560000J-1235516D01*
G01*
X140759039Y-82420000D02*
G75*
G02*
X142840961Y-82420000I1040961J-1080000D01*
G01*
X142840961Y-84580000D02*
G75*
G02*
X140759039Y-84580000I-1040961J1080000D01*
G01*
X143471437Y-84580000D02*
G75*
G02*
X140240000Y-84735516I-1671437J1080000D01*
G01*
%TO.C,RN3*%
X159350000Y-98060000D02*
X159350000Y-95440000D01*
X161970000Y-98060000D02*
X144030000Y-98060000D01*
X144030000Y-95440000D01*
X161970000Y-95440000D01*
X161970000Y-98060000D01*
%TO.C,D6*%
X140690000Y-100764000D02*
X140690000Y-100920000D01*
X140690000Y-103080000D02*
X140690000Y-103236000D01*
X140690000Y-100764484D02*
G75*
G02*
X143921437Y-100920000I1560000J-1235516D01*
G01*
X141209039Y-100920000D02*
G75*
G02*
X143290961Y-100920000I1040961J-1080000D01*
G01*
X143290961Y-103080000D02*
G75*
G02*
X141209039Y-103080000I-1040961J1080000D01*
G01*
X143921437Y-103080000D02*
G75*
G02*
X140690000Y-103235516I-1671437J1080000D01*
G01*
%TO.C,D11*%
X133710000Y-119264000D02*
X133710000Y-119420000D01*
X133710000Y-121580000D02*
X133710000Y-121736000D01*
X133710000Y-119264484D02*
G75*
G02*
X136941437Y-119420000I1560000J-1235516D01*
G01*
X134229039Y-119420000D02*
G75*
G02*
X136310961Y-119420000I1040961J-1080000D01*
G01*
X136310961Y-121580000D02*
G75*
G02*
X134229039Y-121580000I-1040961J1080000D01*
G01*
X136941437Y-121580000D02*
G75*
G02*
X133710000Y-121735516I-1671437J1080000D01*
G01*
%TO.C,D14*%
X154848000Y-119264000D02*
X154848000Y-119420000D01*
X154848000Y-121580000D02*
X154848000Y-121736000D01*
X154848000Y-119264484D02*
G75*
G02*
X158079437Y-119420000I1560000J-1235516D01*
G01*
X155367039Y-119420000D02*
G75*
G02*
X157448961Y-119420000I1040961J-1080000D01*
G01*
X157448961Y-121580000D02*
G75*
G02*
X155367039Y-121580000I-1040961J1080000D01*
G01*
X158079437Y-121580000D02*
G75*
G02*
X154848000Y-121735516I-1671437J1080000D01*
G01*
%TO.C,D15*%
X161894000Y-119264000D02*
X161894000Y-119420000D01*
X161894000Y-121580000D02*
X161894000Y-121736000D01*
X161894000Y-119264484D02*
G75*
G02*
X165125437Y-119420000I1560000J-1235516D01*
G01*
X162413039Y-119420000D02*
G75*
G02*
X164494961Y-119420000I1040961J-1080000D01*
G01*
X164494961Y-121580000D02*
G75*
G02*
X162413039Y-121580000I-1040961J1080000D01*
G01*
X165125437Y-121580000D02*
G75*
G02*
X161894000Y-121735516I-1671437J1080000D01*
G01*
%TO.C,D1*%
X162340000Y-82264000D02*
X162340000Y-82420000D01*
X162340000Y-84580000D02*
X162340000Y-84736000D01*
X162340000Y-82264484D02*
G75*
G02*
X165571437Y-82420000I1560000J-1235516D01*
G01*
X162859039Y-82420000D02*
G75*
G02*
X164940961Y-82420000I1040961J-1080000D01*
G01*
X164940961Y-84580000D02*
G75*
G02*
X162859039Y-84580000I-1040961J1080000D01*
G01*
X165571437Y-84580000D02*
G75*
G02*
X162340000Y-84735516I-1671437J1080000D01*
G01*
%TO.C,RN1*%
X159350000Y-79310000D02*
X159350000Y-76690000D01*
X161970000Y-79310000D02*
X144030000Y-79310000D01*
X144030000Y-76690000D01*
X161970000Y-76690000D01*
X161970000Y-79310000D01*
%TO.C,RN2*%
X159350000Y-116310000D02*
X159350000Y-113690000D01*
X161970000Y-116310000D02*
X144030000Y-116310000D01*
X144030000Y-113690000D01*
X161970000Y-113690000D01*
X161970000Y-116310000D01*
%TO.C,D8*%
X154830000Y-100764000D02*
X154830000Y-100920000D01*
X154830000Y-103080000D02*
X154830000Y-103236000D01*
X154830000Y-100764484D02*
G75*
G02*
X158061437Y-100920000I1560000J-1235516D01*
G01*
X155349039Y-100920000D02*
G75*
G02*
X157430961Y-100920000I1040961J-1080000D01*
G01*
X157430961Y-103080000D02*
G75*
G02*
X155349039Y-103080000I-1040961J1080000D01*
G01*
X158061437Y-103080000D02*
G75*
G02*
X154830000Y-103235516I-1671437J1080000D01*
G01*
%TO.C,D7*%
X147760000Y-100764000D02*
X147760000Y-100920000D01*
X147760000Y-103080000D02*
X147760000Y-103236000D01*
X147760000Y-100764484D02*
G75*
G02*
X150991437Y-100920000I1560000J-1235516D01*
G01*
X148279039Y-100920000D02*
G75*
G02*
X150360961Y-100920000I1040961J-1080000D01*
G01*
X150360961Y-103080000D02*
G75*
G02*
X148279039Y-103080000I-1040961J1080000D01*
G01*
X150991437Y-103080000D02*
G75*
G02*
X147760000Y-103235516I-1671437J1080000D01*
G01*
%TO.C,D10*%
X168970000Y-100764000D02*
X168970000Y-100920000D01*
X168970000Y-103080000D02*
X168970000Y-103236000D01*
X168970000Y-100764484D02*
G75*
G02*
X172201437Y-100920000I1560000J-1235516D01*
G01*
X169489039Y-100920000D02*
G75*
G02*
X171570961Y-100920000I1040961J-1080000D01*
G01*
X171570961Y-103080000D02*
G75*
G02*
X169489039Y-103080000I-1040961J1080000D01*
G01*
X172201437Y-103080000D02*
G75*
G02*
X168970000Y-103235516I-1671437J1080000D01*
G01*
%TO.C,D12*%
X140756000Y-119264000D02*
X140756000Y-119420000D01*
X140756000Y-121580000D02*
X140756000Y-121736000D01*
X140756000Y-119264484D02*
G75*
G02*
X143987437Y-119420000I1560000J-1235516D01*
G01*
X141275039Y-119420000D02*
G75*
G02*
X143356961Y-119420000I1040961J-1080000D01*
G01*
X143356961Y-121580000D02*
G75*
G02*
X141275039Y-121580000I-1040961J1080000D01*
G01*
X143987437Y-121580000D02*
G75*
G02*
X140756000Y-121735516I-1671437J1080000D01*
G01*
%TO.C,D3*%
X147606667Y-82264000D02*
X147606667Y-82420000D01*
X147606667Y-84580000D02*
X147606667Y-84736000D01*
X147606667Y-82264484D02*
G75*
G02*
X150838104Y-82420000I1560000J-1235516D01*
G01*
X148125706Y-82420000D02*
G75*
G02*
X150207628Y-82420000I1040961J-1080000D01*
G01*
X150207628Y-84580000D02*
G75*
G02*
X148125706Y-84580000I-1040961J1080000D01*
G01*
X150838104Y-84580000D02*
G75*
G02*
X147606667Y-84735516I-1671437J1080000D01*
G01*
%TO.C,D16*%
X168940000Y-119264000D02*
X168940000Y-119420000D01*
X168940000Y-121580000D02*
X168940000Y-121736000D01*
X168940000Y-119264484D02*
G75*
G02*
X172171437Y-119420000I1560000J-1235516D01*
G01*
X169459039Y-119420000D02*
G75*
G02*
X171540961Y-119420000I1040961J-1080000D01*
G01*
X171540961Y-121580000D02*
G75*
G02*
X169459039Y-121580000I-1040961J1080000D01*
G01*
X172171437Y-121580000D02*
G75*
G02*
X168940000Y-121735516I-1671437J1080000D01*
G01*
%TO.C,D2*%
X154973333Y-82264000D02*
X154973333Y-82420000D01*
X154973333Y-84580000D02*
X154973333Y-84736000D01*
X154973333Y-82264484D02*
G75*
G02*
X158204770Y-82420000I1560000J-1235516D01*
G01*
X155492372Y-82420000D02*
G75*
G02*
X157574294Y-82420000I1040961J-1080000D01*
G01*
X157574294Y-84580000D02*
G75*
G02*
X155492372Y-84580000I-1040961J1080000D01*
G01*
X158204770Y-84580000D02*
G75*
G02*
X154973333Y-84735516I-1671437J1080000D01*
G01*
%TO.C,D13*%
X147802000Y-119264000D02*
X147802000Y-119420000D01*
X147802000Y-121580000D02*
X147802000Y-121736000D01*
X147802000Y-119264484D02*
G75*
G02*
X151033437Y-119420000I1560000J-1235516D01*
G01*
X148321039Y-119420000D02*
G75*
G02*
X150402961Y-119420000I1040961J-1080000D01*
G01*
X150402961Y-121580000D02*
G75*
G02*
X148321039Y-121580000I-1040961J1080000D01*
G01*
X151033437Y-121580000D02*
G75*
G02*
X147802000Y-121735516I-1671437J1080000D01*
G01*
%TO.C,D5*%
X133620000Y-100764000D02*
X133620000Y-100920000D01*
X133620000Y-103080000D02*
X133620000Y-103236000D01*
X133620000Y-100764484D02*
G75*
G02*
X136851437Y-100920000I1560000J-1235516D01*
G01*
X134139039Y-100920000D02*
G75*
G02*
X136220961Y-100920000I1040961J-1080000D01*
G01*
X136220961Y-103080000D02*
G75*
G02*
X134139039Y-103080000I-1040961J1080000D01*
G01*
X136851437Y-103080000D02*
G75*
G02*
X133620000Y-103235516I-1671437J1080000D01*
G01*
%TO.C,D9*%
X161900000Y-100764000D02*
X161900000Y-100920000D01*
X161900000Y-103080000D02*
X161900000Y-103236000D01*
X161900000Y-100764484D02*
G75*
G02*
X165131437Y-100920000I1560000J-1235516D01*
G01*
X162419039Y-100920000D02*
G75*
G02*
X164500961Y-100920000I1040961J-1080000D01*
G01*
X164500961Y-103080000D02*
G75*
G02*
X162419039Y-103080000I-1040961J1080000D01*
G01*
X165131437Y-103080000D02*
G75*
G02*
X161900000Y-103235516I-1671437J1080000D01*
G01*
%TD*%
M02*
