%TF.GenerationSoftware,KiCad,Pcbnew,9.0.7*%
%TF.CreationDate,2026-03-05T21:01:40+01:00*%
%TF.ProjectId,bin_clock,62696e5f-636c-46f6-936b-2e6b69636164,rev?*%
%TF.SameCoordinates,Original*%
%TF.FileFunction,Soldermask,Bot*%
%TF.FilePolarity,Negative*%
%FSLAX46Y46*%
G04 Gerber Fmt 4.6, Leading zero omitted, Abs format (unit mm)*
G04 Created by KiCad (PCBNEW 9.0.7) date 2026-03-05 21:01:40*
%MOMM*%
%LPD*%
G01*
G04 APERTURE LIST*
%ADD10R,1.800000X1.800000*%
%ADD11C,1.800000*%
%ADD12R,1.600000X1.600000*%
%ADD13C,1.600000*%
%ADD14R,1.700000X1.700000*%
%ADD15C,1.700000*%
G04 APERTURE END LIST*
D10*
%TO.C,D4*%
X140530000Y-83500000D03*
D11*
X143070000Y-83500000D03*
%TD*%
D12*
%TO.C,RN3*%
X160620000Y-96750000D03*
D13*
X158080000Y-96750000D03*
X155540000Y-96750000D03*
X153000000Y-96750000D03*
X150460000Y-96750000D03*
X147920000Y-96750000D03*
X145380000Y-96750000D03*
%TD*%
D10*
%TO.C,D6*%
X140980000Y-102000000D03*
D11*
X143520000Y-102000000D03*
%TD*%
D10*
%TO.C,D11*%
X134000000Y-120500000D03*
D11*
X136540000Y-120500000D03*
%TD*%
D10*
%TO.C,D14*%
X155138000Y-120500000D03*
D11*
X157678000Y-120500000D03*
%TD*%
D10*
%TO.C,D15*%
X162184000Y-120500000D03*
D11*
X164724000Y-120500000D03*
%TD*%
D10*
%TO.C,D1*%
X162630000Y-83500000D03*
D11*
X165170000Y-83500000D03*
%TD*%
D12*
%TO.C,RN1*%
X160620000Y-78000000D03*
D13*
X158080000Y-78000000D03*
X155540000Y-78000000D03*
X153000000Y-78000000D03*
X150460000Y-78000000D03*
X147920000Y-78000000D03*
X145380000Y-78000000D03*
%TD*%
D12*
%TO.C,RN2*%
X160620000Y-115000000D03*
D13*
X158080000Y-115000000D03*
X155540000Y-115000000D03*
X153000000Y-115000000D03*
X150460000Y-115000000D03*
X147920000Y-115000000D03*
X145380000Y-115000000D03*
%TD*%
D10*
%TO.C,D8*%
X155120000Y-102000000D03*
D11*
X157660000Y-102000000D03*
%TD*%
D10*
%TO.C,D7*%
X148050000Y-102000000D03*
D11*
X150590000Y-102000000D03*
%TD*%
D10*
%TO.C,D10*%
X169260000Y-102000000D03*
D11*
X171800000Y-102000000D03*
%TD*%
D10*
%TO.C,D12*%
X141046000Y-120500000D03*
D11*
X143586000Y-120500000D03*
%TD*%
D10*
%TO.C,D3*%
X147896667Y-83500000D03*
D11*
X150436667Y-83500000D03*
%TD*%
D10*
%TO.C,D16*%
X169230000Y-120500000D03*
D11*
X171770000Y-120500000D03*
%TD*%
D10*
%TO.C,D2*%
X155263333Y-83500000D03*
D11*
X157803333Y-83500000D03*
%TD*%
D10*
%TO.C,D13*%
X148092000Y-120500000D03*
D11*
X150632000Y-120500000D03*
%TD*%
D10*
%TO.C,D5*%
X133910000Y-102000000D03*
D11*
X136450000Y-102000000D03*
%TD*%
D10*
%TO.C,D9*%
X162190000Y-102000000D03*
D11*
X164730000Y-102000000D03*
%TD*%
D14*
%TO.C,J3*%
X128710867Y-117714975D03*
D15*
X128710867Y-120254975D03*
X128710867Y-122794975D03*
X128710867Y-125334975D03*
X128710867Y-127874975D03*
X128710867Y-130414975D03*
%TD*%
D14*
%TO.C,J2*%
X176954000Y-108576000D03*
D15*
X176954000Y-106036000D03*
X176954000Y-103496000D03*
X176954000Y-100956000D03*
X176954000Y-98416000D03*
X176954000Y-95876000D03*
X176954000Y-93336000D03*
X176954000Y-90796000D03*
X176954000Y-88256000D03*
X176954000Y-85716000D03*
%TD*%
D14*
%TO.C,J4*%
X128691744Y-94871445D03*
D15*
X128691744Y-97411445D03*
X128691744Y-99951445D03*
X128691744Y-102491445D03*
X128691744Y-105031445D03*
X128691744Y-107571445D03*
X128691744Y-110111445D03*
X128691744Y-112651445D03*
%TD*%
D14*
%TO.C,J1*%
X176953990Y-112639990D03*
D15*
X176953990Y-115179990D03*
X176953990Y-117719990D03*
X176953990Y-120259990D03*
X176953990Y-122799990D03*
X176953990Y-125339990D03*
X176953990Y-127879990D03*
X176953990Y-130419990D03*
%TD*%
M02*
