M48
; DRILL file {KiCad 9.0.7} date 2026-03-05T21:02:59+0100
; FORMAT={-:-/ absolute / metric / decimal}
; #@! TF.CreationDate,2026-03-05T21:02:59+01:00
; #@! TF.GenerationSoftware,Kicad,Pcbnew,9.0.7
; #@! TF.FileFunction,Plated,1,2,PTH
FMAT,2
METRIC
; #@! TA.AperFunction,Plated,PTH,ComponentDrill
T1C0.800
; #@! TA.AperFunction,Plated,PTH,ComponentDrill
T2C0.900
; #@! TA.AperFunction,Plated,PTH,ComponentDrill
T3C1.000
%
G90
G05
T1
X145.38Y-78.0
X145.38Y-96.75
X145.38Y-115.0
X147.92Y-78.0
X147.92Y-96.75
X147.92Y-115.0
X150.46Y-78.0
X150.46Y-96.75
X150.46Y-115.0
X153.0Y-78.0
X153.0Y-96.75
X153.0Y-115.0
X155.54Y-78.0
X155.54Y-96.75
X155.54Y-115.0
X158.08Y-78.0
X158.08Y-96.75
X158.08Y-115.0
X160.62Y-78.0
X160.62Y-96.75
X160.62Y-115.0
T2
X133.91Y-102.0
X134.0Y-120.5
X136.45Y-102.0
X136.54Y-120.5
X140.53Y-83.5
X140.98Y-102.0
X141.046Y-120.5
X143.07Y-83.5
X143.52Y-102.0
X143.586Y-120.5
X147.897Y-83.5
X148.05Y-102.0
X148.092Y-120.5
X150.437Y-83.5
X150.59Y-102.0
X150.632Y-120.5
X155.12Y-102.0
X155.138Y-120.5
X155.263Y-83.5
X157.66Y-102.0
X157.678Y-120.5
X157.803Y-83.5
X162.184Y-120.5
X162.19Y-102.0
X162.63Y-83.5
X164.724Y-120.5
X164.73Y-102.0
X165.17Y-83.5
X169.23Y-120.5
X169.26Y-102.0
X171.77Y-120.5
X171.8Y-102.0
T3
X128.692Y-94.871
X128.692Y-97.411
X128.692Y-99.951
X128.692Y-102.491
X128.692Y-105.031
X128.692Y-107.571
X128.692Y-110.111
X128.692Y-112.651
X128.711Y-117.715
X128.711Y-120.255
X128.711Y-122.795
X128.711Y-125.335
X128.711Y-127.875
X128.711Y-130.415
X176.954Y-112.64
X176.954Y-115.18
X176.954Y-117.72
X176.954Y-120.26
X176.954Y-122.8
X176.954Y-125.34
X176.954Y-127.88
X176.954Y-130.42
X176.954Y-85.716
X176.954Y-88.256
X176.954Y-90.796
X176.954Y-93.336
X176.954Y-95.876
X176.954Y-98.416
X176.954Y-100.956
X176.954Y-103.496
X176.954Y-106.036
X176.954Y-108.576
M30
