%TF.GenerationSoftware,KiCad,Pcbnew,9.0.7*%
%TF.CreationDate,2026-03-05T21:01:40+01:00*%
%TF.ProjectId,bin_clock,62696e5f-636c-46f6-936b-2e6b69636164,rev?*%
%TF.SameCoordinates,Original*%
%TF.FileFunction,Copper,L1,Top*%
%TF.FilePolarity,Positive*%
%FSLAX46Y46*%
G04 Gerber Fmt 4.6, Leading zero omitted, Abs format (unit mm)*
G04 Created by KiCad (PCBNEW 9.0.7) date 2026-03-05 21:01:40*
%MOMM*%
%LPD*%
G01*
G04 APERTURE LIST*
%TA.AperFunction,ComponentPad*%
%ADD10R,1.800000X1.800000*%
%TD*%
%TA.AperFunction,ComponentPad*%
%ADD11C,1.800000*%
%TD*%
%TA.AperFunction,ComponentPad*%
%ADD12R,1.600000X1.600000*%
%TD*%
%TA.AperFunction,ComponentPad*%
%ADD13C,1.600000*%
%TD*%
%TA.AperFunction,ComponentPad*%
%ADD14R,1.700000X1.700000*%
%TD*%
%TA.AperFunction,ComponentPad*%
%ADD15C,1.700000*%
%TD*%
G04 APERTURE END LIST*
D10*
%TO.P,D4,1,K*%
%TO.N,Net-(D4-K)*%
X140530000Y-83500000D03*
D11*
%TO.P,D4,2,A*%
%TO.N,Net-(D4-A)*%
X143070000Y-83500000D03*
%TD*%
D12*
%TO.P,RN3,1,common*%
%TO.N,GND*%
X160620000Y-96750000D03*
D13*
%TO.P,RN3,2,R1*%
%TO.N,Net-(D10-K)*%
X158080000Y-96750000D03*
%TO.P,RN3,3,R2*%
%TO.N,Net-(D9-K)*%
X155540000Y-96750000D03*
%TO.P,RN3,4,R3*%
%TO.N,Net-(D8-K)*%
X153000000Y-96750000D03*
%TO.P,RN3,5,R4*%
%TO.N,Net-(D7-K)*%
X150460000Y-96750000D03*
%TO.P,RN3,6,R5*%
%TO.N,Net-(D6-K)*%
X147920000Y-96750000D03*
%TO.P,RN3,7,R6*%
%TO.N,Net-(D5-K)*%
X145380000Y-96750000D03*
%TD*%
D10*
%TO.P,D6,1,K*%
%TO.N,Net-(D6-K)*%
X140980000Y-102000000D03*
D11*
%TO.P,D6,2,A*%
%TO.N,Net-(D6-A)*%
X143520000Y-102000000D03*
%TD*%
D10*
%TO.P,D11,1,K*%
%TO.N,Net-(D11-K)*%
X134000000Y-120500000D03*
D11*
%TO.P,D11,2,A*%
%TO.N,Net-(D11-A)*%
X136540000Y-120500000D03*
%TD*%
D10*
%TO.P,D14,1,K*%
%TO.N,Net-(D14-K)*%
X155138000Y-120500000D03*
D11*
%TO.P,D14,2,A*%
%TO.N,Net-(D14-A)*%
X157678000Y-120500000D03*
%TD*%
D10*
%TO.P,D15,1,K*%
%TO.N,Net-(D15-K)*%
X162184000Y-120500000D03*
D11*
%TO.P,D15,2,A*%
%TO.N,Net-(D15-A)*%
X164724000Y-120500000D03*
%TD*%
D10*
%TO.P,D1,1,K*%
%TO.N,Net-(D1-K)*%
X162630000Y-83500000D03*
D11*
%TO.P,D1,2,A*%
%TO.N,Net-(D1-A)*%
X165170000Y-83500000D03*
%TD*%
D12*
%TO.P,RN1,1,common*%
%TO.N,GND*%
X160620000Y-78000000D03*
D13*
%TO.P,RN1,2,R1*%
%TO.N,Net-(D1-K)*%
X158080000Y-78000000D03*
%TO.P,RN1,3,R2*%
%TO.N,Net-(D2-K)*%
X155540000Y-78000000D03*
%TO.P,RN1,4,R3*%
%TO.N,Net-(D3-K)*%
X153000000Y-78000000D03*
%TO.P,RN1,5,R4*%
%TO.N,Net-(D4-K)*%
X150460000Y-78000000D03*
%TO.P,RN1,6,R5*%
%TO.N,unconnected-(RN1-R5-Pad6)*%
X147920000Y-78000000D03*
%TO.P,RN1,7,R6*%
%TO.N,unconnected-(RN1-R6-Pad7)*%
X145380000Y-78000000D03*
%TD*%
D12*
%TO.P,RN2,1,common*%
%TO.N,GND*%
X160620000Y-115000000D03*
D13*
%TO.P,RN2,2,R1*%
%TO.N,Net-(D16-K)*%
X158080000Y-115000000D03*
%TO.P,RN2,3,R2*%
%TO.N,Net-(D15-K)*%
X155540000Y-115000000D03*
%TO.P,RN2,4,R3*%
%TO.N,Net-(D14-K)*%
X153000000Y-115000000D03*
%TO.P,RN2,5,R4*%
%TO.N,Net-(D13-K)*%
X150460000Y-115000000D03*
%TO.P,RN2,6,R5*%
%TO.N,Net-(D12-K)*%
X147920000Y-115000000D03*
%TO.P,RN2,7,R6*%
%TO.N,Net-(D11-K)*%
X145380000Y-115000000D03*
%TD*%
D10*
%TO.P,D8,1,K*%
%TO.N,Net-(D8-K)*%
X155120000Y-102000000D03*
D11*
%TO.P,D8,2,A*%
%TO.N,Net-(D8-A)*%
X157660000Y-102000000D03*
%TD*%
D10*
%TO.P,D7,1,K*%
%TO.N,Net-(D7-K)*%
X148050000Y-102000000D03*
D11*
%TO.P,D7,2,A*%
%TO.N,Net-(D7-A)*%
X150590000Y-102000000D03*
%TD*%
D10*
%TO.P,D10,1,K*%
%TO.N,Net-(D10-K)*%
X169260000Y-102000000D03*
D11*
%TO.P,D10,2,A*%
%TO.N,Net-(D10-A)*%
X171800000Y-102000000D03*
%TD*%
D10*
%TO.P,D12,1,K*%
%TO.N,Net-(D12-K)*%
X141046000Y-120500000D03*
D11*
%TO.P,D12,2,A*%
%TO.N,Net-(D12-A)*%
X143586000Y-120500000D03*
%TD*%
D10*
%TO.P,D3,1,K*%
%TO.N,Net-(D3-K)*%
X147896667Y-83500000D03*
D11*
%TO.P,D3,2,A*%
%TO.N,Net-(D3-A)*%
X150436667Y-83500000D03*
%TD*%
D10*
%TO.P,D16,1,K*%
%TO.N,Net-(D16-K)*%
X169230000Y-120500000D03*
D11*
%TO.P,D16,2,A*%
%TO.N,Net-(D16-A)*%
X171770000Y-120500000D03*
%TD*%
D10*
%TO.P,D2,1,K*%
%TO.N,Net-(D2-K)*%
X155263333Y-83500000D03*
D11*
%TO.P,D2,2,A*%
%TO.N,Net-(D2-A)*%
X157803333Y-83500000D03*
%TD*%
D10*
%TO.P,D13,1,K*%
%TO.N,Net-(D13-K)*%
X148092000Y-120500000D03*
D11*
%TO.P,D13,2,A*%
%TO.N,Net-(D13-A)*%
X150632000Y-120500000D03*
%TD*%
D10*
%TO.P,D5,1,K*%
%TO.N,Net-(D5-K)*%
X133910000Y-102000000D03*
D11*
%TO.P,D5,2,A*%
%TO.N,Net-(D5-A)*%
X136450000Y-102000000D03*
%TD*%
D10*
%TO.P,D9,1,K*%
%TO.N,Net-(D9-K)*%
X162190000Y-102000000D03*
D11*
%TO.P,D9,2,A*%
%TO.N,Net-(D9-A)*%
X164730000Y-102000000D03*
%TD*%
D14*
%TO.P,J3,1,Pin_1*%
%TO.N,Net-(D11-A)*%
X128710867Y-117714975D03*
D15*
%TO.P,J3,2,Pin_2*%
%TO.N,Net-(D12-A)*%
X128710867Y-120254975D03*
%TO.P,J3,3,Pin_3*%
%TO.N,Net-(D13-A)*%
X128710867Y-122794975D03*
%TO.P,J3,4,Pin_4*%
%TO.N,Net-(D14-A)*%
X128710867Y-125334975D03*
%TO.P,J3,5,Pin_5*%
%TO.N,Net-(D15-A)*%
X128710867Y-127874975D03*
%TO.P,J3,6,Pin_6*%
%TO.N,Net-(D16-A)*%
X128710867Y-130414975D03*
%TD*%
D14*
%TO.P,J2,1,Pin_1*%
%TO.N,unconnected-(J2-Pin_1-Pad1)*%
X176954000Y-108576000D03*
D15*
%TO.P,J2,2,Pin_2*%
%TO.N,unconnected-(J2-Pin_2-Pad2)*%
X176954000Y-106036000D03*
%TO.P,J2,3,Pin_3*%
%TO.N,Net-(D4-A)*%
X176954000Y-103496000D03*
%TO.P,J2,4,Pin_4*%
%TO.N,Net-(D3-A)*%
X176954000Y-100956000D03*
%TO.P,J2,5,Pin_5*%
%TO.N,Net-(D2-A)*%
X176954000Y-98416000D03*
%TO.P,J2,6,Pin_6*%
%TO.N,Net-(D1-A)*%
X176954000Y-95876000D03*
%TO.P,J2,7,Pin_7*%
%TO.N,unconnected-(J2-Pin_7-Pad7)*%
X176954000Y-93336000D03*
%TO.P,J2,8,Pin_8*%
%TO.N,unconnected-(J2-Pin_8-Pad8)*%
X176954000Y-90796000D03*
%TO.P,J2,9,Pin_9*%
%TO.N,unconnected-(J2-Pin_9-Pad9)*%
X176954000Y-88256000D03*
%TO.P,J2,10,Pin_10*%
%TO.N,unconnected-(J2-Pin_10-Pad10)*%
X176954000Y-85716000D03*
%TD*%
D14*
%TO.P,J4,1,Pin_1*%
%TO.N,unconnected-(J4-Pin_1-Pad1)*%
X128691744Y-94871445D03*
D15*
%TO.P,J4,2,Pin_2*%
%TO.N,unconnected-(J4-Pin_2-Pad2)*%
X128691744Y-97411445D03*
%TO.P,J4,3,Pin_3*%
%TO.N,unconnected-(J4-Pin_3-Pad3)*%
X128691744Y-99951445D03*
%TO.P,J4,4,Pin_4*%
%TO.N,unconnected-(J4-Pin_4-Pad4)*%
X128691744Y-102491445D03*
%TO.P,J4,5,Pin_5*%
%TO.N,unconnected-(J4-Pin_5-Pad5)*%
X128691744Y-105031445D03*
%TO.P,J4,6,Pin_6*%
%TO.N,GND*%
X128691744Y-107571445D03*
%TO.P,J4,7,Pin_7*%
X128691744Y-110111445D03*
%TO.P,J4,8,Pin_8*%
%TO.N,unconnected-(J4-Pin_8-Pad8)*%
X128691744Y-112651445D03*
%TD*%
D14*
%TO.P,J1,1,Pin_1*%
%TO.N,Net-(D10-A)*%
X176953990Y-112639990D03*
D15*
%TO.P,J1,2,Pin_2*%
%TO.N,Net-(D9-A)*%
X176953990Y-115179990D03*
%TO.P,J1,3,Pin_3*%
%TO.N,Net-(D8-A)*%
X176953990Y-117719990D03*
%TO.P,J1,4,Pin_4*%
%TO.N,Net-(D7-A)*%
X176953990Y-120259990D03*
%TO.P,J1,5,Pin_5*%
%TO.N,Net-(D6-A)*%
X176953990Y-122799990D03*
%TO.P,J1,6,Pin_6*%
%TO.N,Net-(D5-A)*%
X176953990Y-125339990D03*
%TO.P,J1,7,Pin_7*%
%TO.N,unconnected-(J1-Pin_7-Pad7)*%
X176953990Y-127879990D03*
%TO.P,J1,8,Pin_8*%
%TO.N,unconnected-(J1-Pin_8-Pad8)*%
X176953990Y-130419990D03*
%TD*%
%TA.AperFunction,Conductor*%
%TO.N,GND*%
G36*
X178484922Y-67421280D02*
G01*
X178493353Y-67422230D01*
X178578831Y-67431861D01*
X178605892Y-67438037D01*
X178688481Y-67466937D01*
X178713491Y-67478980D01*
X178787581Y-67525534D01*
X178809290Y-67542847D01*
X178871152Y-67604709D01*
X178888465Y-67626418D01*
X178935017Y-67700505D01*
X178947064Y-67725522D01*
X178975960Y-67808101D01*
X178982139Y-67835172D01*
X178992720Y-67929077D01*
X178993500Y-67942961D01*
X178993500Y-134875500D01*
X178973815Y-134942539D01*
X178921011Y-134988294D01*
X178869500Y-134999500D01*
X126778500Y-134999500D01*
X126711461Y-134979815D01*
X126665706Y-134927011D01*
X126654500Y-134875500D01*
X126654500Y-116817110D01*
X127360367Y-116817110D01*
X127360367Y-118612845D01*
X127360368Y-118612851D01*
X127366775Y-118672458D01*
X127417069Y-118807303D01*
X127417073Y-118807310D01*
X127503319Y-118922519D01*
X127503322Y-118922522D01*
X127618531Y-119008768D01*
X127618538Y-119008772D01*
X127749949Y-119057785D01*
X127805883Y-119099656D01*
X127830300Y-119165120D01*
X127815449Y-119233393D01*
X127794298Y-119261648D01*
X127680756Y-119375190D01*
X127555818Y-119547154D01*
X127459311Y-119736560D01*
X127459310Y-119736562D01*
X127459310Y-119736563D01*
X127457681Y-119741578D01*
X127393620Y-119938735D01*
X127360367Y-120148688D01*
X127360367Y-120361262D01*
X127393621Y-120571218D01*
X127406294Y-120610222D01*
X127459311Y-120773389D01*
X127555818Y-120962795D01*
X127680757Y-121134761D01*
X127831080Y-121285084D01*
X128003049Y-121410025D01*
X128011813Y-121414491D01*
X128062609Y-121462466D01*
X128079403Y-121530287D01*
X128056865Y-121596422D01*
X128011813Y-121635459D01*
X128003049Y-121639924D01*
X127831080Y-121764865D01*
X127680757Y-121915188D01*
X127555818Y-122087154D01*
X127459311Y-122276560D01*
X127459310Y-122276562D01*
X127459310Y-122276563D01*
X127457681Y-122281578D01*
X127393620Y-122478735D01*
X127392826Y-122483750D01*
X127360367Y-122688688D01*
X127360367Y-122901262D01*
X127393621Y-123111218D01*
X127395250Y-123116233D01*
X127459311Y-123313389D01*
X127555818Y-123502795D01*
X127680757Y-123674761D01*
X127831080Y-123825084D01*
X128003049Y-123950025D01*
X128011813Y-123954491D01*
X128062609Y-124002466D01*
X128079403Y-124070287D01*
X128056865Y-124136422D01*
X128011813Y-124175459D01*
X128003049Y-124179924D01*
X127831080Y-124304865D01*
X127680757Y-124455188D01*
X127555818Y-124627154D01*
X127459311Y-124816560D01*
X127459310Y-124816562D01*
X127459310Y-124816563D01*
X127457681Y-124821578D01*
X127393620Y-125018735D01*
X127392826Y-125023750D01*
X127360367Y-125228688D01*
X127360367Y-125441262D01*
X127393621Y-125651218D01*
X127395250Y-125656233D01*
X127459311Y-125853389D01*
X127555818Y-126042795D01*
X127680757Y-126214761D01*
X127831080Y-126365084D01*
X128003049Y-126490025D01*
X128011813Y-126494491D01*
X128062609Y-126542466D01*
X128079403Y-126610287D01*
X128056865Y-126676422D01*
X128011813Y-126715459D01*
X128003049Y-126719924D01*
X127831080Y-126844865D01*
X127680757Y-126995188D01*
X127555818Y-127167154D01*
X127459311Y-127356560D01*
X127459310Y-127356562D01*
X127459310Y-127356563D01*
X127457681Y-127361578D01*
X127393620Y-127558735D01*
X127392826Y-127563750D01*
X127360367Y-127768688D01*
X127360367Y-127981262D01*
X127393621Y-128191218D01*
X127395250Y-128196233D01*
X127459311Y-128393389D01*
X127555818Y-128582795D01*
X127680757Y-128754761D01*
X127831080Y-128905084D01*
X128003049Y-129030025D01*
X128011813Y-129034491D01*
X128062609Y-129082466D01*
X128079403Y-129150287D01*
X128056865Y-129216422D01*
X128011813Y-129255459D01*
X128003049Y-129259924D01*
X127831080Y-129384865D01*
X127680757Y-129535188D01*
X127555818Y-129707154D01*
X127459311Y-129896560D01*
X127459310Y-129896562D01*
X127459310Y-129896563D01*
X127457681Y-129901578D01*
X127393620Y-130098735D01*
X127392826Y-130103750D01*
X127360367Y-130308688D01*
X127360367Y-130521262D01*
X127393621Y-130731218D01*
X127395250Y-130736233D01*
X127459311Y-130933389D01*
X127555818Y-131122795D01*
X127680757Y-131294761D01*
X127831080Y-131445084D01*
X128003046Y-131570023D01*
X128003048Y-131570024D01*
X128003051Y-131570026D01*
X128192455Y-131666532D01*
X128394624Y-131732221D01*
X128604580Y-131765475D01*
X128604581Y-131765475D01*
X128817153Y-131765475D01*
X128817154Y-131765475D01*
X129027110Y-131732221D01*
X129229279Y-131666532D01*
X129418683Y-131570026D01*
X129583750Y-131450099D01*
X129590653Y-131445084D01*
X129590655Y-131445081D01*
X129590659Y-131445079D01*
X129740971Y-131294767D01*
X129740973Y-131294763D01*
X129740976Y-131294761D01*
X129849953Y-131144764D01*
X129865918Y-131122791D01*
X129962424Y-130933387D01*
X130028113Y-130731218D01*
X130061367Y-130521262D01*
X130061367Y-130308688D01*
X130028113Y-130098732D01*
X129962424Y-129896563D01*
X129865918Y-129707159D01*
X129865916Y-129707156D01*
X129865915Y-129707154D01*
X129740976Y-129535188D01*
X129590653Y-129384865D01*
X129418687Y-129259926D01*
X129417982Y-129259566D01*
X129409921Y-129255460D01*
X129359126Y-129207487D01*
X129342330Y-129139667D01*
X129364866Y-129073531D01*
X129409921Y-129034490D01*
X129418683Y-129030026D01*
X129583750Y-128910099D01*
X129590653Y-128905084D01*
X129590655Y-128905081D01*
X129590659Y-128905079D01*
X129740971Y-128754767D01*
X129740973Y-128754763D01*
X129740976Y-128754761D01*
X129849953Y-128604764D01*
X129865918Y-128582791D01*
X129962424Y-128393387D01*
X130028113Y-128191218D01*
X130061367Y-127981262D01*
X130061367Y-127768688D01*
X130028113Y-127558732D01*
X129962424Y-127356563D01*
X129865918Y-127167159D01*
X129865916Y-127167156D01*
X129865915Y-127167154D01*
X129740976Y-126995188D01*
X129590653Y-126844865D01*
X129418687Y-126719926D01*
X129417982Y-126719566D01*
X129409921Y-126715460D01*
X129359126Y-126667487D01*
X129342330Y-126599667D01*
X129364866Y-126533531D01*
X129409921Y-126494490D01*
X129418683Y-126490026D01*
X129583750Y-126370099D01*
X129590653Y-126365084D01*
X129590655Y-126365081D01*
X129590659Y-126365079D01*
X129740971Y-126214767D01*
X129740973Y-126214763D01*
X129740976Y-126214761D01*
X129849953Y-126064764D01*
X129865918Y-126042791D01*
X129962424Y-125853387D01*
X130028113Y-125651218D01*
X130061367Y-125441262D01*
X130061367Y-125228688D01*
X130028113Y-125018732D01*
X129962424Y-124816563D01*
X129865918Y-124627159D01*
X129865916Y-124627156D01*
X129865915Y-124627154D01*
X129740976Y-124455188D01*
X129590653Y-124304865D01*
X129418687Y-124179926D01*
X129417982Y-124179566D01*
X129409921Y-124175460D01*
X129359126Y-124127487D01*
X129342330Y-124059667D01*
X129364866Y-123993531D01*
X129409921Y-123954490D01*
X129418683Y-123950026D01*
X129583750Y-123830099D01*
X129590653Y-123825084D01*
X129590655Y-123825081D01*
X129590659Y-123825079D01*
X129740971Y-123674767D01*
X129740973Y-123674763D01*
X129740976Y-123674761D01*
X129849953Y-123524764D01*
X129865918Y-123502791D01*
X129962424Y-123313387D01*
X130028113Y-123111218D01*
X130061367Y-122901262D01*
X130061367Y-122688688D01*
X130028113Y-122478732D01*
X129962424Y-122276563D01*
X129865918Y-122087159D01*
X129865916Y-122087156D01*
X129865915Y-122087154D01*
X129740976Y-121915188D01*
X129590653Y-121764865D01*
X129418687Y-121639926D01*
X129417982Y-121639566D01*
X129409921Y-121635460D01*
X129359126Y-121587487D01*
X129342330Y-121519667D01*
X129364866Y-121453531D01*
X129409921Y-121414490D01*
X129418683Y-121410026D01*
X129583750Y-121290099D01*
X129590653Y-121285084D01*
X129590655Y-121285081D01*
X129590659Y-121285079D01*
X129740971Y-121134767D01*
X129740973Y-121134763D01*
X129740976Y-121134761D01*
X129849953Y-120984764D01*
X129865918Y-120962791D01*
X129962424Y-120773387D01*
X130028113Y-120571218D01*
X130061367Y-120361262D01*
X130061367Y-120148688D01*
X130028113Y-119938732D01*
X129962424Y-119736563D01*
X129868453Y-119552135D01*
X132599500Y-119552135D01*
X132599500Y-121447870D01*
X132599501Y-121447876D01*
X132605908Y-121507483D01*
X132656202Y-121642328D01*
X132656206Y-121642335D01*
X132742452Y-121757544D01*
X132742455Y-121757547D01*
X132857664Y-121843793D01*
X132857671Y-121843797D01*
X132992517Y-121894091D01*
X132992516Y-121894091D01*
X132999444Y-121894835D01*
X133052127Y-121900500D01*
X134947872Y-121900499D01*
X135007483Y-121894091D01*
X135142331Y-121843796D01*
X135257546Y-121757546D01*
X135343796Y-121642331D01*
X135346359Y-121635459D01*
X135373601Y-121562420D01*
X135415471Y-121506486D01*
X135480936Y-121482068D01*
X135549209Y-121496919D01*
X135577464Y-121518071D01*
X135627636Y-121568243D01*
X135627641Y-121568247D01*
X135783192Y-121681260D01*
X135805978Y-121697815D01*
X135934375Y-121763237D01*
X136002393Y-121797895D01*
X136002396Y-121797896D01*
X136107221Y-121831955D01*
X136212049Y-121866015D01*
X136429778Y-121900500D01*
X136429779Y-121900500D01*
X136650221Y-121900500D01*
X136650222Y-121900500D01*
X136867951Y-121866015D01*
X137077606Y-121797895D01*
X137274022Y-121697815D01*
X137452365Y-121568242D01*
X137608242Y-121412365D01*
X137737815Y-121234022D01*
X137837895Y-121037606D01*
X137906015Y-120827951D01*
X137940500Y-120610222D01*
X137940500Y-120389778D01*
X137906015Y-120172049D01*
X137837895Y-119962394D01*
X137837895Y-119962393D01*
X137803237Y-119894375D01*
X137737815Y-119765978D01*
X137728943Y-119753767D01*
X137632986Y-119621691D01*
X137608247Y-119587641D01*
X137608243Y-119587636D01*
X137572742Y-119552135D01*
X139645500Y-119552135D01*
X139645500Y-121447870D01*
X139645501Y-121447876D01*
X139651908Y-121507483D01*
X139702202Y-121642328D01*
X139702206Y-121642335D01*
X139788452Y-121757544D01*
X139788455Y-121757547D01*
X139903664Y-121843793D01*
X139903671Y-121843797D01*
X140038517Y-121894091D01*
X140038516Y-121894091D01*
X140045444Y-121894835D01*
X140098127Y-121900500D01*
X141993872Y-121900499D01*
X142053483Y-121894091D01*
X142188331Y-121843796D01*
X142303546Y-121757546D01*
X142389796Y-121642331D01*
X142392359Y-121635459D01*
X142419601Y-121562420D01*
X142461471Y-121506486D01*
X142526936Y-121482068D01*
X142595209Y-121496919D01*
X142623464Y-121518071D01*
X142673636Y-121568243D01*
X142673641Y-121568247D01*
X142829192Y-121681260D01*
X142851978Y-121697815D01*
X142980375Y-121763237D01*
X143048393Y-121797895D01*
X143048396Y-121797896D01*
X143153221Y-121831955D01*
X143258049Y-121866015D01*
X143475778Y-121900500D01*
X143475779Y-121900500D01*
X143696221Y-121900500D01*
X143696222Y-121900500D01*
X143913951Y-121866015D01*
X144123606Y-121797895D01*
X144320022Y-121697815D01*
X144498365Y-121568242D01*
X144654242Y-121412365D01*
X144783815Y-121234022D01*
X144883895Y-121037606D01*
X144952015Y-120827951D01*
X144986500Y-120610222D01*
X144986500Y-120389778D01*
X144952015Y-120172049D01*
X144883895Y-119962394D01*
X144883895Y-119962393D01*
X144849237Y-119894375D01*
X144783815Y-119765978D01*
X144774943Y-119753767D01*
X144678986Y-119621691D01*
X144654247Y-119587641D01*
X144654243Y-119587636D01*
X144618742Y-119552135D01*
X146691500Y-119552135D01*
X146691500Y-121447870D01*
X146691501Y-121447876D01*
X146697908Y-121507483D01*
X146748202Y-121642328D01*
X146748206Y-121642335D01*
X146834452Y-121757544D01*
X146834455Y-121757547D01*
X146949664Y-121843793D01*
X146949671Y-121843797D01*
X147084517Y-121894091D01*
X147084516Y-121894091D01*
X147091444Y-121894835D01*
X147144127Y-121900500D01*
X149039872Y-121900499D01*
X149099483Y-121894091D01*
X149234331Y-121843796D01*
X149349546Y-121757546D01*
X149435796Y-121642331D01*
X149438359Y-121635459D01*
X149465601Y-121562420D01*
X149507471Y-121506486D01*
X149572936Y-121482068D01*
X149641209Y-121496919D01*
X149669464Y-121518071D01*
X149719636Y-121568243D01*
X149719641Y-121568247D01*
X149875192Y-121681260D01*
X149897978Y-121697815D01*
X150026375Y-121763237D01*
X150094393Y-121797895D01*
X150094396Y-121797896D01*
X150199221Y-121831955D01*
X150304049Y-121866015D01*
X150521778Y-121900500D01*
X150521779Y-121900500D01*
X150742221Y-121900500D01*
X150742222Y-121900500D01*
X150959951Y-121866015D01*
X151169606Y-121797895D01*
X151366022Y-121697815D01*
X151544365Y-121568242D01*
X151700242Y-121412365D01*
X151829815Y-121234022D01*
X151929895Y-121037606D01*
X151998015Y-120827951D01*
X152032500Y-120610222D01*
X152032500Y-120389778D01*
X151998015Y-120172049D01*
X151929895Y-119962394D01*
X151929895Y-119962393D01*
X151895237Y-119894375D01*
X151829815Y-119765978D01*
X151820943Y-119753767D01*
X151724986Y-119621691D01*
X151700247Y-119587641D01*
X151700243Y-119587636D01*
X151664742Y-119552135D01*
X153737500Y-119552135D01*
X153737500Y-121447870D01*
X153737501Y-121447876D01*
X153743908Y-121507483D01*
X153794202Y-121642328D01*
X153794206Y-121642335D01*
X153880452Y-121757544D01*
X153880455Y-121757547D01*
X153995664Y-121843793D01*
X153995671Y-121843797D01*
X154130517Y-121894091D01*
X154130516Y-121894091D01*
X154137444Y-121894835D01*
X154190127Y-121900500D01*
X156085872Y-121900499D01*
X156145483Y-121894091D01*
X156280331Y-121843796D01*
X156395546Y-121757546D01*
X156481796Y-121642331D01*
X156484359Y-121635459D01*
X156511601Y-121562420D01*
X156553471Y-121506486D01*
X156618936Y-121482068D01*
X156687209Y-121496919D01*
X156715464Y-121518071D01*
X156765636Y-121568243D01*
X156765641Y-121568247D01*
X156921192Y-121681260D01*
X156943978Y-121697815D01*
X157072375Y-121763237D01*
X157140393Y-121797895D01*
X157140396Y-121797896D01*
X157245221Y-121831955D01*
X157350049Y-121866015D01*
X157567778Y-121900500D01*
X157567779Y-121900500D01*
X157788221Y-121900500D01*
X157788222Y-121900500D01*
X158005951Y-121866015D01*
X158215606Y-121797895D01*
X158412022Y-121697815D01*
X158590365Y-121568242D01*
X158746242Y-121412365D01*
X158875815Y-121234022D01*
X158975895Y-121037606D01*
X159044015Y-120827951D01*
X159078500Y-120610222D01*
X159078500Y-120389778D01*
X159044015Y-120172049D01*
X158975895Y-119962394D01*
X158975895Y-119962393D01*
X158941237Y-119894375D01*
X158875815Y-119765978D01*
X158866943Y-119753767D01*
X158770986Y-119621691D01*
X158746247Y-119587641D01*
X158746243Y-119587636D01*
X158710742Y-119552135D01*
X160783500Y-119552135D01*
X160783500Y-121447870D01*
X160783501Y-121447876D01*
X160789908Y-121507483D01*
X160840202Y-121642328D01*
X160840206Y-121642335D01*
X160926452Y-121757544D01*
X160926455Y-121757547D01*
X161041664Y-121843793D01*
X161041671Y-121843797D01*
X161176517Y-121894091D01*
X161176516Y-121894091D01*
X161183444Y-121894835D01*
X161236127Y-121900500D01*
X163131872Y-121900499D01*
X163191483Y-121894091D01*
X163326331Y-121843796D01*
X163441546Y-121757546D01*
X163527796Y-121642331D01*
X163530359Y-121635459D01*
X163557601Y-121562420D01*
X163599471Y-121506486D01*
X163664936Y-121482068D01*
X163733209Y-121496919D01*
X163761464Y-121518071D01*
X163811636Y-121568243D01*
X163811641Y-121568247D01*
X163967192Y-121681260D01*
X163989978Y-121697815D01*
X164118375Y-121763237D01*
X164186393Y-121797895D01*
X164186396Y-121797896D01*
X164291221Y-121831955D01*
X164396049Y-121866015D01*
X164613778Y-121900500D01*
X164613779Y-121900500D01*
X164834221Y-121900500D01*
X164834222Y-121900500D01*
X165051951Y-121866015D01*
X165261606Y-121797895D01*
X165458022Y-121697815D01*
X165636365Y-121568242D01*
X165792242Y-121412365D01*
X165921815Y-121234022D01*
X166021895Y-121037606D01*
X166090015Y-120827951D01*
X166124500Y-120610222D01*
X166124500Y-120389778D01*
X166090015Y-120172049D01*
X166021895Y-119962394D01*
X166021895Y-119962393D01*
X165987237Y-119894375D01*
X165921815Y-119765978D01*
X165912943Y-119753767D01*
X165816986Y-119621691D01*
X165792247Y-119587641D01*
X165792243Y-119587636D01*
X165756742Y-119552135D01*
X167829500Y-119552135D01*
X167829500Y-121447870D01*
X167829501Y-121447876D01*
X167835908Y-121507483D01*
X167886202Y-121642328D01*
X167886206Y-121642335D01*
X167972452Y-121757544D01*
X167972455Y-121757547D01*
X168087664Y-121843793D01*
X168087671Y-121843797D01*
X168222517Y-121894091D01*
X168222516Y-121894091D01*
X168229444Y-121894835D01*
X168282127Y-121900500D01*
X170177872Y-121900499D01*
X170237483Y-121894091D01*
X170372331Y-121843796D01*
X170487546Y-121757546D01*
X170573796Y-121642331D01*
X170576359Y-121635459D01*
X170603601Y-121562420D01*
X170645471Y-121506486D01*
X170710936Y-121482068D01*
X170779209Y-121496919D01*
X170807464Y-121518071D01*
X170857636Y-121568243D01*
X170857641Y-121568247D01*
X171013192Y-121681260D01*
X171035978Y-121697815D01*
X171164375Y-121763237D01*
X171232393Y-121797895D01*
X171232396Y-121797896D01*
X171337221Y-121831955D01*
X171442049Y-121866015D01*
X171659778Y-121900500D01*
X171659779Y-121900500D01*
X171880221Y-121900500D01*
X171880222Y-121900500D01*
X172097951Y-121866015D01*
X172307606Y-121797895D01*
X172504022Y-121697815D01*
X172682365Y-121568242D01*
X172838242Y-121412365D01*
X172967815Y-121234022D01*
X173067895Y-121037606D01*
X173136015Y-120827951D01*
X173170500Y-120610222D01*
X173170500Y-120389778D01*
X173136015Y-120172049D01*
X173067895Y-119962394D01*
X173067895Y-119962393D01*
X173033237Y-119894375D01*
X172967815Y-119765978D01*
X172850932Y-119605101D01*
X172838247Y-119587641D01*
X172838243Y-119587636D01*
X172682363Y-119431756D01*
X172682358Y-119431752D01*
X172504025Y-119302187D01*
X172504024Y-119302186D01*
X172504022Y-119302185D01*
X172441096Y-119270122D01*
X172307606Y-119202104D01*
X172307603Y-119202103D01*
X172097952Y-119133985D01*
X171989086Y-119116742D01*
X171880222Y-119099500D01*
X171659778Y-119099500D01*
X171587201Y-119110995D01*
X171442047Y-119133985D01*
X171232396Y-119202103D01*
X171232393Y-119202104D01*
X171035974Y-119302187D01*
X170857641Y-119431752D01*
X170857636Y-119431756D01*
X170807463Y-119481929D01*
X170746140Y-119515413D01*
X170676448Y-119510428D01*
X170620515Y-119468557D01*
X170603601Y-119437580D01*
X170573797Y-119357671D01*
X170573793Y-119357664D01*
X170487547Y-119242455D01*
X170487544Y-119242452D01*
X170372335Y-119156206D01*
X170372328Y-119156202D01*
X170237482Y-119105908D01*
X170237483Y-119105908D01*
X170177883Y-119099501D01*
X170177881Y-119099500D01*
X170177873Y-119099500D01*
X170177864Y-119099500D01*
X168282129Y-119099500D01*
X168282123Y-119099501D01*
X168222516Y-119105908D01*
X168087671Y-119156202D01*
X168087664Y-119156206D01*
X167972455Y-119242452D01*
X167972452Y-119242455D01*
X167886206Y-119357664D01*
X167886202Y-119357671D01*
X167835908Y-119492517D01*
X167829501Y-119552116D01*
X167829500Y-119552135D01*
X165756742Y-119552135D01*
X165636363Y-119431756D01*
X165636358Y-119431752D01*
X165458025Y-119302187D01*
X165458024Y-119302186D01*
X165458022Y-119302185D01*
X165395096Y-119270122D01*
X165261606Y-119202104D01*
X165261603Y-119202103D01*
X165051952Y-119133985D01*
X164943086Y-119116742D01*
X164834222Y-119099500D01*
X164613778Y-119099500D01*
X164541201Y-119110995D01*
X164396047Y-119133985D01*
X164186396Y-119202103D01*
X164186393Y-119202104D01*
X163989974Y-119302187D01*
X163811641Y-119431752D01*
X163811636Y-119431756D01*
X163761463Y-119481929D01*
X163700140Y-119515413D01*
X163630448Y-119510428D01*
X163574515Y-119468557D01*
X163557601Y-119437580D01*
X163527797Y-119357671D01*
X163527793Y-119357664D01*
X163441547Y-119242455D01*
X163441544Y-119242452D01*
X163326335Y-119156206D01*
X163326328Y-119156202D01*
X163191482Y-119105908D01*
X163191483Y-119105908D01*
X163131883Y-119099501D01*
X163131881Y-119099500D01*
X163131873Y-119099500D01*
X163131864Y-119099500D01*
X161236129Y-119099500D01*
X161236123Y-119099501D01*
X161176516Y-119105908D01*
X161041671Y-119156202D01*
X161041664Y-119156206D01*
X160926455Y-119242452D01*
X160926452Y-119242455D01*
X160840206Y-119357664D01*
X160840202Y-119357671D01*
X160789908Y-119492517D01*
X160783501Y-119552116D01*
X160783500Y-119552135D01*
X158710742Y-119552135D01*
X158590363Y-119431756D01*
X158590358Y-119431752D01*
X158412025Y-119302187D01*
X158412024Y-119302186D01*
X158412022Y-119302185D01*
X158349096Y-119270122D01*
X158215606Y-119202104D01*
X158215603Y-119202103D01*
X158005952Y-119133985D01*
X157897086Y-119116742D01*
X157788222Y-119099500D01*
X157567778Y-119099500D01*
X157495201Y-119110995D01*
X157350047Y-119133985D01*
X157140396Y-119202103D01*
X157140393Y-119202104D01*
X156943974Y-119302187D01*
X156765641Y-119431752D01*
X156765636Y-119431756D01*
X156715463Y-119481929D01*
X156654140Y-119515413D01*
X156584448Y-119510428D01*
X156528515Y-119468557D01*
X156511601Y-119437580D01*
X156481797Y-119357671D01*
X156481793Y-119357664D01*
X156395547Y-119242455D01*
X156395544Y-119242452D01*
X156280335Y-119156206D01*
X156280328Y-119156202D01*
X156145482Y-119105908D01*
X156145483Y-119105908D01*
X156085883Y-119099501D01*
X156085881Y-119099500D01*
X156085873Y-119099500D01*
X156085864Y-119099500D01*
X154190129Y-119099500D01*
X154190123Y-119099501D01*
X154130516Y-119105908D01*
X153995671Y-119156202D01*
X153995664Y-119156206D01*
X153880455Y-119242452D01*
X153880452Y-119242455D01*
X153794206Y-119357664D01*
X153794202Y-119357671D01*
X153743908Y-119492517D01*
X153737501Y-119552116D01*
X153737500Y-119552135D01*
X151664742Y-119552135D01*
X151544363Y-119431756D01*
X151544358Y-119431752D01*
X151366025Y-119302187D01*
X151366024Y-119302186D01*
X151366022Y-119302185D01*
X151303096Y-119270122D01*
X151169606Y-119202104D01*
X151169603Y-119202103D01*
X150959952Y-119133985D01*
X150851086Y-119116742D01*
X150742222Y-119099500D01*
X150521778Y-119099500D01*
X150449201Y-119110995D01*
X150304047Y-119133985D01*
X150094396Y-119202103D01*
X150094393Y-119202104D01*
X149897974Y-119302187D01*
X149719641Y-119431752D01*
X149719636Y-119431756D01*
X149669463Y-119481929D01*
X149608140Y-119515413D01*
X149538448Y-119510428D01*
X149482515Y-119468557D01*
X149465601Y-119437580D01*
X149435797Y-119357671D01*
X149435793Y-119357664D01*
X149349547Y-119242455D01*
X149349544Y-119242452D01*
X149234335Y-119156206D01*
X149234328Y-119156202D01*
X149099482Y-119105908D01*
X149099483Y-119105908D01*
X149039883Y-119099501D01*
X149039881Y-119099500D01*
X149039873Y-119099500D01*
X149039864Y-119099500D01*
X147144129Y-119099500D01*
X147144123Y-119099501D01*
X147084516Y-119105908D01*
X146949671Y-119156202D01*
X146949664Y-119156206D01*
X146834455Y-119242452D01*
X146834452Y-119242455D01*
X146748206Y-119357664D01*
X146748202Y-119357671D01*
X146697908Y-119492517D01*
X146691501Y-119552116D01*
X146691500Y-119552135D01*
X144618742Y-119552135D01*
X144498363Y-119431756D01*
X144498358Y-119431752D01*
X144320025Y-119302187D01*
X144320024Y-119302186D01*
X144320022Y-119302185D01*
X144257096Y-119270122D01*
X144123606Y-119202104D01*
X144123603Y-119202103D01*
X143913952Y-119133985D01*
X143805086Y-119116742D01*
X143696222Y-119099500D01*
X143475778Y-119099500D01*
X143403201Y-119110995D01*
X143258047Y-119133985D01*
X143048396Y-119202103D01*
X143048393Y-119202104D01*
X142851974Y-119302187D01*
X142673641Y-119431752D01*
X142673636Y-119431756D01*
X142623463Y-119481929D01*
X142562140Y-119515413D01*
X142492448Y-119510428D01*
X142436515Y-119468557D01*
X142419601Y-119437580D01*
X142389797Y-119357671D01*
X142389793Y-119357664D01*
X142303547Y-119242455D01*
X142303544Y-119242452D01*
X142188335Y-119156206D01*
X142188328Y-119156202D01*
X142053482Y-119105908D01*
X142053483Y-119105908D01*
X141993883Y-119099501D01*
X141993881Y-119099500D01*
X141993873Y-119099500D01*
X141993864Y-119099500D01*
X140098129Y-119099500D01*
X140098123Y-119099501D01*
X140038516Y-119105908D01*
X139903671Y-119156202D01*
X139903664Y-119156206D01*
X139788455Y-119242452D01*
X139788452Y-119242455D01*
X139702206Y-119357664D01*
X139702202Y-119357671D01*
X139651908Y-119492517D01*
X139645501Y-119552116D01*
X139645500Y-119552135D01*
X137572742Y-119552135D01*
X137452363Y-119431756D01*
X137452358Y-119431752D01*
X137274025Y-119302187D01*
X137274024Y-119302186D01*
X137274022Y-119302185D01*
X137211096Y-119270122D01*
X137077606Y-119202104D01*
X137077603Y-119202103D01*
X136867952Y-119133985D01*
X136759086Y-119116742D01*
X136650222Y-119099500D01*
X136429778Y-119099500D01*
X136357201Y-119110995D01*
X136212047Y-119133985D01*
X136002396Y-119202103D01*
X136002393Y-119202104D01*
X135805974Y-119302187D01*
X135627641Y-119431752D01*
X135627636Y-119431756D01*
X135577463Y-119481929D01*
X135516140Y-119515413D01*
X135446448Y-119510428D01*
X135390515Y-119468557D01*
X135373601Y-119437580D01*
X135343797Y-119357671D01*
X135343793Y-119357664D01*
X135257547Y-119242455D01*
X135257544Y-119242452D01*
X135142335Y-119156206D01*
X135142328Y-119156202D01*
X135007482Y-119105908D01*
X135007483Y-119105908D01*
X134947883Y-119099501D01*
X134947881Y-119099500D01*
X134947873Y-119099500D01*
X134947864Y-119099500D01*
X133052129Y-119099500D01*
X133052123Y-119099501D01*
X132992516Y-119105908D01*
X132857671Y-119156202D01*
X132857664Y-119156206D01*
X132742455Y-119242452D01*
X132742452Y-119242455D01*
X132656206Y-119357664D01*
X132656202Y-119357671D01*
X132605908Y-119492517D01*
X132599501Y-119552116D01*
X132599500Y-119552135D01*
X129868453Y-119552135D01*
X129865918Y-119547159D01*
X129857890Y-119536109D01*
X129740976Y-119375188D01*
X129627436Y-119261648D01*
X129593951Y-119200325D01*
X129598935Y-119130633D01*
X129640807Y-119074700D01*
X129671782Y-119057785D01*
X129803198Y-119008771D01*
X129918413Y-118922521D01*
X130004663Y-118807306D01*
X130054958Y-118672458D01*
X130061367Y-118612848D01*
X130061366Y-116817103D01*
X130054958Y-116757492D01*
X130029740Y-116689880D01*
X130004664Y-116622646D01*
X130004660Y-116622639D01*
X129918414Y-116507430D01*
X129918411Y-116507427D01*
X129803202Y-116421181D01*
X129803195Y-116421177D01*
X129668349Y-116370883D01*
X129668350Y-116370883D01*
X129608750Y-116364476D01*
X129608748Y-116364475D01*
X129608740Y-116364475D01*
X129608731Y-116364475D01*
X127812996Y-116364475D01*
X127812990Y-116364476D01*
X127753383Y-116370883D01*
X127618538Y-116421177D01*
X127618531Y-116421181D01*
X127503322Y-116507427D01*
X127503319Y-116507430D01*
X127417073Y-116622639D01*
X127417069Y-116622646D01*
X127366775Y-116757492D01*
X127360368Y-116817091D01*
X127360368Y-116817098D01*
X127360367Y-116817110D01*
X126654500Y-116817110D01*
X126654500Y-114897648D01*
X144079500Y-114897648D01*
X144079500Y-115102351D01*
X144111522Y-115304534D01*
X144174781Y-115499223D01*
X144267715Y-115681613D01*
X144388028Y-115847213D01*
X144532786Y-115991971D01*
X144626122Y-116059782D01*
X144698390Y-116112287D01*
X144786517Y-116157190D01*
X144880776Y-116205218D01*
X144880778Y-116205218D01*
X144880781Y-116205220D01*
X144985137Y-116239127D01*
X145075465Y-116268477D01*
X145176557Y-116284488D01*
X145277648Y-116300500D01*
X145277649Y-116300500D01*
X145482351Y-116300500D01*
X145482352Y-116300500D01*
X145684534Y-116268477D01*
X145879219Y-116205220D01*
X146061610Y-116112287D01*
X146158234Y-116042086D01*
X146227213Y-115991971D01*
X146227215Y-115991968D01*
X146227219Y-115991966D01*
X146371966Y-115847219D01*
X146371968Y-115847215D01*
X146371971Y-115847213D01*
X146492284Y-115681614D01*
X146492285Y-115681613D01*
X146492287Y-115681610D01*
X146539516Y-115588917D01*
X146587489Y-115538123D01*
X146655310Y-115521328D01*
X146721445Y-115543865D01*
X146760485Y-115588919D01*
X146807715Y-115681614D01*
X146928028Y-115847213D01*
X147072786Y-115991971D01*
X147166122Y-116059782D01*
X147238390Y-116112287D01*
X147326517Y-116157190D01*
X147420776Y-116205218D01*
X147420778Y-116205218D01*
X147420781Y-116205220D01*
X147525137Y-116239127D01*
X147615465Y-116268477D01*
X147716557Y-116284488D01*
X147817648Y-116300500D01*
X147817649Y-116300500D01*
X148022351Y-116300500D01*
X148022352Y-116300500D01*
X148224534Y-116268477D01*
X148419219Y-116205220D01*
X148601610Y-116112287D01*
X148698234Y-116042086D01*
X148767213Y-115991971D01*
X148767215Y-115991968D01*
X148767219Y-115991966D01*
X148911966Y-115847219D01*
X148911968Y-115847215D01*
X148911971Y-115847213D01*
X149032284Y-115681614D01*
X149032285Y-115681613D01*
X149032287Y-115681610D01*
X149079516Y-115588917D01*
X149127489Y-115538123D01*
X149195310Y-115521328D01*
X149261445Y-115543865D01*
X149300485Y-115588919D01*
X149347715Y-115681614D01*
X149468028Y-115847213D01*
X149612786Y-115991971D01*
X149706122Y-116059782D01*
X149778390Y-116112287D01*
X149866517Y-116157190D01*
X149960776Y-116205218D01*
X149960778Y-116205218D01*
X149960781Y-116205220D01*
X150065137Y-116239127D01*
X150155465Y-116268477D01*
X150256557Y-116284488D01*
X150357648Y-116300500D01*
X150357649Y-116300500D01*
X150562351Y-116300500D01*
X150562352Y-116300500D01*
X150764534Y-116268477D01*
X150959219Y-116205220D01*
X151141610Y-116112287D01*
X151238234Y-116042086D01*
X151307213Y-115991971D01*
X151307215Y-115991968D01*
X151307219Y-115991966D01*
X151451966Y-115847219D01*
X151451968Y-115847215D01*
X151451971Y-115847213D01*
X151572284Y-115681614D01*
X151572285Y-115681613D01*
X151572287Y-115681610D01*
X151619516Y-115588917D01*
X151667489Y-115538123D01*
X151735310Y-115521328D01*
X151801445Y-115543865D01*
X151840485Y-115588919D01*
X151887715Y-115681614D01*
X152008028Y-115847213D01*
X152152786Y-115991971D01*
X152246122Y-116059782D01*
X152318390Y-116112287D01*
X152406517Y-116157190D01*
X152500776Y-116205218D01*
X152500778Y-116205218D01*
X152500781Y-116205220D01*
X152605137Y-116239127D01*
X152695465Y-116268477D01*
X152796557Y-116284488D01*
X152897648Y-116300500D01*
X152897649Y-116300500D01*
X153102351Y-116300500D01*
X153102352Y-116300500D01*
X153304534Y-116268477D01*
X153499219Y-116205220D01*
X153681610Y-116112287D01*
X153778234Y-116042086D01*
X153847213Y-115991971D01*
X153847215Y-115991968D01*
X153847219Y-115991966D01*
X153991966Y-115847219D01*
X153991968Y-115847215D01*
X153991971Y-115847213D01*
X154112284Y-115681614D01*
X154112285Y-115681613D01*
X154112287Y-115681610D01*
X154159516Y-115588917D01*
X154207489Y-115538123D01*
X154275310Y-115521328D01*
X154341445Y-115543865D01*
X154380485Y-115588919D01*
X154427715Y-115681614D01*
X154548028Y-115847213D01*
X154692786Y-115991971D01*
X154786122Y-116059782D01*
X154858390Y-116112287D01*
X154946517Y-116157190D01*
X155040776Y-116205218D01*
X155040778Y-116205218D01*
X155040781Y-116205220D01*
X155145137Y-116239127D01*
X155235465Y-116268477D01*
X155336557Y-116284488D01*
X155437648Y-116300500D01*
X155437649Y-116300500D01*
X155642351Y-116300500D01*
X155642352Y-116300500D01*
X155844534Y-116268477D01*
X156039219Y-116205220D01*
X156221610Y-116112287D01*
X156318234Y-116042086D01*
X156387213Y-115991971D01*
X156387215Y-115991968D01*
X156387219Y-115991966D01*
X156531966Y-115847219D01*
X156531968Y-115847215D01*
X156531971Y-115847213D01*
X156652284Y-115681614D01*
X156652285Y-115681613D01*
X156652287Y-115681610D01*
X156699516Y-115588917D01*
X156747489Y-115538123D01*
X156815310Y-115521328D01*
X156881445Y-115543865D01*
X156920485Y-115588919D01*
X156967715Y-115681614D01*
X157088028Y-115847213D01*
X157232786Y-115991971D01*
X157326122Y-116059782D01*
X157398390Y-116112287D01*
X157486517Y-116157190D01*
X157580776Y-116205218D01*
X157580778Y-116205218D01*
X157580781Y-116205220D01*
X157685137Y-116239127D01*
X157775465Y-116268477D01*
X157876557Y-116284488D01*
X157977648Y-116300500D01*
X157977649Y-116300500D01*
X158182351Y-116300500D01*
X158182352Y-116300500D01*
X158384534Y-116268477D01*
X158579219Y-116205220D01*
X158761610Y-116112287D01*
X158858234Y-116042086D01*
X158927213Y-115991971D01*
X158927215Y-115991968D01*
X158927219Y-115991966D01*
X159071966Y-115847219D01*
X159098770Y-115810325D01*
X159154099Y-115767660D01*
X159223712Y-115761679D01*
X159285508Y-115794284D01*
X159319866Y-115855122D01*
X159322378Y-115869953D01*
X159326401Y-115907373D01*
X159326403Y-115907379D01*
X159376645Y-116042086D01*
X159376649Y-116042093D01*
X159462809Y-116157187D01*
X159462812Y-116157190D01*
X159577906Y-116243350D01*
X159577913Y-116243354D01*
X159712620Y-116293596D01*
X159712627Y-116293598D01*
X159772155Y-116299999D01*
X159772172Y-116300000D01*
X160370000Y-116300000D01*
X160370000Y-115315686D01*
X160374394Y-115320080D01*
X160465606Y-115372741D01*
X160567339Y-115400000D01*
X160672661Y-115400000D01*
X160774394Y-115372741D01*
X160865606Y-115320080D01*
X160870000Y-115315686D01*
X160870000Y-116300000D01*
X161467828Y-116300000D01*
X161467844Y-116299999D01*
X161527372Y-116293598D01*
X161527379Y-116293596D01*
X161662086Y-116243354D01*
X161662093Y-116243350D01*
X161777187Y-116157190D01*
X161777190Y-116157187D01*
X161863350Y-116042093D01*
X161863354Y-116042086D01*
X161913596Y-115907379D01*
X161913598Y-115907372D01*
X161919999Y-115847844D01*
X161920000Y-115847827D01*
X161920000Y-115250000D01*
X160935686Y-115250000D01*
X160940080Y-115245606D01*
X160992741Y-115154394D01*
X161020000Y-115052661D01*
X161020000Y-114947339D01*
X160992741Y-114845606D01*
X160940080Y-114754394D01*
X160935686Y-114750000D01*
X161920000Y-114750000D01*
X161920000Y-114152172D01*
X161919999Y-114152155D01*
X161913598Y-114092627D01*
X161913596Y-114092620D01*
X161863354Y-113957913D01*
X161863350Y-113957906D01*
X161777190Y-113842812D01*
X161777187Y-113842809D01*
X161662093Y-113756649D01*
X161662086Y-113756645D01*
X161527379Y-113706403D01*
X161527372Y-113706401D01*
X161467844Y-113700000D01*
X160870000Y-113700000D01*
X160870000Y-114684314D01*
X160865606Y-114679920D01*
X160774394Y-114627259D01*
X160672661Y-114600000D01*
X160567339Y-114600000D01*
X160465606Y-114627259D01*
X160374394Y-114679920D01*
X160370000Y-114684314D01*
X160370000Y-113700000D01*
X159772155Y-113700000D01*
X159712627Y-113706401D01*
X159712620Y-113706403D01*
X159577913Y-113756645D01*
X159577906Y-113756649D01*
X159462812Y-113842809D01*
X159462809Y-113842812D01*
X159376649Y-113957906D01*
X159376645Y-113957913D01*
X159326403Y-114092620D01*
X159326401Y-114092626D01*
X159322378Y-114130046D01*
X159295639Y-114194597D01*
X159238246Y-114234444D01*
X159168421Y-114236937D01*
X159108333Y-114201283D01*
X159098770Y-114189674D01*
X159071966Y-114152781D01*
X158927219Y-114008034D01*
X158927213Y-114008028D01*
X158761613Y-113887715D01*
X158761612Y-113887714D01*
X158761610Y-113887713D01*
X158704653Y-113858691D01*
X158579223Y-113794781D01*
X158384534Y-113731522D01*
X158209995Y-113703878D01*
X158182352Y-113699500D01*
X157977648Y-113699500D01*
X157953329Y-113703351D01*
X157775465Y-113731522D01*
X157580776Y-113794781D01*
X157398386Y-113887715D01*
X157232786Y-114008028D01*
X157088028Y-114152786D01*
X156967715Y-114318386D01*
X156920485Y-114411080D01*
X156872510Y-114461876D01*
X156804689Y-114478671D01*
X156738554Y-114456134D01*
X156699515Y-114411080D01*
X156698883Y-114409840D01*
X156652287Y-114318390D01*
X156639075Y-114300205D01*
X156531971Y-114152786D01*
X156387213Y-114008028D01*
X156221613Y-113887715D01*
X156221612Y-113887714D01*
X156221610Y-113887713D01*
X156164653Y-113858691D01*
X156039223Y-113794781D01*
X155844534Y-113731522D01*
X155669995Y-113703878D01*
X155642352Y-113699500D01*
X155437648Y-113699500D01*
X155413329Y-113703351D01*
X155235465Y-113731522D01*
X155040776Y-113794781D01*
X154858386Y-113887715D01*
X154692786Y-114008028D01*
X154548028Y-114152786D01*
X154427715Y-114318386D01*
X154380485Y-114411080D01*
X154332510Y-114461876D01*
X154264689Y-114478671D01*
X154198554Y-114456134D01*
X154159515Y-114411080D01*
X154158883Y-114409840D01*
X154112287Y-114318390D01*
X154099075Y-114300205D01*
X153991971Y-114152786D01*
X153847213Y-114008028D01*
X153681613Y-113887715D01*
X153681612Y-113887714D01*
X153681610Y-113887713D01*
X153624653Y-113858691D01*
X153499223Y-113794781D01*
X153304534Y-113731522D01*
X153129995Y-113703878D01*
X153102352Y-113699500D01*
X152897648Y-113699500D01*
X152873329Y-113703351D01*
X152695465Y-113731522D01*
X152500776Y-113794781D01*
X152318386Y-113887715D01*
X152152786Y-114008028D01*
X152008028Y-114152786D01*
X151887715Y-114318386D01*
X151840485Y-114411080D01*
X151792510Y-114461876D01*
X151724689Y-114478671D01*
X151658554Y-114456134D01*
X151619515Y-114411080D01*
X151618883Y-114409840D01*
X151572287Y-114318390D01*
X151559075Y-114300205D01*
X151451971Y-114152786D01*
X151307213Y-114008028D01*
X151141613Y-113887715D01*
X151141612Y-113887714D01*
X151141610Y-113887713D01*
X151084653Y-113858691D01*
X150959223Y-113794781D01*
X150764534Y-113731522D01*
X150589995Y-113703878D01*
X150562352Y-113699500D01*
X150357648Y-113699500D01*
X150333329Y-113703351D01*
X150155465Y-113731522D01*
X149960776Y-113794781D01*
X149778386Y-113887715D01*
X149612786Y-114008028D01*
X149468028Y-114152786D01*
X149347715Y-114318386D01*
X149300485Y-114411080D01*
X149252510Y-114461876D01*
X149184689Y-114478671D01*
X149118554Y-114456134D01*
X149079515Y-114411080D01*
X149078883Y-114409840D01*
X149032287Y-114318390D01*
X149019075Y-114300205D01*
X148911971Y-114152786D01*
X148767213Y-114008028D01*
X148601613Y-113887715D01*
X148601612Y-113887714D01*
X148601610Y-113887713D01*
X148544653Y-113858691D01*
X148419223Y-113794781D01*
X148224534Y-113731522D01*
X148049995Y-113703878D01*
X148022352Y-113699500D01*
X147817648Y-113699500D01*
X147793329Y-113703351D01*
X147615465Y-113731522D01*
X147420776Y-113794781D01*
X147238386Y-113887715D01*
X147072786Y-114008028D01*
X146928028Y-114152786D01*
X146807715Y-114318386D01*
X146760485Y-114411080D01*
X146712510Y-114461876D01*
X146644689Y-114478671D01*
X146578554Y-114456134D01*
X146539515Y-114411080D01*
X146538883Y-114409840D01*
X146492287Y-114318390D01*
X146479075Y-114300205D01*
X146371971Y-114152786D01*
X146227213Y-114008028D01*
X146061613Y-113887715D01*
X146061612Y-113887714D01*
X146061610Y-113887713D01*
X146004653Y-113858691D01*
X145879223Y-113794781D01*
X145684534Y-113731522D01*
X145509995Y-113703878D01*
X145482352Y-113699500D01*
X145277648Y-113699500D01*
X145253329Y-113703351D01*
X145075465Y-113731522D01*
X144880776Y-113794781D01*
X144698386Y-113887715D01*
X144532786Y-114008028D01*
X144388028Y-114152786D01*
X144267715Y-114318386D01*
X144174781Y-114500776D01*
X144111522Y-114695465D01*
X144079500Y-114897648D01*
X126654500Y-114897648D01*
X126654500Y-93973580D01*
X127341244Y-93973580D01*
X127341244Y-95769315D01*
X127341245Y-95769321D01*
X127347652Y-95828928D01*
X127397946Y-95963773D01*
X127397950Y-95963780D01*
X127484196Y-96078989D01*
X127484199Y-96078992D01*
X127599408Y-96165238D01*
X127599415Y-96165242D01*
X127730826Y-96214255D01*
X127786760Y-96256126D01*
X127811177Y-96321590D01*
X127796326Y-96389863D01*
X127775175Y-96418118D01*
X127661633Y-96531660D01*
X127536695Y-96703624D01*
X127440188Y-96893030D01*
X127374497Y-97095205D01*
X127365611Y-97151312D01*
X127341244Y-97305158D01*
X127341244Y-97517732D01*
X127374498Y-97727688D01*
X127395422Y-97792086D01*
X127440188Y-97929859D01*
X127536695Y-98119265D01*
X127661634Y-98291231D01*
X127811957Y-98441554D01*
X127983926Y-98566495D01*
X127992690Y-98570961D01*
X128043486Y-98618936D01*
X128060280Y-98686757D01*
X128037742Y-98752892D01*
X127992690Y-98791929D01*
X127983926Y-98796394D01*
X127811957Y-98921335D01*
X127661634Y-99071658D01*
X127536695Y-99243624D01*
X127440188Y-99433030D01*
X127374497Y-99635205D01*
X127341244Y-99845158D01*
X127341244Y-100057731D01*
X127374497Y-100267684D01*
X127440188Y-100469859D01*
X127536695Y-100659265D01*
X127661634Y-100831231D01*
X127811957Y-100981554D01*
X127983926Y-101106495D01*
X127992690Y-101110961D01*
X128043486Y-101158936D01*
X128060280Y-101226757D01*
X128037742Y-101292892D01*
X127992690Y-101331929D01*
X127983926Y-101336394D01*
X127811957Y-101461335D01*
X127661634Y-101611658D01*
X127536695Y-101783624D01*
X127440188Y-101973030D01*
X127374497Y-102175205D01*
X127348953Y-102336484D01*
X127341244Y-102385158D01*
X127341244Y-102597732D01*
X127374498Y-102807688D01*
X127435983Y-102996919D01*
X127440188Y-103009859D01*
X127536695Y-103199265D01*
X127661634Y-103371231D01*
X127811957Y-103521554D01*
X127983926Y-103646495D01*
X127992690Y-103650961D01*
X128043486Y-103698936D01*
X128060280Y-103766757D01*
X128037742Y-103832892D01*
X127992690Y-103871929D01*
X127983926Y-103876394D01*
X127811957Y-104001335D01*
X127661634Y-104151658D01*
X127536695Y-104323624D01*
X127440188Y-104513030D01*
X127374497Y-104715205D01*
X127341244Y-104925158D01*
X127341244Y-105137731D01*
X127374497Y-105347684D01*
X127440188Y-105549859D01*
X127536695Y-105739265D01*
X127661634Y-105911231D01*
X127811957Y-106061554D01*
X127983923Y-106186493D01*
X127983925Y-106186494D01*
X127983928Y-106186496D01*
X127993237Y-106191239D01*
X128044034Y-106239211D01*
X128060831Y-106307032D01*
X128038296Y-106373167D01*
X127993249Y-106412205D01*
X127984190Y-106416821D01*
X127984184Y-106416825D01*
X127930026Y-106456172D01*
X127930026Y-106456173D01*
X128562335Y-107088482D01*
X128498751Y-107105520D01*
X128384737Y-107171346D01*
X128291645Y-107264438D01*
X128225819Y-107378452D01*
X128208781Y-107442036D01*
X127576472Y-106809727D01*
X127576471Y-106809727D01*
X127537124Y-106863884D01*
X127440648Y-107053227D01*
X127374986Y-107255314D01*
X127374986Y-107255317D01*
X127341744Y-107465198D01*
X127341744Y-107677691D01*
X127374986Y-107887572D01*
X127374986Y-107887575D01*
X127440648Y-108089662D01*
X127537119Y-108278995D01*
X127576472Y-108333161D01*
X128208781Y-107700853D01*
X128225819Y-107764438D01*
X128291645Y-107878452D01*
X128384737Y-107971544D01*
X128498751Y-108037370D01*
X128562335Y-108054407D01*
X127961715Y-108655026D01*
X128040455Y-108772340D01*
X128041664Y-108776174D01*
X128044588Y-108778936D01*
X128052087Y-108809223D01*
X128061471Y-108838974D01*
X128060415Y-108842853D01*
X128061382Y-108846757D01*
X128051317Y-108876289D01*
X128043127Y-108906392D01*
X128040141Y-108909085D01*
X128038844Y-108912892D01*
X127993795Y-108951928D01*
X127984184Y-108956825D01*
X127930026Y-108996172D01*
X127930026Y-108996173D01*
X128562335Y-109628482D01*
X128498751Y-109645520D01*
X128384737Y-109711346D01*
X128291645Y-109804438D01*
X128225819Y-109918452D01*
X128208781Y-109982036D01*
X127576472Y-109349727D01*
X127576471Y-109349727D01*
X127537124Y-109403884D01*
X127440648Y-109593227D01*
X127374986Y-109795314D01*
X127374986Y-109795317D01*
X127341744Y-110005198D01*
X127341744Y-110217691D01*
X127374986Y-110427572D01*
X127374986Y-110427575D01*
X127440648Y-110629662D01*
X127537119Y-110818995D01*
X127576472Y-110873161D01*
X128208781Y-110240853D01*
X128225819Y-110304438D01*
X128291645Y-110418452D01*
X128384737Y-110511544D01*
X128498751Y-110577370D01*
X128562334Y-110594407D01*
X127930026Y-111226714D01*
X127930026Y-111226715D01*
X127984196Y-111266071D01*
X127984195Y-111266071D01*
X127993239Y-111270679D01*
X128044036Y-111318653D01*
X128060831Y-111386474D01*
X128038294Y-111452609D01*
X127993243Y-111491647D01*
X127983926Y-111496394D01*
X127811957Y-111621335D01*
X127661634Y-111771658D01*
X127536695Y-111943624D01*
X127440188Y-112133030D01*
X127374497Y-112335205D01*
X127341244Y-112545158D01*
X127341244Y-112757731D01*
X127374497Y-112967684D01*
X127440188Y-113169859D01*
X127536695Y-113359265D01*
X127661634Y-113531231D01*
X127811957Y-113681554D01*
X127983923Y-113806493D01*
X127983925Y-113806494D01*
X127983928Y-113806496D01*
X128173332Y-113903002D01*
X128375501Y-113968691D01*
X128585457Y-114001945D01*
X128585458Y-114001945D01*
X128798030Y-114001945D01*
X128798031Y-114001945D01*
X129007987Y-113968691D01*
X129210156Y-113903002D01*
X129399560Y-113806496D01*
X129468169Y-113756649D01*
X129571530Y-113681554D01*
X129571532Y-113681551D01*
X129571536Y-113681549D01*
X129721848Y-113531237D01*
X129721850Y-113531233D01*
X129721853Y-113531231D01*
X129846792Y-113359265D01*
X129846791Y-113359265D01*
X129846795Y-113359261D01*
X129943301Y-113169857D01*
X130008990Y-112967688D01*
X130042244Y-112757732D01*
X130042244Y-112545158D01*
X130008990Y-112335202D01*
X129943301Y-112133033D01*
X129846795Y-111943629D01*
X129750930Y-111811681D01*
X129750929Y-111811678D01*
X129721853Y-111771659D01*
X129721849Y-111771654D01*
X129692320Y-111742125D01*
X175603490Y-111742125D01*
X175603490Y-113537860D01*
X175603491Y-113537866D01*
X175609898Y-113597473D01*
X175660192Y-113732318D01*
X175660196Y-113732325D01*
X175746442Y-113847534D01*
X175746445Y-113847537D01*
X175861654Y-113933783D01*
X175861661Y-113933787D01*
X175993072Y-113982800D01*
X176049006Y-114024671D01*
X176073423Y-114090135D01*
X176058572Y-114158408D01*
X176037421Y-114186663D01*
X175923879Y-114300205D01*
X175798941Y-114472169D01*
X175702434Y-114661575D01*
X175636743Y-114863750D01*
X175623504Y-114947339D01*
X175603490Y-115073703D01*
X175603490Y-115286277D01*
X175636744Y-115496233D01*
X175696978Y-115681614D01*
X175702434Y-115698404D01*
X175798941Y-115887810D01*
X175923880Y-116059776D01*
X176074203Y-116210099D01*
X176246172Y-116335040D01*
X176254936Y-116339506D01*
X176305732Y-116387481D01*
X176322526Y-116455302D01*
X176299988Y-116521437D01*
X176254936Y-116560474D01*
X176246172Y-116564939D01*
X176074203Y-116689880D01*
X175923880Y-116840203D01*
X175798941Y-117012169D01*
X175702434Y-117201575D01*
X175636743Y-117403750D01*
X175603490Y-117613703D01*
X175603490Y-117826276D01*
X175636743Y-118036229D01*
X175702434Y-118238404D01*
X175798941Y-118427810D01*
X175923880Y-118599776D01*
X176074203Y-118750099D01*
X176246172Y-118875040D01*
X176254936Y-118879506D01*
X176305732Y-118927481D01*
X176322526Y-118995302D01*
X176299988Y-119061437D01*
X176254936Y-119100474D01*
X176246172Y-119104939D01*
X176074203Y-119229880D01*
X175923880Y-119380203D01*
X175798941Y-119552169D01*
X175702434Y-119741575D01*
X175636743Y-119943750D01*
X175603490Y-120153703D01*
X175603490Y-120366276D01*
X175635949Y-120571218D01*
X175636744Y-120576233D01*
X175700804Y-120773389D01*
X175702434Y-120778404D01*
X175798941Y-120967810D01*
X175923880Y-121139776D01*
X176074203Y-121290099D01*
X176246172Y-121415040D01*
X176254936Y-121419506D01*
X176305732Y-121467481D01*
X176322526Y-121535302D01*
X176299988Y-121601437D01*
X176254936Y-121640474D01*
X176246172Y-121644939D01*
X176074203Y-121769880D01*
X175923880Y-121920203D01*
X175798941Y-122092169D01*
X175702434Y-122281575D01*
X175636743Y-122483750D01*
X175603490Y-122693703D01*
X175603490Y-122906276D01*
X175635949Y-123111218D01*
X175636744Y-123116233D01*
X175700804Y-123313389D01*
X175702434Y-123318404D01*
X175798941Y-123507810D01*
X175923880Y-123679776D01*
X176074203Y-123830099D01*
X176246172Y-123955040D01*
X176254936Y-123959506D01*
X176305732Y-124007481D01*
X176322526Y-124075302D01*
X176299988Y-124141437D01*
X176254936Y-124180474D01*
X176246172Y-124184939D01*
X176074203Y-124309880D01*
X175923880Y-124460203D01*
X175798941Y-124632169D01*
X175702434Y-124821575D01*
X175636743Y-125023750D01*
X175603490Y-125233703D01*
X175603490Y-125446276D01*
X175635949Y-125651218D01*
X175636744Y-125656233D01*
X175700804Y-125853389D01*
X175702434Y-125858404D01*
X175798941Y-126047810D01*
X175923880Y-126219776D01*
X176074203Y-126370099D01*
X176246172Y-126495040D01*
X176254936Y-126499506D01*
X176305732Y-126547481D01*
X176322526Y-126615302D01*
X176299988Y-126681437D01*
X176254936Y-126720474D01*
X176246172Y-126724939D01*
X176074203Y-126849880D01*
X175923880Y-127000203D01*
X175798941Y-127172169D01*
X175702434Y-127361575D01*
X175636743Y-127563750D01*
X175603490Y-127773703D01*
X175603490Y-127986276D01*
X175635949Y-128191218D01*
X175636744Y-128196233D01*
X175700804Y-128393389D01*
X175702434Y-128398404D01*
X175798941Y-128587810D01*
X175923880Y-128759776D01*
X176074203Y-128910099D01*
X176246172Y-129035040D01*
X176254936Y-129039506D01*
X176305732Y-129087481D01*
X176322526Y-129155302D01*
X176299988Y-129221437D01*
X176254936Y-129260474D01*
X176246172Y-129264939D01*
X176074203Y-129389880D01*
X175923880Y-129540203D01*
X175798941Y-129712169D01*
X175702434Y-129901575D01*
X175636743Y-130103750D01*
X175603490Y-130313703D01*
X175603490Y-130526276D01*
X175635949Y-130731218D01*
X175636744Y-130736233D01*
X175700804Y-130933389D01*
X175702434Y-130938404D01*
X175798941Y-131127810D01*
X175923880Y-131299776D01*
X176074203Y-131450099D01*
X176246169Y-131575038D01*
X176246171Y-131575039D01*
X176246174Y-131575041D01*
X176435578Y-131671547D01*
X176637747Y-131737236D01*
X176847703Y-131770490D01*
X176847704Y-131770490D01*
X177060276Y-131770490D01*
X177060277Y-131770490D01*
X177270233Y-131737236D01*
X177472402Y-131671547D01*
X177661806Y-131575041D01*
X177683779Y-131559076D01*
X177833776Y-131450099D01*
X177833778Y-131450096D01*
X177833782Y-131450094D01*
X177984094Y-131299782D01*
X177984096Y-131299778D01*
X177984099Y-131299776D01*
X178109038Y-131127810D01*
X178109037Y-131127810D01*
X178109041Y-131127806D01*
X178205547Y-130938402D01*
X178271236Y-130736233D01*
X178304490Y-130526277D01*
X178304490Y-130313703D01*
X178271236Y-130103747D01*
X178205547Y-129901578D01*
X178109041Y-129712174D01*
X178109039Y-129712171D01*
X178109038Y-129712169D01*
X177984099Y-129540203D01*
X177833776Y-129389880D01*
X177661810Y-129264941D01*
X177661105Y-129264581D01*
X177653044Y-129260475D01*
X177602249Y-129212502D01*
X177585453Y-129144682D01*
X177607989Y-129078546D01*
X177653044Y-129039505D01*
X177661806Y-129035041D01*
X177683779Y-129019076D01*
X177833776Y-128910099D01*
X177833778Y-128910096D01*
X177833782Y-128910094D01*
X177984094Y-128759782D01*
X177984096Y-128759778D01*
X177984099Y-128759776D01*
X178109038Y-128587810D01*
X178109037Y-128587810D01*
X178109041Y-128587806D01*
X178205547Y-128398402D01*
X178271236Y-128196233D01*
X178304490Y-127986277D01*
X178304490Y-127773703D01*
X178271236Y-127563747D01*
X178205547Y-127361578D01*
X178109041Y-127172174D01*
X178109039Y-127172171D01*
X178109038Y-127172169D01*
X177984099Y-127000203D01*
X177833776Y-126849880D01*
X177661810Y-126724941D01*
X177661105Y-126724581D01*
X177653044Y-126720475D01*
X177602249Y-126672502D01*
X177585453Y-126604682D01*
X177607989Y-126538546D01*
X177653044Y-126499505D01*
X177661806Y-126495041D01*
X177683779Y-126479076D01*
X177833776Y-126370099D01*
X177833778Y-126370096D01*
X177833782Y-126370094D01*
X177984094Y-126219782D01*
X177984096Y-126219778D01*
X177984099Y-126219776D01*
X178109038Y-126047810D01*
X178109037Y-126047810D01*
X178109041Y-126047806D01*
X178205547Y-125858402D01*
X178271236Y-125656233D01*
X178304490Y-125446277D01*
X178304490Y-125233703D01*
X178271236Y-125023747D01*
X178205547Y-124821578D01*
X178109041Y-124632174D01*
X178109039Y-124632171D01*
X178109038Y-124632169D01*
X177984099Y-124460203D01*
X177833776Y-124309880D01*
X177661810Y-124184941D01*
X177661105Y-124184581D01*
X177653044Y-124180475D01*
X177602249Y-124132502D01*
X177585453Y-124064682D01*
X177607989Y-123998546D01*
X177653044Y-123959505D01*
X177661806Y-123955041D01*
X177683779Y-123939076D01*
X177833776Y-123830099D01*
X177833778Y-123830096D01*
X177833782Y-123830094D01*
X177984094Y-123679782D01*
X177984096Y-123679778D01*
X177984099Y-123679776D01*
X178109038Y-123507810D01*
X178109037Y-123507810D01*
X178109041Y-123507806D01*
X178205547Y-123318402D01*
X178271236Y-123116233D01*
X178304490Y-122906277D01*
X178304490Y-122693703D01*
X178271236Y-122483747D01*
X178205547Y-122281578D01*
X178109041Y-122092174D01*
X178109039Y-122092171D01*
X178109038Y-122092169D01*
X177984099Y-121920203D01*
X177833776Y-121769880D01*
X177661810Y-121644941D01*
X177656695Y-121642335D01*
X177653044Y-121640475D01*
X177602249Y-121592502D01*
X177585453Y-121524682D01*
X177607989Y-121458546D01*
X177653044Y-121419505D01*
X177661806Y-121415041D01*
X177683779Y-121399076D01*
X177833776Y-121290099D01*
X177833778Y-121290096D01*
X177833782Y-121290094D01*
X177984094Y-121139782D01*
X177984096Y-121139778D01*
X177984099Y-121139776D01*
X178109038Y-120967810D01*
X178109037Y-120967810D01*
X178109041Y-120967806D01*
X178205547Y-120778402D01*
X178271236Y-120576233D01*
X178304490Y-120366277D01*
X178304490Y-120153703D01*
X178271236Y-119943747D01*
X178205547Y-119741578D01*
X178109041Y-119552174D01*
X178109039Y-119552171D01*
X178109038Y-119552169D01*
X177984099Y-119380203D01*
X177833776Y-119229880D01*
X177661810Y-119104941D01*
X177661105Y-119104581D01*
X177653044Y-119100475D01*
X177602249Y-119052502D01*
X177585453Y-118984682D01*
X177607989Y-118918546D01*
X177653044Y-118879505D01*
X177661806Y-118875041D01*
X177683779Y-118859076D01*
X177833776Y-118750099D01*
X177833778Y-118750096D01*
X177833782Y-118750094D01*
X177984094Y-118599782D01*
X177984096Y-118599778D01*
X177984099Y-118599776D01*
X178109038Y-118427810D01*
X178109037Y-118427810D01*
X178109041Y-118427806D01*
X178205547Y-118238402D01*
X178271236Y-118036233D01*
X178304490Y-117826277D01*
X178304490Y-117613703D01*
X178271236Y-117403747D01*
X178205547Y-117201578D01*
X178109041Y-117012174D01*
X178109039Y-117012171D01*
X178109038Y-117012169D01*
X177984099Y-116840203D01*
X177833776Y-116689880D01*
X177661810Y-116564941D01*
X177661105Y-116564581D01*
X177653044Y-116560475D01*
X177602249Y-116512502D01*
X177585453Y-116444682D01*
X177607989Y-116378546D01*
X177653044Y-116339505D01*
X177661806Y-116335041D01*
X177718851Y-116293596D01*
X177833776Y-116210099D01*
X177833778Y-116210096D01*
X177833782Y-116210094D01*
X177984094Y-116059782D01*
X177984096Y-116059778D01*
X177984099Y-116059776D01*
X178109038Y-115887810D01*
X178109037Y-115887810D01*
X178109041Y-115887806D01*
X178205547Y-115698402D01*
X178271236Y-115496233D01*
X178304490Y-115286277D01*
X178304490Y-115073703D01*
X178271236Y-114863747D01*
X178205547Y-114661578D01*
X178109041Y-114472174D01*
X178109039Y-114472171D01*
X178109038Y-114472169D01*
X177984099Y-114300203D01*
X177870559Y-114186663D01*
X177837074Y-114125340D01*
X177842058Y-114055648D01*
X177883930Y-113999715D01*
X177914905Y-113982800D01*
X178046321Y-113933786D01*
X178161536Y-113847536D01*
X178247786Y-113732321D01*
X178298081Y-113597473D01*
X178304490Y-113537863D01*
X178304489Y-111742118D01*
X178298081Y-111682507D01*
X178275265Y-111621335D01*
X178247787Y-111547661D01*
X178247783Y-111547654D01*
X178161537Y-111432445D01*
X178161534Y-111432442D01*
X178046325Y-111346196D01*
X178046318Y-111346192D01*
X177911472Y-111295898D01*
X177911473Y-111295898D01*
X177851873Y-111289491D01*
X177851871Y-111289490D01*
X177851863Y-111289490D01*
X177851854Y-111289490D01*
X176056119Y-111289490D01*
X176056113Y-111289491D01*
X175996506Y-111295898D01*
X175861661Y-111346192D01*
X175861654Y-111346196D01*
X175746445Y-111432442D01*
X175746442Y-111432445D01*
X175660196Y-111547654D01*
X175660192Y-111547661D01*
X175609898Y-111682507D01*
X175603491Y-111742106D01*
X175603491Y-111742113D01*
X175603490Y-111742125D01*
X129692320Y-111742125D01*
X129571530Y-111621335D01*
X129399561Y-111496394D01*
X129390248Y-111491649D01*
X129339451Y-111443675D01*
X129322656Y-111375854D01*
X129345193Y-111309719D01*
X129390251Y-111270677D01*
X129399299Y-111266067D01*
X129453460Y-111226715D01*
X129453461Y-111226715D01*
X128821152Y-110594407D01*
X128884737Y-110577370D01*
X128998751Y-110511544D01*
X129091843Y-110418452D01*
X129157669Y-110304438D01*
X129174706Y-110240853D01*
X129807014Y-110873162D01*
X129807014Y-110873161D01*
X129846366Y-110818999D01*
X129942839Y-110629662D01*
X130008501Y-110427575D01*
X130008501Y-110427572D01*
X130041744Y-110217691D01*
X130041744Y-110005198D01*
X130008501Y-109795317D01*
X130008501Y-109795314D01*
X129942839Y-109593227D01*
X129846368Y-109403894D01*
X129807014Y-109349727D01*
X129807013Y-109349727D01*
X129174706Y-109982035D01*
X129157669Y-109918452D01*
X129091843Y-109804438D01*
X128998751Y-109711346D01*
X128884737Y-109645520D01*
X128821153Y-109628482D01*
X129453460Y-108996173D01*
X129399294Y-108956820D01*
X129389698Y-108951931D01*
X129338901Y-108903957D01*
X129322105Y-108836137D01*
X129344641Y-108770001D01*
X129389698Y-108730959D01*
X129399298Y-108726067D01*
X129453460Y-108686715D01*
X129453461Y-108686715D01*
X128821152Y-108054407D01*
X128884737Y-108037370D01*
X128998751Y-107971544D01*
X129091843Y-107878452D01*
X129157669Y-107764438D01*
X129174706Y-107700853D01*
X129807014Y-108333162D01*
X129807014Y-108333161D01*
X129846366Y-108278999D01*
X129942839Y-108089662D01*
X130008501Y-107887575D01*
X130008501Y-107887572D01*
X130041744Y-107677691D01*
X130041744Y-107465198D01*
X130008501Y-107255317D01*
X130008501Y-107255314D01*
X129942839Y-107053227D01*
X129846368Y-106863894D01*
X129807014Y-106809727D01*
X129807013Y-106809727D01*
X129174706Y-107442035D01*
X129157669Y-107378452D01*
X129091843Y-107264438D01*
X128998751Y-107171346D01*
X128884737Y-107105520D01*
X128821153Y-107088482D01*
X129453460Y-106456173D01*
X129399291Y-106416818D01*
X129399291Y-106416817D01*
X129390244Y-106412208D01*
X129339450Y-106364233D01*
X129322656Y-106296411D01*
X129345195Y-106230277D01*
X129390252Y-106191238D01*
X129399560Y-106186496D01*
X129478751Y-106128960D01*
X129571530Y-106061554D01*
X129571532Y-106061551D01*
X129571536Y-106061549D01*
X129721848Y-105911237D01*
X129721850Y-105911233D01*
X129721853Y-105911231D01*
X129846792Y-105739265D01*
X129846791Y-105739265D01*
X129846795Y-105739261D01*
X129943301Y-105549857D01*
X130008990Y-105347688D01*
X130042244Y-105137732D01*
X130042244Y-104925158D01*
X130008990Y-104715202D01*
X129943301Y-104513033D01*
X129846795Y-104323629D01*
X129846793Y-104323626D01*
X129846792Y-104323624D01*
X129721853Y-104151658D01*
X129571530Y-104001335D01*
X129399564Y-103876396D01*
X129398859Y-103876036D01*
X129390798Y-103871930D01*
X129340003Y-103823957D01*
X129323207Y-103756137D01*
X129345743Y-103690001D01*
X129390798Y-103650960D01*
X129399560Y-103646496D01*
X129460409Y-103602287D01*
X129571530Y-103521554D01*
X129571532Y-103521551D01*
X129571536Y-103521549D01*
X129721848Y-103371237D01*
X129721850Y-103371233D01*
X129721853Y-103371231D01*
X129846792Y-103199265D01*
X129846791Y-103199265D01*
X129846795Y-103199261D01*
X129943301Y-103009857D01*
X130008990Y-102807688D01*
X130042244Y-102597732D01*
X130042244Y-102385158D01*
X130008990Y-102175202D01*
X129943301Y-101973033D01*
X129846795Y-101783629D01*
X129846793Y-101783626D01*
X129846792Y-101783624D01*
X129721853Y-101611658D01*
X129571530Y-101461335D01*
X129399564Y-101336396D01*
X129398859Y-101336036D01*
X129390798Y-101331930D01*
X129340003Y-101283957D01*
X129323207Y-101216137D01*
X129345743Y-101150001D01*
X129390798Y-101110960D01*
X129399560Y-101106496D01*
X129460409Y-101062287D01*
X129474382Y-101052135D01*
X132509500Y-101052135D01*
X132509500Y-102947870D01*
X132509501Y-102947876D01*
X132515908Y-103007483D01*
X132566202Y-103142328D01*
X132566206Y-103142335D01*
X132652452Y-103257544D01*
X132652455Y-103257547D01*
X132767664Y-103343793D01*
X132767671Y-103343797D01*
X132902517Y-103394091D01*
X132902516Y-103394091D01*
X132909444Y-103394835D01*
X132962127Y-103400500D01*
X134857872Y-103400499D01*
X134917483Y-103394091D01*
X135052331Y-103343796D01*
X135167546Y-103257546D01*
X135253796Y-103142331D01*
X135281429Y-103068243D01*
X135283601Y-103062420D01*
X135325471Y-103006486D01*
X135390936Y-102982068D01*
X135459209Y-102996919D01*
X135487464Y-103018071D01*
X135537636Y-103068243D01*
X135537641Y-103068247D01*
X135639603Y-103142326D01*
X135715978Y-103197815D01*
X135844375Y-103263237D01*
X135912393Y-103297895D01*
X135912396Y-103297896D01*
X136017221Y-103331955D01*
X136122049Y-103366015D01*
X136339778Y-103400500D01*
X136339779Y-103400500D01*
X136560221Y-103400500D01*
X136560222Y-103400500D01*
X136777951Y-103366015D01*
X136987606Y-103297895D01*
X137184022Y-103197815D01*
X137362365Y-103068242D01*
X137518242Y-102912365D01*
X137647815Y-102734022D01*
X137747895Y-102537606D01*
X137816015Y-102327951D01*
X137850500Y-102110222D01*
X137850500Y-101889778D01*
X137816015Y-101672049D01*
X137781955Y-101567221D01*
X137747896Y-101462396D01*
X137747895Y-101462393D01*
X137681419Y-101331929D01*
X137647815Y-101265978D01*
X137628860Y-101239888D01*
X137542986Y-101121691D01*
X137518247Y-101087641D01*
X137518243Y-101087636D01*
X137482742Y-101052135D01*
X139579500Y-101052135D01*
X139579500Y-102947870D01*
X139579501Y-102947876D01*
X139585908Y-103007483D01*
X139636202Y-103142328D01*
X139636206Y-103142335D01*
X139722452Y-103257544D01*
X139722455Y-103257547D01*
X139837664Y-103343793D01*
X139837671Y-103343797D01*
X139972517Y-103394091D01*
X139972516Y-103394091D01*
X139979444Y-103394835D01*
X140032127Y-103400500D01*
X141927872Y-103400499D01*
X141987483Y-103394091D01*
X142122331Y-103343796D01*
X142237546Y-103257546D01*
X142323796Y-103142331D01*
X142351429Y-103068243D01*
X142353601Y-103062420D01*
X142395471Y-103006486D01*
X142460936Y-102982068D01*
X142529209Y-102996919D01*
X142557464Y-103018071D01*
X142607636Y-103068243D01*
X142607641Y-103068247D01*
X142709603Y-103142326D01*
X142785978Y-103197815D01*
X142914375Y-103263237D01*
X142982393Y-103297895D01*
X142982396Y-103297896D01*
X143087221Y-103331955D01*
X143192049Y-103366015D01*
X143409778Y-103400500D01*
X143409779Y-103400500D01*
X143630221Y-103400500D01*
X143630222Y-103400500D01*
X143847951Y-103366015D01*
X144057606Y-103297895D01*
X144254022Y-103197815D01*
X144432365Y-103068242D01*
X144588242Y-102912365D01*
X144717815Y-102734022D01*
X144817895Y-102537606D01*
X144886015Y-102327951D01*
X144920500Y-102110222D01*
X144920500Y-101889778D01*
X144886015Y-101672049D01*
X144851955Y-101567221D01*
X144817896Y-101462396D01*
X144817895Y-101462393D01*
X144751419Y-101331929D01*
X144717815Y-101265978D01*
X144698860Y-101239888D01*
X144612986Y-101121691D01*
X144588247Y-101087641D01*
X144588243Y-101087636D01*
X144552742Y-101052135D01*
X146649500Y-101052135D01*
X146649500Y-102947870D01*
X146649501Y-102947876D01*
X146655908Y-103007483D01*
X146706202Y-103142328D01*
X146706206Y-103142335D01*
X146792452Y-103257544D01*
X146792455Y-103257547D01*
X146907664Y-103343793D01*
X146907671Y-103343797D01*
X147042517Y-103394091D01*
X147042516Y-103394091D01*
X147049444Y-103394835D01*
X147102127Y-103400500D01*
X148997872Y-103400499D01*
X149057483Y-103394091D01*
X149192331Y-103343796D01*
X149307546Y-103257546D01*
X149393796Y-103142331D01*
X149421429Y-103068243D01*
X149423601Y-103062420D01*
X149465471Y-103006486D01*
X149530936Y-102982068D01*
X149599209Y-102996919D01*
X149627464Y-103018071D01*
X149677636Y-103068243D01*
X149677641Y-103068247D01*
X149779603Y-103142326D01*
X149855978Y-103197815D01*
X149984375Y-103263237D01*
X150052393Y-103297895D01*
X150052396Y-103297896D01*
X150157221Y-103331955D01*
X150262049Y-103366015D01*
X150479778Y-103400500D01*
X150479779Y-103400500D01*
X150700221Y-103400500D01*
X150700222Y-103400500D01*
X150917951Y-103366015D01*
X151127606Y-103297895D01*
X151324022Y-103197815D01*
X151502365Y-103068242D01*
X151658242Y-102912365D01*
X151787815Y-102734022D01*
X151887895Y-102537606D01*
X151956015Y-102327951D01*
X151990500Y-102110222D01*
X151990500Y-101889778D01*
X151956015Y-101672049D01*
X151921955Y-101567221D01*
X151887896Y-101462396D01*
X151887895Y-101462393D01*
X151821419Y-101331929D01*
X151787815Y-101265978D01*
X151768860Y-101239888D01*
X151682986Y-101121691D01*
X151658247Y-101087641D01*
X151658243Y-101087636D01*
X151622742Y-101052135D01*
X153719500Y-101052135D01*
X153719500Y-102947870D01*
X153719501Y-102947876D01*
X153725908Y-103007483D01*
X153776202Y-103142328D01*
X153776206Y-103142335D01*
X153862452Y-103257544D01*
X153862455Y-103257547D01*
X153977664Y-103343793D01*
X153977671Y-103343797D01*
X154112517Y-103394091D01*
X154112516Y-103394091D01*
X154119444Y-103394835D01*
X154172127Y-103400500D01*
X156067872Y-103400499D01*
X156127483Y-103394091D01*
X156262331Y-103343796D01*
X156377546Y-103257546D01*
X156463796Y-103142331D01*
X156491429Y-103068243D01*
X156493601Y-103062420D01*
X156535471Y-103006486D01*
X156600936Y-102982068D01*
X156669209Y-102996919D01*
X156697464Y-103018071D01*
X156747636Y-103068243D01*
X156747641Y-103068247D01*
X156849603Y-103142326D01*
X156925978Y-103197815D01*
X157054375Y-103263237D01*
X157122393Y-103297895D01*
X157122396Y-103297896D01*
X157227221Y-103331955D01*
X157332049Y-103366015D01*
X157549778Y-103400500D01*
X157549779Y-103400500D01*
X157770221Y-103400500D01*
X157770222Y-103400500D01*
X157987951Y-103366015D01*
X158197606Y-103297895D01*
X158394022Y-103197815D01*
X158572365Y-103068242D01*
X158728242Y-102912365D01*
X158857815Y-102734022D01*
X158957895Y-102537606D01*
X159026015Y-102327951D01*
X159060500Y-102110222D01*
X159060500Y-101889778D01*
X159026015Y-101672049D01*
X158991955Y-101567221D01*
X158957896Y-101462396D01*
X158957895Y-101462393D01*
X158891419Y-101331929D01*
X158857815Y-101265978D01*
X158838860Y-101239888D01*
X158752986Y-101121691D01*
X158728247Y-101087641D01*
X158728243Y-101087636D01*
X158692742Y-101052135D01*
X160789500Y-101052135D01*
X160789500Y-102947870D01*
X160789501Y-102947876D01*
X160795908Y-103007483D01*
X160846202Y-103142328D01*
X160846206Y-103142335D01*
X160932452Y-103257544D01*
X160932455Y-103257547D01*
X161047664Y-103343793D01*
X161047671Y-103343797D01*
X161182517Y-103394091D01*
X161182516Y-103394091D01*
X161189444Y-103394835D01*
X161242127Y-103400500D01*
X163137872Y-103400499D01*
X163197483Y-103394091D01*
X163332331Y-103343796D01*
X163447546Y-103257546D01*
X163533796Y-103142331D01*
X163561429Y-103068243D01*
X163563601Y-103062420D01*
X163605471Y-103006486D01*
X163670936Y-102982068D01*
X163739209Y-102996919D01*
X163767464Y-103018071D01*
X163817636Y-103068243D01*
X163817641Y-103068247D01*
X163919603Y-103142326D01*
X163995978Y-103197815D01*
X164124375Y-103263237D01*
X164192393Y-103297895D01*
X164192396Y-103297896D01*
X164297221Y-103331955D01*
X164402049Y-103366015D01*
X164619778Y-103400500D01*
X164619779Y-103400500D01*
X164840221Y-103400500D01*
X164840222Y-103400500D01*
X165057951Y-103366015D01*
X165267606Y-103297895D01*
X165464022Y-103197815D01*
X165642365Y-103068242D01*
X165798242Y-102912365D01*
X165927815Y-102734022D01*
X166027895Y-102537606D01*
X166096015Y-102327951D01*
X166130500Y-102110222D01*
X166130500Y-101889778D01*
X166096015Y-101672049D01*
X166061955Y-101567221D01*
X166027896Y-101462396D01*
X166027895Y-101462393D01*
X165961419Y-101331929D01*
X165927815Y-101265978D01*
X165908860Y-101239888D01*
X165822986Y-101121691D01*
X165798247Y-101087641D01*
X165798243Y-101087636D01*
X165762742Y-101052135D01*
X167859500Y-101052135D01*
X167859500Y-102947870D01*
X167859501Y-102947876D01*
X167865908Y-103007483D01*
X167916202Y-103142328D01*
X167916206Y-103142335D01*
X168002452Y-103257544D01*
X168002455Y-103257547D01*
X168117664Y-103343793D01*
X168117671Y-103343797D01*
X168252517Y-103394091D01*
X168252516Y-103394091D01*
X168259444Y-103394835D01*
X168312127Y-103400500D01*
X170207872Y-103400499D01*
X170267483Y-103394091D01*
X170402331Y-103343796D01*
X170517546Y-103257546D01*
X170603796Y-103142331D01*
X170631429Y-103068243D01*
X170633601Y-103062420D01*
X170675471Y-103006486D01*
X170740936Y-102982068D01*
X170809209Y-102996919D01*
X170837464Y-103018071D01*
X170887636Y-103068243D01*
X170887641Y-103068247D01*
X170989603Y-103142326D01*
X171065978Y-103197815D01*
X171194375Y-103263237D01*
X171262393Y-103297895D01*
X171262396Y-103297896D01*
X171367221Y-103331955D01*
X171472049Y-103366015D01*
X171689778Y-103400500D01*
X171689779Y-103400500D01*
X171910221Y-103400500D01*
X171910222Y-103400500D01*
X172127951Y-103366015D01*
X172337606Y-103297895D01*
X172534022Y-103197815D01*
X172712365Y-103068242D01*
X172868242Y-102912365D01*
X172997815Y-102734022D01*
X173097895Y-102537606D01*
X173166015Y-102327951D01*
X173200500Y-102110222D01*
X173200500Y-101889778D01*
X173166015Y-101672049D01*
X173131955Y-101567221D01*
X173097896Y-101462396D01*
X173097895Y-101462393D01*
X173031419Y-101331929D01*
X172997815Y-101265978D01*
X172978860Y-101239888D01*
X172868247Y-101087641D01*
X172868243Y-101087636D01*
X172712363Y-100931756D01*
X172712358Y-100931752D01*
X172534025Y-100802187D01*
X172534024Y-100802186D01*
X172534022Y-100802185D01*
X172416791Y-100742452D01*
X172337606Y-100702104D01*
X172337603Y-100702103D01*
X172127952Y-100633985D01*
X172019086Y-100616742D01*
X171910222Y-100599500D01*
X171689778Y-100599500D01*
X171617201Y-100610995D01*
X171472047Y-100633985D01*
X171262396Y-100702103D01*
X171262393Y-100702104D01*
X171065974Y-100802187D01*
X170887641Y-100931752D01*
X170887636Y-100931756D01*
X170837463Y-100981929D01*
X170776140Y-101015413D01*
X170706448Y-101010428D01*
X170650515Y-100968557D01*
X170633601Y-100937580D01*
X170603797Y-100857671D01*
X170603793Y-100857664D01*
X170517547Y-100742455D01*
X170517544Y-100742452D01*
X170402335Y-100656206D01*
X170402328Y-100656202D01*
X170267482Y-100605908D01*
X170267483Y-100605908D01*
X170207883Y-100599501D01*
X170207881Y-100599500D01*
X170207873Y-100599500D01*
X170207864Y-100599500D01*
X168312129Y-100599500D01*
X168312123Y-100599501D01*
X168252516Y-100605908D01*
X168117671Y-100656202D01*
X168117664Y-100656206D01*
X168002455Y-100742452D01*
X168002452Y-100742455D01*
X167916206Y-100857664D01*
X167916202Y-100857671D01*
X167865908Y-100992517D01*
X167859501Y-101052116D01*
X167859500Y-101052135D01*
X165762742Y-101052135D01*
X165642363Y-100931756D01*
X165642358Y-100931752D01*
X165464025Y-100802187D01*
X165464024Y-100802186D01*
X165464022Y-100802185D01*
X165346791Y-100742452D01*
X165267606Y-100702104D01*
X165267603Y-100702103D01*
X165057952Y-100633985D01*
X164949086Y-100616742D01*
X164840222Y-100599500D01*
X164619778Y-100599500D01*
X164547201Y-100610995D01*
X164402047Y-100633985D01*
X164192396Y-100702103D01*
X164192393Y-100702104D01*
X163995974Y-100802187D01*
X163817641Y-100931752D01*
X163817636Y-100931756D01*
X163767463Y-100981929D01*
X163706140Y-101015413D01*
X163636448Y-101010428D01*
X163580515Y-100968557D01*
X163563601Y-100937580D01*
X163533797Y-100857671D01*
X163533793Y-100857664D01*
X163447547Y-100742455D01*
X163447544Y-100742452D01*
X163332335Y-100656206D01*
X163332328Y-100656202D01*
X163197482Y-100605908D01*
X163197483Y-100605908D01*
X163137883Y-100599501D01*
X163137881Y-100599500D01*
X163137873Y-100599500D01*
X163137864Y-100599500D01*
X161242129Y-100599500D01*
X161242123Y-100599501D01*
X161182516Y-100605908D01*
X161047671Y-100656202D01*
X161047664Y-100656206D01*
X160932455Y-100742452D01*
X160932452Y-100742455D01*
X160846206Y-100857664D01*
X160846202Y-100857671D01*
X160795908Y-100992517D01*
X160789501Y-101052116D01*
X160789500Y-101052135D01*
X158692742Y-101052135D01*
X158572363Y-100931756D01*
X158572358Y-100931752D01*
X158394025Y-100802187D01*
X158394024Y-100802186D01*
X158394022Y-100802185D01*
X158276791Y-100742452D01*
X158197606Y-100702104D01*
X158197603Y-100702103D01*
X157987952Y-100633985D01*
X157879086Y-100616742D01*
X157770222Y-100599500D01*
X157549778Y-100599500D01*
X157477201Y-100610995D01*
X157332047Y-100633985D01*
X157122396Y-100702103D01*
X157122393Y-100702104D01*
X156925974Y-100802187D01*
X156747641Y-100931752D01*
X156747636Y-100931756D01*
X156697463Y-100981929D01*
X156636140Y-101015413D01*
X156566448Y-101010428D01*
X156510515Y-100968557D01*
X156493601Y-100937580D01*
X156463797Y-100857671D01*
X156463793Y-100857664D01*
X156377547Y-100742455D01*
X156377544Y-100742452D01*
X156262335Y-100656206D01*
X156262328Y-100656202D01*
X156127482Y-100605908D01*
X156127483Y-100605908D01*
X156067883Y-100599501D01*
X156067881Y-100599500D01*
X156067873Y-100599500D01*
X156067864Y-100599500D01*
X154172129Y-100599500D01*
X154172123Y-100599501D01*
X154112516Y-100605908D01*
X153977671Y-100656202D01*
X153977664Y-100656206D01*
X153862455Y-100742452D01*
X153862452Y-100742455D01*
X153776206Y-100857664D01*
X153776202Y-100857671D01*
X153725908Y-100992517D01*
X153719501Y-101052116D01*
X153719500Y-101052135D01*
X151622742Y-101052135D01*
X151502363Y-100931756D01*
X151502358Y-100931752D01*
X151324025Y-100802187D01*
X151324024Y-100802186D01*
X151324022Y-100802185D01*
X151206791Y-100742452D01*
X151127606Y-100702104D01*
X151127603Y-100702103D01*
X150917952Y-100633985D01*
X150809086Y-100616742D01*
X150700222Y-100599500D01*
X150479778Y-100599500D01*
X150407201Y-100610995D01*
X150262047Y-100633985D01*
X150052396Y-100702103D01*
X150052393Y-100702104D01*
X149855974Y-100802187D01*
X149677641Y-100931752D01*
X149677636Y-100931756D01*
X149627463Y-100981929D01*
X149566140Y-101015413D01*
X149496448Y-101010428D01*
X149440515Y-100968557D01*
X149423601Y-100937580D01*
X149393797Y-100857671D01*
X149393793Y-100857664D01*
X149307547Y-100742455D01*
X149307544Y-100742452D01*
X149192335Y-100656206D01*
X149192328Y-100656202D01*
X149057482Y-100605908D01*
X149057483Y-100605908D01*
X148997883Y-100599501D01*
X148997881Y-100599500D01*
X148997873Y-100599500D01*
X148997864Y-100599500D01*
X147102129Y-100599500D01*
X147102123Y-100599501D01*
X147042516Y-100605908D01*
X146907671Y-100656202D01*
X146907664Y-100656206D01*
X146792455Y-100742452D01*
X146792452Y-100742455D01*
X146706206Y-100857664D01*
X146706202Y-100857671D01*
X146655908Y-100992517D01*
X146649501Y-101052116D01*
X146649500Y-101052135D01*
X144552742Y-101052135D01*
X144432363Y-100931756D01*
X144432358Y-100931752D01*
X144254025Y-100802187D01*
X144254024Y-100802186D01*
X144254022Y-100802185D01*
X144136791Y-100742452D01*
X144057606Y-100702104D01*
X144057603Y-100702103D01*
X143847952Y-100633985D01*
X143739086Y-100616742D01*
X143630222Y-100599500D01*
X143409778Y-100599500D01*
X143337201Y-100610995D01*
X143192047Y-100633985D01*
X142982396Y-100702103D01*
X142982393Y-100702104D01*
X142785974Y-100802187D01*
X142607641Y-100931752D01*
X142607636Y-100931756D01*
X142557463Y-100981929D01*
X142496140Y-101015413D01*
X142426448Y-101010428D01*
X142370515Y-100968557D01*
X142353601Y-100937580D01*
X142323797Y-100857671D01*
X142323793Y-100857664D01*
X142237547Y-100742455D01*
X142237544Y-100742452D01*
X142122335Y-100656206D01*
X142122328Y-100656202D01*
X141987482Y-100605908D01*
X141987483Y-100605908D01*
X141927883Y-100599501D01*
X141927881Y-100599500D01*
X141927873Y-100599500D01*
X141927864Y-100599500D01*
X140032129Y-100599500D01*
X140032123Y-100599501D01*
X139972516Y-100605908D01*
X139837671Y-100656202D01*
X139837664Y-100656206D01*
X139722455Y-100742452D01*
X139722452Y-100742455D01*
X139636206Y-100857664D01*
X139636202Y-100857671D01*
X139585908Y-100992517D01*
X139579501Y-101052116D01*
X139579500Y-101052135D01*
X137482742Y-101052135D01*
X137362363Y-100931756D01*
X137362358Y-100931752D01*
X137184025Y-100802187D01*
X137184024Y-100802186D01*
X137184022Y-100802185D01*
X137066791Y-100742452D01*
X136987606Y-100702104D01*
X136987603Y-100702103D01*
X136777952Y-100633985D01*
X136669086Y-100616742D01*
X136560222Y-100599500D01*
X136339778Y-100599500D01*
X136267201Y-100610995D01*
X136122047Y-100633985D01*
X135912396Y-100702103D01*
X135912393Y-100702104D01*
X135715974Y-100802187D01*
X135537641Y-100931752D01*
X135537636Y-100931756D01*
X135487463Y-100981929D01*
X135426140Y-101015413D01*
X135356448Y-101010428D01*
X135300515Y-100968557D01*
X135283601Y-100937580D01*
X135253797Y-100857671D01*
X135253793Y-100857664D01*
X135167547Y-100742455D01*
X135167544Y-100742452D01*
X135052335Y-100656206D01*
X135052328Y-100656202D01*
X134917482Y-100605908D01*
X134917483Y-100605908D01*
X134857883Y-100599501D01*
X134857881Y-100599500D01*
X134857873Y-100599500D01*
X134857864Y-100599500D01*
X132962129Y-100599500D01*
X132962123Y-100599501D01*
X132902516Y-100605908D01*
X132767671Y-100656202D01*
X132767664Y-100656206D01*
X132652455Y-100742452D01*
X132652452Y-100742455D01*
X132566206Y-100857664D01*
X132566202Y-100857671D01*
X132515908Y-100992517D01*
X132509501Y-101052116D01*
X132509500Y-101052135D01*
X129474382Y-101052135D01*
X129571530Y-100981554D01*
X129571532Y-100981551D01*
X129571536Y-100981549D01*
X129721848Y-100831237D01*
X129721850Y-100831233D01*
X129721853Y-100831231D01*
X129846792Y-100659265D01*
X129846791Y-100659265D01*
X129846795Y-100659261D01*
X129943301Y-100469857D01*
X130008990Y-100267688D01*
X130042244Y-100057732D01*
X130042244Y-99845158D01*
X130008990Y-99635202D01*
X129943301Y-99433033D01*
X129846795Y-99243629D01*
X129846793Y-99243626D01*
X129846792Y-99243624D01*
X129721853Y-99071658D01*
X129571530Y-98921335D01*
X129399564Y-98796396D01*
X129398859Y-98796036D01*
X129390798Y-98791930D01*
X129340003Y-98743957D01*
X129323207Y-98676137D01*
X129345743Y-98610001D01*
X129390798Y-98570960D01*
X129399560Y-98566496D01*
X129460409Y-98522287D01*
X129571530Y-98441554D01*
X129571532Y-98441551D01*
X129571536Y-98441549D01*
X129721848Y-98291237D01*
X129721850Y-98291233D01*
X129721853Y-98291231D01*
X129846792Y-98119265D01*
X129846791Y-98119265D01*
X129846795Y-98119261D01*
X129943301Y-97929857D01*
X130008990Y-97727688D01*
X130042244Y-97517732D01*
X130042244Y-97305158D01*
X130008990Y-97095202D01*
X129943301Y-96893033D01*
X129846795Y-96703629D01*
X129846793Y-96703626D01*
X129846792Y-96703624D01*
X129806124Y-96647648D01*
X144079500Y-96647648D01*
X144079500Y-96852351D01*
X144111522Y-97054534D01*
X144174781Y-97249223D01*
X144238691Y-97374653D01*
X144244417Y-97385890D01*
X144267715Y-97431613D01*
X144388028Y-97597213D01*
X144532786Y-97741971D01*
X144687749Y-97854556D01*
X144698390Y-97862287D01*
X144786517Y-97907190D01*
X144880776Y-97955218D01*
X144880778Y-97955218D01*
X144880781Y-97955220D01*
X144985137Y-97989127D01*
X145075465Y-98018477D01*
X145176557Y-98034488D01*
X145277648Y-98050500D01*
X145277649Y-98050500D01*
X145482351Y-98050500D01*
X145482352Y-98050500D01*
X145684534Y-98018477D01*
X145879219Y-97955220D01*
X146061610Y-97862287D01*
X146158234Y-97792086D01*
X146227213Y-97741971D01*
X146227215Y-97741968D01*
X146227219Y-97741966D01*
X146371966Y-97597219D01*
X146371968Y-97597215D01*
X146371971Y-97597213D01*
X146492284Y-97431614D01*
X146492285Y-97431613D01*
X146492287Y-97431610D01*
X146539516Y-97338917D01*
X146587489Y-97288123D01*
X146655310Y-97271328D01*
X146721445Y-97293865D01*
X146760483Y-97338917D01*
X146784421Y-97385896D01*
X146807715Y-97431614D01*
X146928028Y-97597213D01*
X147072786Y-97741971D01*
X147227749Y-97854556D01*
X147238390Y-97862287D01*
X147326517Y-97907190D01*
X147420776Y-97955218D01*
X147420778Y-97955218D01*
X147420781Y-97955220D01*
X147525137Y-97989127D01*
X147615465Y-98018477D01*
X147716557Y-98034488D01*
X147817648Y-98050500D01*
X147817649Y-98050500D01*
X148022351Y-98050500D01*
X148022352Y-98050500D01*
X148224534Y-98018477D01*
X148419219Y-97955220D01*
X148601610Y-97862287D01*
X148698234Y-97792086D01*
X148767213Y-97741971D01*
X148767215Y-97741968D01*
X148767219Y-97741966D01*
X148911966Y-97597219D01*
X148911968Y-97597215D01*
X148911971Y-97597213D01*
X149032284Y-97431614D01*
X149032285Y-97431613D01*
X149032287Y-97431610D01*
X149079516Y-97338917D01*
X149127489Y-97288123D01*
X149195310Y-97271328D01*
X149261445Y-97293865D01*
X149300483Y-97338917D01*
X149324421Y-97385896D01*
X149347715Y-97431614D01*
X149468028Y-97597213D01*
X149612786Y-97741971D01*
X149767749Y-97854556D01*
X149778390Y-97862287D01*
X149866517Y-97907190D01*
X149960776Y-97955218D01*
X149960778Y-97955218D01*
X149960781Y-97955220D01*
X150065137Y-97989127D01*
X150155465Y-98018477D01*
X150256557Y-98034488D01*
X150357648Y-98050500D01*
X150357649Y-98050500D01*
X150562351Y-98050500D01*
X150562352Y-98050500D01*
X150764534Y-98018477D01*
X150959219Y-97955220D01*
X151141610Y-97862287D01*
X151238234Y-97792086D01*
X151307213Y-97741971D01*
X151307215Y-97741968D01*
X151307219Y-97741966D01*
X151451966Y-97597219D01*
X151451968Y-97597215D01*
X151451971Y-97597213D01*
X151572284Y-97431614D01*
X151572285Y-97431613D01*
X151572287Y-97431610D01*
X151619516Y-97338917D01*
X151667489Y-97288123D01*
X151735310Y-97271328D01*
X151801445Y-97293865D01*
X151840483Y-97338917D01*
X151864421Y-97385896D01*
X151887715Y-97431614D01*
X152008028Y-97597213D01*
X152152786Y-97741971D01*
X152307749Y-97854556D01*
X152318390Y-97862287D01*
X152406517Y-97907190D01*
X152500776Y-97955218D01*
X152500778Y-97955218D01*
X152500781Y-97955220D01*
X152605137Y-97989127D01*
X152695465Y-98018477D01*
X152796557Y-98034488D01*
X152897648Y-98050500D01*
X152897649Y-98050500D01*
X153102351Y-98050500D01*
X153102352Y-98050500D01*
X153304534Y-98018477D01*
X153499219Y-97955220D01*
X153681610Y-97862287D01*
X153778234Y-97792086D01*
X153847213Y-97741971D01*
X153847215Y-97741968D01*
X153847219Y-97741966D01*
X153991966Y-97597219D01*
X153991968Y-97597215D01*
X153991971Y-97597213D01*
X154112284Y-97431614D01*
X154112285Y-97431613D01*
X154112287Y-97431610D01*
X154159516Y-97338917D01*
X154207489Y-97288123D01*
X154275310Y-97271328D01*
X154341445Y-97293865D01*
X154380483Y-97338917D01*
X154404421Y-97385896D01*
X154427715Y-97431614D01*
X154548028Y-97597213D01*
X154692786Y-97741971D01*
X154847749Y-97854556D01*
X154858390Y-97862287D01*
X154946517Y-97907190D01*
X155040776Y-97955218D01*
X155040778Y-97955218D01*
X155040781Y-97955220D01*
X155145137Y-97989127D01*
X155235465Y-98018477D01*
X155336557Y-98034488D01*
X155437648Y-98050500D01*
X155437649Y-98050500D01*
X155642351Y-98050500D01*
X155642352Y-98050500D01*
X155844534Y-98018477D01*
X156039219Y-97955220D01*
X156221610Y-97862287D01*
X156318234Y-97792086D01*
X156387213Y-97741971D01*
X156387215Y-97741968D01*
X156387219Y-97741966D01*
X156531966Y-97597219D01*
X156531968Y-97597215D01*
X156531971Y-97597213D01*
X156652284Y-97431614D01*
X156652285Y-97431613D01*
X156652287Y-97431610D01*
X156699516Y-97338917D01*
X156747489Y-97288123D01*
X156815310Y-97271328D01*
X156881445Y-97293865D01*
X156920483Y-97338917D01*
X156944421Y-97385896D01*
X156967715Y-97431614D01*
X157088028Y-97597213D01*
X157232786Y-97741971D01*
X157387749Y-97854556D01*
X157398390Y-97862287D01*
X157486517Y-97907190D01*
X157580776Y-97955218D01*
X157580778Y-97955218D01*
X157580781Y-97955220D01*
X157685137Y-97989127D01*
X157775465Y-98018477D01*
X157876557Y-98034488D01*
X157977648Y-98050500D01*
X157977649Y-98050500D01*
X158182351Y-98050500D01*
X158182352Y-98050500D01*
X158384534Y-98018477D01*
X158579219Y-97955220D01*
X158761610Y-97862287D01*
X158858234Y-97792086D01*
X158927213Y-97741971D01*
X158927215Y-97741968D01*
X158927219Y-97741966D01*
X159071966Y-97597219D01*
X159098770Y-97560325D01*
X159154099Y-97517660D01*
X159223712Y-97511679D01*
X159285508Y-97544284D01*
X159319866Y-97605122D01*
X159322378Y-97619953D01*
X159326401Y-97657373D01*
X159326403Y-97657379D01*
X159376645Y-97792086D01*
X159376649Y-97792093D01*
X159462809Y-97907187D01*
X159462812Y-97907190D01*
X159577906Y-97993350D01*
X159577913Y-97993354D01*
X159712620Y-98043596D01*
X159712627Y-98043598D01*
X159772155Y-98049999D01*
X159772172Y-98050000D01*
X160370000Y-98050000D01*
X160370000Y-97065686D01*
X160374394Y-97070080D01*
X160465606Y-97122741D01*
X160567339Y-97150000D01*
X160672661Y-97150000D01*
X160774394Y-97122741D01*
X160865606Y-97070080D01*
X160870000Y-97065686D01*
X160870000Y-98050000D01*
X161467828Y-98050000D01*
X161467844Y-98049999D01*
X161527372Y-98043598D01*
X161527379Y-98043596D01*
X161662086Y-97993354D01*
X161662093Y-97993350D01*
X161777187Y-97907190D01*
X161777190Y-97907187D01*
X161863350Y-97792093D01*
X161863354Y-97792086D01*
X161913596Y-97657379D01*
X161913598Y-97657372D01*
X161919999Y-97597844D01*
X161920000Y-97597827D01*
X161920000Y-97000000D01*
X160935686Y-97000000D01*
X160940080Y-96995606D01*
X160992741Y-96904394D01*
X161020000Y-96802661D01*
X161020000Y-96697339D01*
X160992741Y-96595606D01*
X160940080Y-96504394D01*
X160935686Y-96500000D01*
X161920000Y-96500000D01*
X161920000Y-95902172D01*
X161919999Y-95902155D01*
X161913598Y-95842627D01*
X161913596Y-95842620D01*
X161863354Y-95707913D01*
X161863350Y-95707906D01*
X161777190Y-95592812D01*
X161777187Y-95592809D01*
X161662093Y-95506649D01*
X161662086Y-95506645D01*
X161527379Y-95456403D01*
X161527372Y-95456401D01*
X161467844Y-95450000D01*
X160870000Y-95450000D01*
X160870000Y-96434314D01*
X160865606Y-96429920D01*
X160774394Y-96377259D01*
X160672661Y-96350000D01*
X160567339Y-96350000D01*
X160465606Y-96377259D01*
X160374394Y-96429920D01*
X160370000Y-96434314D01*
X160370000Y-95450000D01*
X159772155Y-95450000D01*
X159712627Y-95456401D01*
X159712620Y-95456403D01*
X159577913Y-95506645D01*
X159577906Y-95506649D01*
X159462812Y-95592809D01*
X159462809Y-95592812D01*
X159376649Y-95707906D01*
X159376645Y-95707913D01*
X159326403Y-95842620D01*
X159326401Y-95842626D01*
X159322378Y-95880046D01*
X159295639Y-95944597D01*
X159238246Y-95984444D01*
X159168421Y-95986937D01*
X159108333Y-95951283D01*
X159098770Y-95939674D01*
X159071966Y-95902781D01*
X158927219Y-95758034D01*
X158927213Y-95758028D01*
X158761613Y-95637715D01*
X158761612Y-95637714D01*
X158761610Y-95637713D01*
X158673487Y-95592812D01*
X158579223Y-95544781D01*
X158384534Y-95481522D01*
X158209995Y-95453878D01*
X158182352Y-95449500D01*
X157977648Y-95449500D01*
X157953329Y-95453351D01*
X157775465Y-95481522D01*
X157580776Y-95544781D01*
X157398386Y-95637715D01*
X157232786Y-95758028D01*
X157088028Y-95902786D01*
X156967715Y-96068386D01*
X156920485Y-96161080D01*
X156872510Y-96211876D01*
X156804689Y-96228671D01*
X156738554Y-96206134D01*
X156699515Y-96161080D01*
X156698883Y-96159840D01*
X156652287Y-96068390D01*
X156644556Y-96057749D01*
X156531971Y-95902786D01*
X156387213Y-95758028D01*
X156221613Y-95637715D01*
X156221612Y-95637714D01*
X156221610Y-95637713D01*
X156133487Y-95592812D01*
X156039223Y-95544781D01*
X155844534Y-95481522D01*
X155669995Y-95453878D01*
X155642352Y-95449500D01*
X155437648Y-95449500D01*
X155413329Y-95453351D01*
X155235465Y-95481522D01*
X155040776Y-95544781D01*
X154858386Y-95637715D01*
X154692786Y-95758028D01*
X154548028Y-95902786D01*
X154427715Y-96068386D01*
X154380485Y-96161080D01*
X154332510Y-96211876D01*
X154264689Y-96228671D01*
X154198554Y-96206134D01*
X154159515Y-96161080D01*
X154158883Y-96159840D01*
X154112287Y-96068390D01*
X154104556Y-96057749D01*
X153991971Y-95902786D01*
X153847213Y-95758028D01*
X153681613Y-95637715D01*
X153681612Y-95637714D01*
X153681610Y-95637713D01*
X153593487Y-95592812D01*
X153499223Y-95544781D01*
X153304534Y-95481522D01*
X153129995Y-95453878D01*
X153102352Y-95449500D01*
X152897648Y-95449500D01*
X152873329Y-95453351D01*
X152695465Y-95481522D01*
X152500776Y-95544781D01*
X152318386Y-95637715D01*
X152152786Y-95758028D01*
X152008028Y-95902786D01*
X151887715Y-96068386D01*
X151840485Y-96161080D01*
X151792510Y-96211876D01*
X151724689Y-96228671D01*
X151658554Y-96206134D01*
X151619515Y-96161080D01*
X151618883Y-96159840D01*
X151572287Y-96068390D01*
X151564556Y-96057749D01*
X151451971Y-95902786D01*
X151307213Y-95758028D01*
X151141613Y-95637715D01*
X151141612Y-95637714D01*
X151141610Y-95637713D01*
X151053487Y-95592812D01*
X150959223Y-95544781D01*
X150764534Y-95481522D01*
X150589995Y-95453878D01*
X150562352Y-95449500D01*
X150357648Y-95449500D01*
X150333329Y-95453351D01*
X150155465Y-95481522D01*
X149960776Y-95544781D01*
X149778386Y-95637715D01*
X149612786Y-95758028D01*
X149468028Y-95902786D01*
X149347715Y-96068386D01*
X149300485Y-96161080D01*
X149252510Y-96211876D01*
X149184689Y-96228671D01*
X149118554Y-96206134D01*
X149079515Y-96161080D01*
X149078883Y-96159840D01*
X149032287Y-96068390D01*
X149024556Y-96057749D01*
X148911971Y-95902786D01*
X148767213Y-95758028D01*
X148601613Y-95637715D01*
X148601612Y-95637714D01*
X148601610Y-95637713D01*
X148513487Y-95592812D01*
X148419223Y-95544781D01*
X148224534Y-95481522D01*
X148049995Y-95453878D01*
X148022352Y-95449500D01*
X147817648Y-95449500D01*
X147793329Y-95453351D01*
X147615465Y-95481522D01*
X147420776Y-95544781D01*
X147238386Y-95637715D01*
X147072786Y-95758028D01*
X146928028Y-95902786D01*
X146807715Y-96068386D01*
X146760485Y-96161080D01*
X146712510Y-96211876D01*
X146644689Y-96228671D01*
X146578554Y-96206134D01*
X146539515Y-96161080D01*
X146538883Y-96159840D01*
X146492287Y-96068390D01*
X146484556Y-96057749D01*
X146371971Y-95902786D01*
X146227213Y-95758028D01*
X146061613Y-95637715D01*
X146061612Y-95637714D01*
X146061610Y-95637713D01*
X145973487Y-95592812D01*
X145879223Y-95544781D01*
X145684534Y-95481522D01*
X145509995Y-95453878D01*
X145482352Y-95449500D01*
X145277648Y-95449500D01*
X145253329Y-95453351D01*
X145075465Y-95481522D01*
X144880776Y-95544781D01*
X144698386Y-95637715D01*
X144532786Y-95758028D01*
X144388028Y-95902786D01*
X144267715Y-96068386D01*
X144174781Y-96250776D01*
X144111522Y-96445465D01*
X144079500Y-96647648D01*
X129806124Y-96647648D01*
X129721853Y-96531658D01*
X129608313Y-96418118D01*
X129574828Y-96356795D01*
X129579812Y-96287103D01*
X129621684Y-96231170D01*
X129652659Y-96214255D01*
X129784075Y-96165241D01*
X129899290Y-96078991D01*
X129985540Y-95963776D01*
X130035835Y-95828928D01*
X130042244Y-95769318D01*
X130042243Y-93973573D01*
X130035835Y-93913962D01*
X130013624Y-93854412D01*
X129985541Y-93779116D01*
X129985537Y-93779109D01*
X129899291Y-93663900D01*
X129899288Y-93663897D01*
X129784079Y-93577651D01*
X129784072Y-93577647D01*
X129649226Y-93527353D01*
X129649227Y-93527353D01*
X129589627Y-93520946D01*
X129589625Y-93520945D01*
X129589617Y-93520945D01*
X129589608Y-93520945D01*
X127793873Y-93520945D01*
X127793867Y-93520946D01*
X127734260Y-93527353D01*
X127599415Y-93577647D01*
X127599408Y-93577651D01*
X127484199Y-93663897D01*
X127484196Y-93663900D01*
X127397950Y-93779109D01*
X127397946Y-93779116D01*
X127347652Y-93913962D01*
X127341245Y-93973561D01*
X127341245Y-93973568D01*
X127341244Y-93973580D01*
X126654500Y-93973580D01*
X126654500Y-85609713D01*
X175603500Y-85609713D01*
X175603500Y-85822286D01*
X175636753Y-86032239D01*
X175702444Y-86234414D01*
X175798951Y-86423820D01*
X175923890Y-86595786D01*
X176074213Y-86746109D01*
X176246182Y-86871050D01*
X176254946Y-86875516D01*
X176305742Y-86923491D01*
X176322536Y-86991312D01*
X176299998Y-87057447D01*
X176254946Y-87096484D01*
X176246182Y-87100949D01*
X176074213Y-87225890D01*
X175923890Y-87376213D01*
X175798951Y-87548179D01*
X175702444Y-87737585D01*
X175636753Y-87939760D01*
X175603500Y-88149713D01*
X175603500Y-88362286D01*
X175636753Y-88572239D01*
X175702444Y-88774414D01*
X175798951Y-88963820D01*
X175923890Y-89135786D01*
X176074213Y-89286109D01*
X176246182Y-89411050D01*
X176254946Y-89415516D01*
X176305742Y-89463491D01*
X176322536Y-89531312D01*
X176299998Y-89597447D01*
X176254946Y-89636484D01*
X176246182Y-89640949D01*
X176074213Y-89765890D01*
X175923890Y-89916213D01*
X175798951Y-90088179D01*
X175702444Y-90277585D01*
X175636753Y-90479760D01*
X175603500Y-90689713D01*
X175603500Y-90902286D01*
X175636753Y-91112239D01*
X175702444Y-91314414D01*
X175798951Y-91503820D01*
X175923890Y-91675786D01*
X176074213Y-91826109D01*
X176246182Y-91951050D01*
X176254946Y-91955516D01*
X176305742Y-92003491D01*
X176322536Y-92071312D01*
X176299998Y-92137447D01*
X176254946Y-92176484D01*
X176246182Y-92180949D01*
X176074213Y-92305890D01*
X175923890Y-92456213D01*
X175798951Y-92628179D01*
X175702444Y-92817585D01*
X175636753Y-93019760D01*
X175603500Y-93229713D01*
X175603500Y-93442287D01*
X175636754Y-93652243D01*
X175677975Y-93779109D01*
X175702444Y-93854414D01*
X175798951Y-94043820D01*
X175923890Y-94215786D01*
X176074213Y-94366109D01*
X176246182Y-94491050D01*
X176254946Y-94495516D01*
X176305742Y-94543491D01*
X176322536Y-94611312D01*
X176299998Y-94677447D01*
X176254946Y-94716484D01*
X176246182Y-94720949D01*
X176074213Y-94845890D01*
X175923890Y-94996213D01*
X175798951Y-95168179D01*
X175702444Y-95357585D01*
X175636753Y-95559760D01*
X175613289Y-95707906D01*
X175603500Y-95769713D01*
X175603500Y-95982287D01*
X175613534Y-96045644D01*
X175632476Y-96165238D01*
X175636754Y-96192243D01*
X175690220Y-96356795D01*
X175702444Y-96394414D01*
X175798951Y-96583820D01*
X175923890Y-96755786D01*
X176074213Y-96906109D01*
X176246182Y-97031050D01*
X176254946Y-97035516D01*
X176305742Y-97083491D01*
X176322536Y-97151312D01*
X176299998Y-97217447D01*
X176254946Y-97256484D01*
X176246182Y-97260949D01*
X176074213Y-97385890D01*
X175923890Y-97536213D01*
X175798951Y-97708179D01*
X175702444Y-97897585D01*
X175636753Y-98099760D01*
X175603500Y-98309713D01*
X175603500Y-98522286D01*
X175629549Y-98686757D01*
X175636754Y-98732243D01*
X175656147Y-98791929D01*
X175702444Y-98934414D01*
X175798951Y-99123820D01*
X175923890Y-99295786D01*
X176074213Y-99446109D01*
X176246182Y-99571050D01*
X176254946Y-99575516D01*
X176305742Y-99623491D01*
X176322536Y-99691312D01*
X176299998Y-99757447D01*
X176254946Y-99796484D01*
X176246182Y-99800949D01*
X176074213Y-99925890D01*
X175923890Y-100076213D01*
X175798951Y-100248179D01*
X175702444Y-100437585D01*
X175636753Y-100639760D01*
X175603500Y-100849713D01*
X175603500Y-101062286D01*
X175635761Y-101265978D01*
X175636754Y-101272243D01*
X175656147Y-101331929D01*
X175702444Y-101474414D01*
X175798951Y-101663820D01*
X175923890Y-101835786D01*
X176074213Y-101986109D01*
X176246182Y-102111050D01*
X176254946Y-102115516D01*
X176305742Y-102163491D01*
X176322536Y-102231312D01*
X176299998Y-102297447D01*
X176254946Y-102336484D01*
X176246182Y-102340949D01*
X176074213Y-102465890D01*
X175923890Y-102616213D01*
X175798951Y-102788179D01*
X175702444Y-102977585D01*
X175636753Y-103179760D01*
X175603500Y-103389713D01*
X175603500Y-103602286D01*
X175629549Y-103766757D01*
X175636754Y-103812243D01*
X175656147Y-103871929D01*
X175702444Y-104014414D01*
X175798951Y-104203820D01*
X175923890Y-104375786D01*
X176074213Y-104526109D01*
X176246182Y-104651050D01*
X176254946Y-104655516D01*
X176305742Y-104703491D01*
X176322536Y-104771312D01*
X176299998Y-104837447D01*
X176254946Y-104876484D01*
X176246182Y-104880949D01*
X176074213Y-105005890D01*
X175923890Y-105156213D01*
X175798951Y-105328179D01*
X175702444Y-105517585D01*
X175636753Y-105719760D01*
X175633664Y-105739265D01*
X175603500Y-105929713D01*
X175603500Y-106142287D01*
X175636754Y-106352243D01*
X175657735Y-106416817D01*
X175702444Y-106554414D01*
X175798951Y-106743820D01*
X175923890Y-106915786D01*
X176037430Y-107029326D01*
X176070915Y-107090649D01*
X176065931Y-107160341D01*
X176024059Y-107216274D01*
X175993083Y-107233189D01*
X175861669Y-107282203D01*
X175861664Y-107282206D01*
X175746455Y-107368452D01*
X175746452Y-107368455D01*
X175660206Y-107483664D01*
X175660202Y-107483671D01*
X175609908Y-107618517D01*
X175603547Y-107677691D01*
X175603501Y-107678123D01*
X175603500Y-107678135D01*
X175603500Y-109473870D01*
X175603501Y-109473876D01*
X175609908Y-109533483D01*
X175660202Y-109668328D01*
X175660206Y-109668335D01*
X175746452Y-109783544D01*
X175746455Y-109783547D01*
X175861664Y-109869793D01*
X175861671Y-109869797D01*
X175996517Y-109920091D01*
X175996516Y-109920091D01*
X176003444Y-109920835D01*
X176056127Y-109926500D01*
X177851872Y-109926499D01*
X177911483Y-109920091D01*
X178046331Y-109869796D01*
X178161546Y-109783546D01*
X178247796Y-109668331D01*
X178298091Y-109533483D01*
X178304500Y-109473873D01*
X178304499Y-107678128D01*
X178298091Y-107618517D01*
X178280534Y-107571445D01*
X178247797Y-107483671D01*
X178247793Y-107483664D01*
X178161547Y-107368455D01*
X178161544Y-107368452D01*
X178046335Y-107282206D01*
X178046328Y-107282202D01*
X177914917Y-107233189D01*
X177858983Y-107191318D01*
X177834566Y-107125853D01*
X177849418Y-107057580D01*
X177870563Y-107029332D01*
X177984104Y-106915792D01*
X178109051Y-106743816D01*
X178205557Y-106554412D01*
X178271246Y-106352243D01*
X178304500Y-106142287D01*
X178304500Y-105929713D01*
X178271246Y-105719757D01*
X178205557Y-105517588D01*
X178109051Y-105328184D01*
X178109049Y-105328181D01*
X178109048Y-105328179D01*
X177984109Y-105156213D01*
X177833786Y-105005890D01*
X177661820Y-104880951D01*
X177661115Y-104880591D01*
X177653054Y-104876485D01*
X177602259Y-104828512D01*
X177585463Y-104760692D01*
X177607999Y-104694556D01*
X177653054Y-104655515D01*
X177661816Y-104651051D01*
X177683789Y-104635086D01*
X177833786Y-104526109D01*
X177833788Y-104526106D01*
X177833792Y-104526104D01*
X177984104Y-104375792D01*
X177984106Y-104375788D01*
X177984109Y-104375786D01*
X178109048Y-104203820D01*
X178109047Y-104203820D01*
X178109051Y-104203816D01*
X178205557Y-104014412D01*
X178271246Y-103812243D01*
X178304500Y-103602287D01*
X178304500Y-103389713D01*
X178271246Y-103179757D01*
X178205557Y-102977588D01*
X178109051Y-102788184D01*
X178109049Y-102788181D01*
X178109048Y-102788179D01*
X177984109Y-102616213D01*
X177833786Y-102465890D01*
X177661820Y-102340951D01*
X177661115Y-102340591D01*
X177653054Y-102336485D01*
X177602259Y-102288512D01*
X177585463Y-102220692D01*
X177607999Y-102154556D01*
X177653054Y-102115515D01*
X177661816Y-102111051D01*
X177683789Y-102095086D01*
X177833786Y-101986109D01*
X177833788Y-101986106D01*
X177833792Y-101986104D01*
X177984104Y-101835792D01*
X177984106Y-101835788D01*
X177984109Y-101835786D01*
X178109048Y-101663820D01*
X178109047Y-101663820D01*
X178109051Y-101663816D01*
X178205557Y-101474412D01*
X178271246Y-101272243D01*
X178304500Y-101062287D01*
X178304500Y-100849713D01*
X178271246Y-100639757D01*
X178205557Y-100437588D01*
X178109051Y-100248184D01*
X178109049Y-100248181D01*
X178109048Y-100248179D01*
X177984109Y-100076213D01*
X177833786Y-99925890D01*
X177661820Y-99800951D01*
X177661115Y-99800591D01*
X177653054Y-99796485D01*
X177602259Y-99748512D01*
X177585463Y-99680692D01*
X177607999Y-99614556D01*
X177653054Y-99575515D01*
X177661816Y-99571051D01*
X177683789Y-99555086D01*
X177833786Y-99446109D01*
X177833788Y-99446106D01*
X177833792Y-99446104D01*
X177984104Y-99295792D01*
X177984106Y-99295788D01*
X177984109Y-99295786D01*
X178109048Y-99123820D01*
X178109047Y-99123820D01*
X178109051Y-99123816D01*
X178205557Y-98934412D01*
X178271246Y-98732243D01*
X178304500Y-98522287D01*
X178304500Y-98309713D01*
X178271246Y-98099757D01*
X178205557Y-97897588D01*
X178109051Y-97708184D01*
X178109049Y-97708181D01*
X178109048Y-97708179D01*
X177984109Y-97536213D01*
X177833786Y-97385890D01*
X177661820Y-97260951D01*
X177661115Y-97260591D01*
X177653054Y-97256485D01*
X177602259Y-97208512D01*
X177585463Y-97140692D01*
X177607999Y-97074556D01*
X177653054Y-97035515D01*
X177661816Y-97031051D01*
X177710602Y-96995606D01*
X177833786Y-96906109D01*
X177833788Y-96906106D01*
X177833792Y-96906104D01*
X177984104Y-96755792D01*
X177984106Y-96755788D01*
X177984109Y-96755786D01*
X178109048Y-96583820D01*
X178109047Y-96583820D01*
X178109051Y-96583816D01*
X178205557Y-96394412D01*
X178271246Y-96192243D01*
X178304500Y-95982287D01*
X178304500Y-95769713D01*
X178271246Y-95559757D01*
X178205557Y-95357588D01*
X178109051Y-95168184D01*
X178109049Y-95168181D01*
X178109048Y-95168179D01*
X177984109Y-94996213D01*
X177833786Y-94845890D01*
X177661820Y-94720951D01*
X177661115Y-94720591D01*
X177653054Y-94716485D01*
X177602259Y-94668512D01*
X177585463Y-94600692D01*
X177607999Y-94534556D01*
X177653054Y-94495515D01*
X177661816Y-94491051D01*
X177683789Y-94475086D01*
X177833786Y-94366109D01*
X177833788Y-94366106D01*
X177833792Y-94366104D01*
X177984104Y-94215792D01*
X177984106Y-94215788D01*
X177984109Y-94215786D01*
X178109048Y-94043820D01*
X178109047Y-94043820D01*
X178109051Y-94043816D01*
X178205557Y-93854412D01*
X178271246Y-93652243D01*
X178304500Y-93442287D01*
X178304500Y-93229713D01*
X178271246Y-93019757D01*
X178205557Y-92817588D01*
X178109051Y-92628184D01*
X178109049Y-92628181D01*
X178109048Y-92628179D01*
X177984109Y-92456213D01*
X177833786Y-92305890D01*
X177661820Y-92180951D01*
X177661115Y-92180591D01*
X177653054Y-92176485D01*
X177602259Y-92128512D01*
X177585463Y-92060692D01*
X177607999Y-91994556D01*
X177653054Y-91955515D01*
X177661816Y-91951051D01*
X177683789Y-91935086D01*
X177833786Y-91826109D01*
X177833788Y-91826106D01*
X177833792Y-91826104D01*
X177984104Y-91675792D01*
X177984106Y-91675788D01*
X177984109Y-91675786D01*
X178109048Y-91503820D01*
X178109047Y-91503820D01*
X178109051Y-91503816D01*
X178205557Y-91314412D01*
X178271246Y-91112243D01*
X178304500Y-90902287D01*
X178304500Y-90689713D01*
X178271246Y-90479757D01*
X178205557Y-90277588D01*
X178109051Y-90088184D01*
X178109049Y-90088181D01*
X178109048Y-90088179D01*
X177984109Y-89916213D01*
X177833786Y-89765890D01*
X177661820Y-89640951D01*
X177661115Y-89640591D01*
X177653054Y-89636485D01*
X177602259Y-89588512D01*
X177585463Y-89520692D01*
X177607999Y-89454556D01*
X177653054Y-89415515D01*
X177661816Y-89411051D01*
X177683789Y-89395086D01*
X177833786Y-89286109D01*
X177833788Y-89286106D01*
X177833792Y-89286104D01*
X177984104Y-89135792D01*
X177984106Y-89135788D01*
X177984109Y-89135786D01*
X178109048Y-88963820D01*
X178109047Y-88963820D01*
X178109051Y-88963816D01*
X178205557Y-88774412D01*
X178271246Y-88572243D01*
X178304500Y-88362287D01*
X178304500Y-88149713D01*
X178271246Y-87939757D01*
X178205557Y-87737588D01*
X178109051Y-87548184D01*
X178109049Y-87548181D01*
X178109048Y-87548179D01*
X177984109Y-87376213D01*
X177833786Y-87225890D01*
X177661820Y-87100951D01*
X177661115Y-87100591D01*
X177653054Y-87096485D01*
X177602259Y-87048512D01*
X177585463Y-86980692D01*
X177607999Y-86914556D01*
X177653054Y-86875515D01*
X177661816Y-86871051D01*
X177683789Y-86855086D01*
X177833786Y-86746109D01*
X177833788Y-86746106D01*
X177833792Y-86746104D01*
X177984104Y-86595792D01*
X177984106Y-86595788D01*
X177984109Y-86595786D01*
X178109048Y-86423820D01*
X178109047Y-86423820D01*
X178109051Y-86423816D01*
X178205557Y-86234412D01*
X178271246Y-86032243D01*
X178304500Y-85822287D01*
X178304500Y-85609713D01*
X178271246Y-85399757D01*
X178205557Y-85197588D01*
X178109051Y-85008184D01*
X178109049Y-85008181D01*
X178109048Y-85008179D01*
X177984109Y-84836213D01*
X177833786Y-84685890D01*
X177661820Y-84560951D01*
X177472414Y-84464444D01*
X177472413Y-84464443D01*
X177472412Y-84464443D01*
X177270243Y-84398754D01*
X177270241Y-84398753D01*
X177270240Y-84398753D01*
X177108957Y-84373208D01*
X177060287Y-84365500D01*
X176847713Y-84365500D01*
X176799042Y-84373208D01*
X176637760Y-84398753D01*
X176435585Y-84464444D01*
X176246179Y-84560951D01*
X176074213Y-84685890D01*
X175923890Y-84836213D01*
X175798951Y-85008179D01*
X175702444Y-85197585D01*
X175636753Y-85399760D01*
X175603500Y-85609713D01*
X126654500Y-85609713D01*
X126654500Y-82552135D01*
X139129500Y-82552135D01*
X139129500Y-84447870D01*
X139129501Y-84447876D01*
X139135908Y-84507483D01*
X139186202Y-84642328D01*
X139186206Y-84642335D01*
X139272452Y-84757544D01*
X139272455Y-84757547D01*
X139387664Y-84843793D01*
X139387671Y-84843797D01*
X139522517Y-84894091D01*
X139522516Y-84894091D01*
X139529444Y-84894835D01*
X139582127Y-84900500D01*
X141477872Y-84900499D01*
X141537483Y-84894091D01*
X141672331Y-84843796D01*
X141787546Y-84757546D01*
X141873796Y-84642331D01*
X141901429Y-84568243D01*
X141903601Y-84562420D01*
X141945471Y-84506486D01*
X142010936Y-84482068D01*
X142079209Y-84496919D01*
X142107464Y-84518071D01*
X142157636Y-84568243D01*
X142157641Y-84568247D01*
X142259603Y-84642326D01*
X142335978Y-84697815D01*
X142464375Y-84763237D01*
X142532393Y-84797895D01*
X142532396Y-84797896D01*
X142637221Y-84831955D01*
X142742049Y-84866015D01*
X142959778Y-84900500D01*
X142959779Y-84900500D01*
X143180221Y-84900500D01*
X143180222Y-84900500D01*
X143397951Y-84866015D01*
X143607606Y-84797895D01*
X143804022Y-84697815D01*
X143982365Y-84568242D01*
X144138242Y-84412365D01*
X144267815Y-84234022D01*
X144367895Y-84037606D01*
X144436015Y-83827951D01*
X144470500Y-83610222D01*
X144470500Y-83389778D01*
X144436015Y-83172049D01*
X144367895Y-82962394D01*
X144367895Y-82962393D01*
X144333237Y-82894375D01*
X144267815Y-82765978D01*
X144209501Y-82685715D01*
X144162986Y-82621691D01*
X144138247Y-82587641D01*
X144138243Y-82587636D01*
X144102742Y-82552135D01*
X146496167Y-82552135D01*
X146496167Y-84447870D01*
X146496168Y-84447876D01*
X146502575Y-84507483D01*
X146552869Y-84642328D01*
X146552873Y-84642335D01*
X146639119Y-84757544D01*
X146639122Y-84757547D01*
X146754331Y-84843793D01*
X146754338Y-84843797D01*
X146889184Y-84894091D01*
X146889183Y-84894091D01*
X146896111Y-84894835D01*
X146948794Y-84900500D01*
X148844539Y-84900499D01*
X148904150Y-84894091D01*
X149038998Y-84843796D01*
X149154213Y-84757546D01*
X149240463Y-84642331D01*
X149268096Y-84568243D01*
X149270268Y-84562420D01*
X149312138Y-84506486D01*
X149377603Y-84482068D01*
X149445876Y-84496919D01*
X149474131Y-84518071D01*
X149524303Y-84568243D01*
X149524308Y-84568247D01*
X149626270Y-84642326D01*
X149702645Y-84697815D01*
X149831042Y-84763237D01*
X149899060Y-84797895D01*
X149899063Y-84797896D01*
X150003888Y-84831955D01*
X150108716Y-84866015D01*
X150326445Y-84900500D01*
X150326446Y-84900500D01*
X150546888Y-84900500D01*
X150546889Y-84900500D01*
X150764618Y-84866015D01*
X150974273Y-84797895D01*
X151170689Y-84697815D01*
X151349032Y-84568242D01*
X151504909Y-84412365D01*
X151634482Y-84234022D01*
X151734562Y-84037606D01*
X151802682Y-83827951D01*
X151837167Y-83610222D01*
X151837167Y-83389778D01*
X151802682Y-83172049D01*
X151734562Y-82962394D01*
X151734562Y-82962393D01*
X151699904Y-82894375D01*
X151634482Y-82765978D01*
X151576168Y-82685715D01*
X151529653Y-82621691D01*
X151504914Y-82587641D01*
X151504910Y-82587636D01*
X151469409Y-82552135D01*
X153862833Y-82552135D01*
X153862833Y-84447870D01*
X153862834Y-84447876D01*
X153869241Y-84507483D01*
X153919535Y-84642328D01*
X153919539Y-84642335D01*
X154005785Y-84757544D01*
X154005788Y-84757547D01*
X154120997Y-84843793D01*
X154121004Y-84843797D01*
X154255850Y-84894091D01*
X154255849Y-84894091D01*
X154262777Y-84894835D01*
X154315460Y-84900500D01*
X156211205Y-84900499D01*
X156270816Y-84894091D01*
X156405664Y-84843796D01*
X156520879Y-84757546D01*
X156607129Y-84642331D01*
X156634762Y-84568243D01*
X156636934Y-84562420D01*
X156678804Y-84506486D01*
X156744269Y-84482068D01*
X156812542Y-84496919D01*
X156840797Y-84518071D01*
X156890969Y-84568243D01*
X156890974Y-84568247D01*
X156992936Y-84642326D01*
X157069311Y-84697815D01*
X157197708Y-84763237D01*
X157265726Y-84797895D01*
X157265729Y-84797896D01*
X157370554Y-84831955D01*
X157475382Y-84866015D01*
X157693111Y-84900500D01*
X157693112Y-84900500D01*
X157913554Y-84900500D01*
X157913555Y-84900500D01*
X158131284Y-84866015D01*
X158340939Y-84797895D01*
X158537355Y-84697815D01*
X158715698Y-84568242D01*
X158871575Y-84412365D01*
X159001148Y-84234022D01*
X159101228Y-84037606D01*
X159169348Y-83827951D01*
X159203833Y-83610222D01*
X159203833Y-83389778D01*
X159169348Y-83172049D01*
X159101228Y-82962394D01*
X159101228Y-82962393D01*
X159066570Y-82894375D01*
X159001148Y-82765978D01*
X158942834Y-82685715D01*
X158896319Y-82621691D01*
X158871580Y-82587641D01*
X158871576Y-82587636D01*
X158836075Y-82552135D01*
X161229500Y-82552135D01*
X161229500Y-84447870D01*
X161229501Y-84447876D01*
X161235908Y-84507483D01*
X161286202Y-84642328D01*
X161286206Y-84642335D01*
X161372452Y-84757544D01*
X161372455Y-84757547D01*
X161487664Y-84843793D01*
X161487671Y-84843797D01*
X161622517Y-84894091D01*
X161622516Y-84894091D01*
X161629444Y-84894835D01*
X161682127Y-84900500D01*
X163577872Y-84900499D01*
X163637483Y-84894091D01*
X163772331Y-84843796D01*
X163887546Y-84757546D01*
X163973796Y-84642331D01*
X164001429Y-84568243D01*
X164003601Y-84562420D01*
X164045471Y-84506486D01*
X164110936Y-84482068D01*
X164179209Y-84496919D01*
X164207464Y-84518071D01*
X164257636Y-84568243D01*
X164257641Y-84568247D01*
X164359603Y-84642326D01*
X164435978Y-84697815D01*
X164564375Y-84763237D01*
X164632393Y-84797895D01*
X164632396Y-84797896D01*
X164737221Y-84831955D01*
X164842049Y-84866015D01*
X165059778Y-84900500D01*
X165059779Y-84900500D01*
X165280221Y-84900500D01*
X165280222Y-84900500D01*
X165497951Y-84866015D01*
X165707606Y-84797895D01*
X165904022Y-84697815D01*
X166082365Y-84568242D01*
X166238242Y-84412365D01*
X166367815Y-84234022D01*
X166467895Y-84037606D01*
X166536015Y-83827951D01*
X166570500Y-83610222D01*
X166570500Y-83389778D01*
X166536015Y-83172049D01*
X166467895Y-82962394D01*
X166467895Y-82962393D01*
X166433237Y-82894375D01*
X166367815Y-82765978D01*
X166262985Y-82621691D01*
X166238247Y-82587641D01*
X166238243Y-82587636D01*
X166082363Y-82431756D01*
X166082358Y-82431752D01*
X165904025Y-82302187D01*
X165904024Y-82302186D01*
X165904022Y-82302185D01*
X165786791Y-82242452D01*
X165707606Y-82202104D01*
X165707603Y-82202103D01*
X165497952Y-82133985D01*
X165389086Y-82116742D01*
X165280222Y-82099500D01*
X165059778Y-82099500D01*
X164987201Y-82110995D01*
X164842047Y-82133985D01*
X164632396Y-82202103D01*
X164632393Y-82202104D01*
X164435974Y-82302187D01*
X164257641Y-82431752D01*
X164257636Y-82431756D01*
X164207463Y-82481929D01*
X164146140Y-82515413D01*
X164076448Y-82510428D01*
X164020515Y-82468557D01*
X164003601Y-82437580D01*
X163973797Y-82357671D01*
X163973793Y-82357664D01*
X163887547Y-82242455D01*
X163887544Y-82242452D01*
X163772335Y-82156206D01*
X163772328Y-82156202D01*
X163637482Y-82105908D01*
X163637483Y-82105908D01*
X163577883Y-82099501D01*
X163577881Y-82099500D01*
X163577873Y-82099500D01*
X163577864Y-82099500D01*
X161682129Y-82099500D01*
X161682123Y-82099501D01*
X161622516Y-82105908D01*
X161487671Y-82156202D01*
X161487664Y-82156206D01*
X161372455Y-82242452D01*
X161372452Y-82242455D01*
X161286206Y-82357664D01*
X161286202Y-82357671D01*
X161235908Y-82492517D01*
X161229501Y-82552116D01*
X161229500Y-82552135D01*
X158836075Y-82552135D01*
X158715696Y-82431756D01*
X158715691Y-82431752D01*
X158537358Y-82302187D01*
X158537357Y-82302186D01*
X158537355Y-82302185D01*
X158420124Y-82242452D01*
X158340939Y-82202104D01*
X158340936Y-82202103D01*
X158131285Y-82133985D01*
X158022419Y-82116742D01*
X157913555Y-82099500D01*
X157693111Y-82099500D01*
X157620534Y-82110995D01*
X157475380Y-82133985D01*
X157265729Y-82202103D01*
X157265726Y-82202104D01*
X157069307Y-82302187D01*
X156890974Y-82431752D01*
X156890969Y-82431756D01*
X156840796Y-82481929D01*
X156779473Y-82515413D01*
X156709781Y-82510428D01*
X156653848Y-82468557D01*
X156636934Y-82437580D01*
X156607130Y-82357671D01*
X156607126Y-82357664D01*
X156520880Y-82242455D01*
X156520877Y-82242452D01*
X156405668Y-82156206D01*
X156405661Y-82156202D01*
X156270815Y-82105908D01*
X156270816Y-82105908D01*
X156211216Y-82099501D01*
X156211214Y-82099500D01*
X156211206Y-82099500D01*
X156211197Y-82099500D01*
X154315462Y-82099500D01*
X154315456Y-82099501D01*
X154255849Y-82105908D01*
X154121004Y-82156202D01*
X154120997Y-82156206D01*
X154005788Y-82242452D01*
X154005785Y-82242455D01*
X153919539Y-82357664D01*
X153919535Y-82357671D01*
X153869241Y-82492517D01*
X153862834Y-82552116D01*
X153862833Y-82552135D01*
X151469409Y-82552135D01*
X151349030Y-82431756D01*
X151349025Y-82431752D01*
X151170692Y-82302187D01*
X151170691Y-82302186D01*
X151170689Y-82302185D01*
X151053458Y-82242452D01*
X150974273Y-82202104D01*
X150974270Y-82202103D01*
X150764619Y-82133985D01*
X150655753Y-82116742D01*
X150546889Y-82099500D01*
X150326445Y-82099500D01*
X150253868Y-82110995D01*
X150108714Y-82133985D01*
X149899063Y-82202103D01*
X149899060Y-82202104D01*
X149702641Y-82302187D01*
X149524308Y-82431752D01*
X149524303Y-82431756D01*
X149474130Y-82481929D01*
X149412807Y-82515413D01*
X149343115Y-82510428D01*
X149287182Y-82468557D01*
X149270268Y-82437580D01*
X149240464Y-82357671D01*
X149240460Y-82357664D01*
X149154214Y-82242455D01*
X149154211Y-82242452D01*
X149039002Y-82156206D01*
X149038995Y-82156202D01*
X148904149Y-82105908D01*
X148904150Y-82105908D01*
X148844550Y-82099501D01*
X148844548Y-82099500D01*
X148844540Y-82099500D01*
X148844531Y-82099500D01*
X146948796Y-82099500D01*
X146948790Y-82099501D01*
X146889183Y-82105908D01*
X146754338Y-82156202D01*
X146754331Y-82156206D01*
X146639122Y-82242452D01*
X146639119Y-82242455D01*
X146552873Y-82357664D01*
X146552869Y-82357671D01*
X146502575Y-82492517D01*
X146496168Y-82552116D01*
X146496167Y-82552135D01*
X144102742Y-82552135D01*
X143982363Y-82431756D01*
X143982358Y-82431752D01*
X143804025Y-82302187D01*
X143804024Y-82302186D01*
X143804022Y-82302185D01*
X143686791Y-82242452D01*
X143607606Y-82202104D01*
X143607603Y-82202103D01*
X143397952Y-82133985D01*
X143289086Y-82116742D01*
X143180222Y-82099500D01*
X142959778Y-82099500D01*
X142887201Y-82110995D01*
X142742047Y-82133985D01*
X142532396Y-82202103D01*
X142532393Y-82202104D01*
X142335974Y-82302187D01*
X142157641Y-82431752D01*
X142157636Y-82431756D01*
X142107463Y-82481929D01*
X142046140Y-82515413D01*
X141976448Y-82510428D01*
X141920515Y-82468557D01*
X141903601Y-82437580D01*
X141873797Y-82357671D01*
X141873793Y-82357664D01*
X141787547Y-82242455D01*
X141787544Y-82242452D01*
X141672335Y-82156206D01*
X141672328Y-82156202D01*
X141537482Y-82105908D01*
X141537483Y-82105908D01*
X141477883Y-82099501D01*
X141477881Y-82099500D01*
X141477873Y-82099500D01*
X141477864Y-82099500D01*
X139582129Y-82099500D01*
X139582123Y-82099501D01*
X139522516Y-82105908D01*
X139387671Y-82156202D01*
X139387664Y-82156206D01*
X139272455Y-82242452D01*
X139272452Y-82242455D01*
X139186206Y-82357664D01*
X139186202Y-82357671D01*
X139135908Y-82492517D01*
X139129501Y-82552116D01*
X139129500Y-82552135D01*
X126654500Y-82552135D01*
X126654500Y-77897648D01*
X144079500Y-77897648D01*
X144079500Y-78102351D01*
X144111522Y-78304534D01*
X144174781Y-78499223D01*
X144267715Y-78681613D01*
X144388028Y-78847213D01*
X144532786Y-78991971D01*
X144687749Y-79104556D01*
X144698390Y-79112287D01*
X144786517Y-79157190D01*
X144880776Y-79205218D01*
X144880778Y-79205218D01*
X144880781Y-79205220D01*
X144985137Y-79239127D01*
X145075465Y-79268477D01*
X145176557Y-79284488D01*
X145277648Y-79300500D01*
X145277649Y-79300500D01*
X145482351Y-79300500D01*
X145482352Y-79300500D01*
X145684534Y-79268477D01*
X145879219Y-79205220D01*
X146061610Y-79112287D01*
X146158234Y-79042086D01*
X146227213Y-78991971D01*
X146227215Y-78991968D01*
X146227219Y-78991966D01*
X146371966Y-78847219D01*
X146371968Y-78847215D01*
X146371971Y-78847213D01*
X146492284Y-78681614D01*
X146492285Y-78681613D01*
X146492287Y-78681610D01*
X146539516Y-78588917D01*
X146587489Y-78538123D01*
X146655310Y-78521328D01*
X146721445Y-78543865D01*
X146760485Y-78588919D01*
X146807715Y-78681614D01*
X146928028Y-78847213D01*
X147072786Y-78991971D01*
X147227749Y-79104556D01*
X147238390Y-79112287D01*
X147326517Y-79157190D01*
X147420776Y-79205218D01*
X147420778Y-79205218D01*
X147420781Y-79205220D01*
X147525137Y-79239127D01*
X147615465Y-79268477D01*
X147716557Y-79284488D01*
X147817648Y-79300500D01*
X147817649Y-79300500D01*
X148022351Y-79300500D01*
X148022352Y-79300500D01*
X148224534Y-79268477D01*
X148419219Y-79205220D01*
X148601610Y-79112287D01*
X148698234Y-79042086D01*
X148767213Y-78991971D01*
X148767215Y-78991968D01*
X148767219Y-78991966D01*
X148911966Y-78847219D01*
X148911968Y-78847215D01*
X148911971Y-78847213D01*
X149032284Y-78681614D01*
X149032285Y-78681613D01*
X149032287Y-78681610D01*
X149079516Y-78588917D01*
X149127489Y-78538123D01*
X149195310Y-78521328D01*
X149261445Y-78543865D01*
X149300485Y-78588919D01*
X149347715Y-78681614D01*
X149468028Y-78847213D01*
X149612786Y-78991971D01*
X149767749Y-79104556D01*
X149778390Y-79112287D01*
X149866517Y-79157190D01*
X149960776Y-79205218D01*
X149960778Y-79205218D01*
X149960781Y-79205220D01*
X150065137Y-79239127D01*
X150155465Y-79268477D01*
X150256557Y-79284488D01*
X150357648Y-79300500D01*
X150357649Y-79300500D01*
X150562351Y-79300500D01*
X150562352Y-79300500D01*
X150764534Y-79268477D01*
X150959219Y-79205220D01*
X151141610Y-79112287D01*
X151238234Y-79042086D01*
X151307213Y-78991971D01*
X151307215Y-78991968D01*
X151307219Y-78991966D01*
X151451966Y-78847219D01*
X151451968Y-78847215D01*
X151451971Y-78847213D01*
X151572284Y-78681614D01*
X151572285Y-78681613D01*
X151572287Y-78681610D01*
X151619516Y-78588917D01*
X151667489Y-78538123D01*
X151735310Y-78521328D01*
X151801445Y-78543865D01*
X151840485Y-78588919D01*
X151887715Y-78681614D01*
X152008028Y-78847213D01*
X152152786Y-78991971D01*
X152307749Y-79104556D01*
X152318390Y-79112287D01*
X152406517Y-79157190D01*
X152500776Y-79205218D01*
X152500778Y-79205218D01*
X152500781Y-79205220D01*
X152605137Y-79239127D01*
X152695465Y-79268477D01*
X152796557Y-79284488D01*
X152897648Y-79300500D01*
X152897649Y-79300500D01*
X153102351Y-79300500D01*
X153102352Y-79300500D01*
X153304534Y-79268477D01*
X153499219Y-79205220D01*
X153681610Y-79112287D01*
X153778234Y-79042086D01*
X153847213Y-78991971D01*
X153847215Y-78991968D01*
X153847219Y-78991966D01*
X153991966Y-78847219D01*
X153991968Y-78847215D01*
X153991971Y-78847213D01*
X154112284Y-78681614D01*
X154112285Y-78681613D01*
X154112287Y-78681610D01*
X154159516Y-78588917D01*
X154207489Y-78538123D01*
X154275310Y-78521328D01*
X154341445Y-78543865D01*
X154380485Y-78588919D01*
X154427715Y-78681614D01*
X154548028Y-78847213D01*
X154692786Y-78991971D01*
X154847749Y-79104556D01*
X154858390Y-79112287D01*
X154946517Y-79157190D01*
X155040776Y-79205218D01*
X155040778Y-79205218D01*
X155040781Y-79205220D01*
X155145137Y-79239127D01*
X155235465Y-79268477D01*
X155336557Y-79284488D01*
X155437648Y-79300500D01*
X155437649Y-79300500D01*
X155642351Y-79300500D01*
X155642352Y-79300500D01*
X155844534Y-79268477D01*
X156039219Y-79205220D01*
X156221610Y-79112287D01*
X156318234Y-79042086D01*
X156387213Y-78991971D01*
X156387215Y-78991968D01*
X156387219Y-78991966D01*
X156531966Y-78847219D01*
X156531968Y-78847215D01*
X156531971Y-78847213D01*
X156652284Y-78681614D01*
X156652285Y-78681613D01*
X156652287Y-78681610D01*
X156699516Y-78588917D01*
X156747489Y-78538123D01*
X156815310Y-78521328D01*
X156881445Y-78543865D01*
X156920485Y-78588919D01*
X156967715Y-78681614D01*
X157088028Y-78847213D01*
X157232786Y-78991971D01*
X157387749Y-79104556D01*
X157398390Y-79112287D01*
X157486517Y-79157190D01*
X157580776Y-79205218D01*
X157580778Y-79205218D01*
X157580781Y-79205220D01*
X157685137Y-79239127D01*
X157775465Y-79268477D01*
X157876557Y-79284488D01*
X157977648Y-79300500D01*
X157977649Y-79300500D01*
X158182351Y-79300500D01*
X158182352Y-79300500D01*
X158384534Y-79268477D01*
X158579219Y-79205220D01*
X158761610Y-79112287D01*
X158858234Y-79042086D01*
X158927213Y-78991971D01*
X158927215Y-78991968D01*
X158927219Y-78991966D01*
X159071966Y-78847219D01*
X159098770Y-78810325D01*
X159154099Y-78767660D01*
X159223712Y-78761679D01*
X159285508Y-78794284D01*
X159319866Y-78855122D01*
X159322378Y-78869953D01*
X159326401Y-78907373D01*
X159326403Y-78907379D01*
X159376645Y-79042086D01*
X159376649Y-79042093D01*
X159462809Y-79157187D01*
X159462812Y-79157190D01*
X159577906Y-79243350D01*
X159577913Y-79243354D01*
X159712620Y-79293596D01*
X159712627Y-79293598D01*
X159772155Y-79299999D01*
X159772172Y-79300000D01*
X160370000Y-79300000D01*
X160370000Y-78315686D01*
X160374394Y-78320080D01*
X160465606Y-78372741D01*
X160567339Y-78400000D01*
X160672661Y-78400000D01*
X160774394Y-78372741D01*
X160865606Y-78320080D01*
X160870000Y-78315686D01*
X160870000Y-79300000D01*
X161467828Y-79300000D01*
X161467844Y-79299999D01*
X161527372Y-79293598D01*
X161527379Y-79293596D01*
X161662086Y-79243354D01*
X161662093Y-79243350D01*
X161777187Y-79157190D01*
X161777190Y-79157187D01*
X161863350Y-79042093D01*
X161863354Y-79042086D01*
X161913596Y-78907379D01*
X161913598Y-78907372D01*
X161919999Y-78847844D01*
X161920000Y-78847827D01*
X161920000Y-78250000D01*
X160935686Y-78250000D01*
X160940080Y-78245606D01*
X160992741Y-78154394D01*
X161020000Y-78052661D01*
X161020000Y-77947339D01*
X160992741Y-77845606D01*
X160940080Y-77754394D01*
X160935686Y-77750000D01*
X161920000Y-77750000D01*
X161920000Y-77152172D01*
X161919999Y-77152155D01*
X161913598Y-77092627D01*
X161913596Y-77092620D01*
X161863354Y-76957913D01*
X161863350Y-76957906D01*
X161777190Y-76842812D01*
X161777187Y-76842809D01*
X161662093Y-76756649D01*
X161662086Y-76756645D01*
X161527379Y-76706403D01*
X161527372Y-76706401D01*
X161467844Y-76700000D01*
X160870000Y-76700000D01*
X160870000Y-77684314D01*
X160865606Y-77679920D01*
X160774394Y-77627259D01*
X160672661Y-77600000D01*
X160567339Y-77600000D01*
X160465606Y-77627259D01*
X160374394Y-77679920D01*
X160370000Y-77684314D01*
X160370000Y-76700000D01*
X159772155Y-76700000D01*
X159712627Y-76706401D01*
X159712620Y-76706403D01*
X159577913Y-76756645D01*
X159577906Y-76756649D01*
X159462812Y-76842809D01*
X159462809Y-76842812D01*
X159376649Y-76957906D01*
X159376645Y-76957913D01*
X159326403Y-77092620D01*
X159326401Y-77092626D01*
X159322378Y-77130046D01*
X159295639Y-77194597D01*
X159238246Y-77234444D01*
X159168421Y-77236937D01*
X159108333Y-77201283D01*
X159098770Y-77189674D01*
X159071966Y-77152781D01*
X158927219Y-77008034D01*
X158927213Y-77008028D01*
X158761613Y-76887715D01*
X158761612Y-76887714D01*
X158761610Y-76887713D01*
X158673487Y-76842812D01*
X158579223Y-76794781D01*
X158384534Y-76731522D01*
X158209995Y-76703878D01*
X158182352Y-76699500D01*
X157977648Y-76699500D01*
X157953329Y-76703351D01*
X157775465Y-76731522D01*
X157580776Y-76794781D01*
X157398386Y-76887715D01*
X157232786Y-77008028D01*
X157088028Y-77152786D01*
X156967715Y-77318386D01*
X156920485Y-77411080D01*
X156872510Y-77461876D01*
X156804689Y-77478671D01*
X156738554Y-77456134D01*
X156699515Y-77411080D01*
X156698883Y-77409840D01*
X156652287Y-77318390D01*
X156644556Y-77307749D01*
X156531971Y-77152786D01*
X156387213Y-77008028D01*
X156221613Y-76887715D01*
X156221612Y-76887714D01*
X156221610Y-76887713D01*
X156133487Y-76842812D01*
X156039223Y-76794781D01*
X155844534Y-76731522D01*
X155669995Y-76703878D01*
X155642352Y-76699500D01*
X155437648Y-76699500D01*
X155413329Y-76703351D01*
X155235465Y-76731522D01*
X155040776Y-76794781D01*
X154858386Y-76887715D01*
X154692786Y-77008028D01*
X154548028Y-77152786D01*
X154427715Y-77318386D01*
X154380485Y-77411080D01*
X154332510Y-77461876D01*
X154264689Y-77478671D01*
X154198554Y-77456134D01*
X154159515Y-77411080D01*
X154158883Y-77409840D01*
X154112287Y-77318390D01*
X154104556Y-77307749D01*
X153991971Y-77152786D01*
X153847213Y-77008028D01*
X153681613Y-76887715D01*
X153681612Y-76887714D01*
X153681610Y-76887713D01*
X153593487Y-76842812D01*
X153499223Y-76794781D01*
X153304534Y-76731522D01*
X153129995Y-76703878D01*
X153102352Y-76699500D01*
X152897648Y-76699500D01*
X152873329Y-76703351D01*
X152695465Y-76731522D01*
X152500776Y-76794781D01*
X152318386Y-76887715D01*
X152152786Y-77008028D01*
X152008028Y-77152786D01*
X151887715Y-77318386D01*
X151840485Y-77411080D01*
X151792510Y-77461876D01*
X151724689Y-77478671D01*
X151658554Y-77456134D01*
X151619515Y-77411080D01*
X151618883Y-77409840D01*
X151572287Y-77318390D01*
X151564556Y-77307749D01*
X151451971Y-77152786D01*
X151307213Y-77008028D01*
X151141613Y-76887715D01*
X151141612Y-76887714D01*
X151141610Y-76887713D01*
X151053487Y-76842812D01*
X150959223Y-76794781D01*
X150764534Y-76731522D01*
X150589995Y-76703878D01*
X150562352Y-76699500D01*
X150357648Y-76699500D01*
X150333329Y-76703351D01*
X150155465Y-76731522D01*
X149960776Y-76794781D01*
X149778386Y-76887715D01*
X149612786Y-77008028D01*
X149468028Y-77152786D01*
X149347715Y-77318386D01*
X149300485Y-77411080D01*
X149252510Y-77461876D01*
X149184689Y-77478671D01*
X149118554Y-77456134D01*
X149079515Y-77411080D01*
X149078883Y-77409840D01*
X149032287Y-77318390D01*
X149024556Y-77307749D01*
X148911971Y-77152786D01*
X148767213Y-77008028D01*
X148601613Y-76887715D01*
X148601612Y-76887714D01*
X148601610Y-76887713D01*
X148513487Y-76842812D01*
X148419223Y-76794781D01*
X148224534Y-76731522D01*
X148049995Y-76703878D01*
X148022352Y-76699500D01*
X147817648Y-76699500D01*
X147793329Y-76703351D01*
X147615465Y-76731522D01*
X147420776Y-76794781D01*
X147238386Y-76887715D01*
X147072786Y-77008028D01*
X146928028Y-77152786D01*
X146807715Y-77318386D01*
X146760485Y-77411080D01*
X146712510Y-77461876D01*
X146644689Y-77478671D01*
X146578554Y-77456134D01*
X146539515Y-77411080D01*
X146538883Y-77409840D01*
X146492287Y-77318390D01*
X146484556Y-77307749D01*
X146371971Y-77152786D01*
X146227213Y-77008028D01*
X146061613Y-76887715D01*
X146061612Y-76887714D01*
X146061610Y-76887713D01*
X145973487Y-76842812D01*
X145879223Y-76794781D01*
X145684534Y-76731522D01*
X145509995Y-76703878D01*
X145482352Y-76699500D01*
X145277648Y-76699500D01*
X145253329Y-76703351D01*
X145075465Y-76731522D01*
X144880776Y-76794781D01*
X144698386Y-76887715D01*
X144532786Y-77008028D01*
X144388028Y-77152786D01*
X144267715Y-77318386D01*
X144174781Y-77500776D01*
X144111522Y-77695465D01*
X144079500Y-77897648D01*
X126654500Y-77897648D01*
X126654500Y-67942961D01*
X126655280Y-67929078D01*
X126661924Y-67870108D01*
X126665861Y-67835164D01*
X126672036Y-67808109D01*
X126700938Y-67725514D01*
X126712978Y-67700511D01*
X126759537Y-67626414D01*
X126776843Y-67604713D01*
X126838713Y-67542843D01*
X126860414Y-67525537D01*
X126934511Y-67478978D01*
X126959514Y-67466938D01*
X127042109Y-67438036D01*
X127069166Y-67431861D01*
X127155852Y-67422094D01*
X127163078Y-67421280D01*
X127176961Y-67420500D01*
X127235892Y-67420500D01*
X178412108Y-67420500D01*
X178471039Y-67420500D01*
X178484922Y-67421280D01*
G37*
%TD.AperFunction*%
%TD*%
M02*
